<?xml version="1.0" standalone="no"?>
<!DOCTYPE svg PUBLIC "-//W3C//DTD SVG 1.1//EN" "http://www.w3.org/Graphics/SVG/1.1/DTD/svg11.dtd" >
<svg>
<metadata>
Created by FontForge 20090622 at Sun Nov 25 05:22:07 2018
 By ffonts
Cirilicna Slova Dodao Nikola Kovanovic.
</metadata>
<defs>
<font id="NK123" horiz-adv-x="254" >
  <font-face 
    font-family="NK123"
    font-weight="400"
    font-stretch="normal"
    units-per-em="1000"
    panose-1="2 0 0 0 0 0 0 0 0 0"
    ascent="800"
    descent="-200"
    x-height="449"
    cap-height="683"
    bbox="-133 -250 998 829"
    underline-thickness="71"
    underline-position="-81"
    unicode-range="U+0020-U+25CA"
  />
<missing-glyph 
 />
    <glyph glyph-name=".notdef" 
 />
    <glyph glyph-name=".null" horiz-adv-x="0" 
 />
    <glyph glyph-name="nonmarkingreturn" 
 />
    <glyph glyph-name="space" unicode=" " 
 />
    <glyph glyph-name="numbersign" unicode="#" horiz-adv-x="506" 
d="M190 304h78l9 71h-76zM19 233v71h95l10 71h-85v72h95l31 220h77l-31 -220h77l30 220h77l-31 -220h85v-72h-95l-10 -71h85v-71h-95l-33 -233h-76l32 233h-76l-33 -233h-77l33 233h-85z" />
    <glyph glyph-name="dollar" unicode="$" horiz-adv-x="561" 
d="M301 63q30 7 51 25q39 37 39 89q0 41 -27 73q-19 21 -63 49v-236v0zM248 583q-46 -9 -46 -57q0 -36 46 -63v120v0zM301 745v-60q10 -1 26 -6t39 -13q41 -16 65 -16q5 0 13.5 1t12.5 1q20 0 20 -20l-11 -14l-21 -27q-35 -43 -46 -74q-8 -21 -22 -21q-13 0 -20 22
q-17 53 -56 65v-147q131 -62 175 -137q23 -40 23 -95q0 -86 -57 -141q-56 -56 -141 -63v-76h-53v76q-127 9 -188 94q-26 37 -26 80q0 62 49 99q28 20 60 20q33 0 59 -20q28 -22 28 -55q0 -29 -19 -29q-5 2 -14 9q-7 4 -15 4q-16 0 -25.5 -13.5t-9.5 -29.5q0 -76 101 -96v264
l-20 12l-27 15q-118 64 -118 160q0 70 50 120q37 37 115 51v60h53z" />
    <glyph glyph-name="percent" unicode="%" horiz-adv-x="732" 
d="M517 318q-25 0 -38 -18q-19 -25 -19 -62q0 -61 42 -109q29 -32 56 -32q58 0 58 78q0 45 -26 91q-30 52 -73 52zM540 414q38 0 70 -35q57 -60 57 -180q0 -75 -29 -135q-38 -72 -98 -72q-66 0 -102 77q-28 60 -28 135q0 76 28 133q36 77 102 77zM172 -20l280 707h61
l-280 -707h-61zM131 582q-25 0 -38 -19q-19 -25 -19 -63q0 -60 42 -108q28 -33 55 -33q59 0 59 79q0 45 -26 91q-30 53 -73 53zM153 677q40 0 71 -34q57 -62 57 -181q0 -77 -30 -135q-38 -72 -97 -72q-66 0 -102 77q-29 63 -29 135q0 77 28 134q36 76 102 76z" />
    <glyph glyph-name="ampersand" unicode="&#x26;" horiz-adv-x="598" 
d="M187 408q-42 19 -60 36q-38 36 -38 90q0 75 70 115q49 29 103 29q49 0 106 -20q36 -13 55 -13q3 0 9 0.5t9 0.5q17 0 26 -29q7 -20 7 -43q0 -56 -32 -93q-33 -38 -89 -38q-37 0 -63 20q-28 22 -28 58q0 32 21 32q7 0 15 -20q6 -15 25 -15q36 0 36 38q0 26 -20 43t-47 17
q-37 0 -60 -25t-23 -63q0 -73 92 -105q17 -6 17 -20q0 -16 -38 -24q-59 -10 -96 -47q-41 -41 -41 -98q0 -52 32 -82.5t84 -30.5q90 0 90 109q0 45 -32 62q-26 12 -26 25q0 20 20 20q10 0 23 -4q46 -12 80 -12q9 0 22 2t30 6q37 8 53 8t16 -19q0 -11 -35 -37q-16 -10 -16 -54
v-42q0 -38 20 -49q17 -9 17 -18q0 -27 -47 -66q-82 -70 -210 -70q-105 0 -176 53q-78 58 -78 160q0 78 51 137q47 55 126 76z" />
    <glyph glyph-name="quoteright" unicode="&#x2019;" horiz-adv-x="249" 
d="M82 557q-48 10 -48 57q0 28 19 47t47 19q31 0 49 -20.5t18 -52.5q0 -74 -77 -137q-42 -33 -59 -33q-9 0 -9 8q0 3 8 13q44 46 52 99z" />
    <glyph glyph-name="parenleft" unicode="(" horiz-adv-x="341" 
d="M278 730q14 0 14 -14q0 -6 -21 -34q-114 -158 -114 -352t123 -363q12 -17 12 -23q0 -14 -14 -14q-21 0 -79 49q-69 57 -113 138q-56 104 -56 218q0 113 61 219q61 103 158 164q19 12 29 12z" />
    <glyph glyph-name="parenright" unicode=")" horiz-adv-x="369" 
d="M47 730q16 1 79 -49q69 -57 113 -138q56 -104 56 -218q0 -103 -51 -200q-50 -94 -133 -158q-47 -37 -64 -37q-14 0 -14 14q0 5 21 34q114 157 114 352q0 193 -123 363q-12 16 -12 23q0 12 14 14z" />
    <glyph glyph-name="asterisk" unicode="*" horiz-adv-x="416" 
d="M282 576q19 11 20 12q9 7 11 19q0 10 6 10q7 0 9 -17q4 -42 26 -80q5 -12 5 -15q0 -5 -5 -5q-3 0 -8 5q-9 10 -23 10q-2 0 -7 -0.5t-13 -1.5l-78 -9l57 -54q23 -20 31 -20q3 0 9 2h6q6 0 6 -6q0 -5 -14 -11q-38 -18 -69 -50q-9 -10 -14 -10t-5 5q0 2 4 9.5t4 12.5t-11 30
l-33 71l-33 -71q-10 -21 -10 -30q0 -6 5 -14q2 -6 2 -8q0 -5 -5 -5t-14 10q-30 32 -68 50q-14 6 -14 11q0 6 6 6h5q8 -2 9 -2q8 0 31 20l57 54l-78 9q-8 1 -13.5 1.5t-7.5 0.5q-13 0 -22 -10q-5 -5 -7 -5q-6 0 -6 5q0 4 6 15q21 37 25 80q2 17 9 17q4 0 6.5 -11t5.5 -14
q5 -6 25 -16l68 -39l-15 77q-2 10 -3 15.5t-2 7.5q-5 11 -16 16q-7 3 -7 8q0 6 9 6q2 0 10 -2q25 -5 42 -5q19 0 42 5q4 1 6.5 1.5t4.5 0.5q9 0 9 -6q0 -8 -17 -14q-2 -1 -2.5 -2t-1.5 -2q-3 -6 -8 -29l-15 -77z" />
    <glyph glyph-name="plus" unicode="+" horiz-adv-x="503" 
d="M434 375v-71h-162v-164h-76v164h-162v71h162v165h76v-165h162z" />
    <glyph glyph-name="comma" unicode="," horiz-adv-x="278" 
d="M82 -4q-48 10 -48 56q0 28 19 47.5t47 19.5q31 0 49 -20.5t18 -52.5q0 -74 -77 -137q-41 -34 -59 -34q-9 0 -9 9q0 4 8 12q44 46 52 100z" />
    <glyph glyph-name="hyphen" unicode="-" horiz-adv-x="282" 
d="M0 198v71h188v-71h-188z" />
    <glyph glyph-name="hyphen" unicode="&#x2010;" horiz-adv-x="282" 
d="M0 198v71h188v-71h-188z" />
    <glyph glyph-name="period" unicode="." horiz-adv-x="260" 
d="M102 119q27 0 46 -19.5t19 -46.5q0 -28 -19.5 -47.5t-46.5 -19.5q-28 0 -47.5 19.5t-19.5 47.5t19.5 47t48.5 19z" />
    <glyph glyph-name="slash" unicode="/" horiz-adv-x="356" 
d="M382 716l-298 -772h-75l299 772h74z" />
    <glyph glyph-name="zero" unicode="0" horiz-adv-x="505" 
d="M191 532q-42 0 -66 -33q-32 -44 -32 -107q0 -103 70 -185q46 -57 94 -57q56 0 83 55q17 36 17 81q0 93 -49 166q-56 80 -117 80zM228 680q59 0 110 -56q90 -101 90 -297q0 -126 -47 -223q-58 -118 -153 -118q-70 0 -123 68q-81 106 -81 280q0 122 43 218q56 128 161 128z
" />
    <glyph glyph-name="one" unicode="1" horiz-adv-x="295" 
d="M44 0q-22 0 -22 13q0 10 27 28q25 17 29 60q1 5 1 69v313q0 30 -4 39q-6 19 -26 27q-30 13 -30 25q0 11 20 16q69 12 111 54q31 29 38 29q9 0 13 -7q1 -2 1 -27v-469q0 -69 5 -92q5 -19 15 -29q4 -4 28 -20q9 -6 9 -16q0 -13 -23 -13h-192z" />
    <glyph glyph-name="two" unicode="2" horiz-adv-x="539" 
d="M275 124q53 0 76 48q10 25 24 25t16 -32q6 -83 51 -126q18 -20 18 -27q0 -12 -31 -12h-359q-42 0 -42 27q0 113 141 253l59 59t33 38q49 65 49 129q0 42 -26 74q-27 34 -68 34q-36 0 -62 -29q-20 -23 -20 -53q0 -20 12 -36q14 -17 34 -17q22 0 31 31q5 17 18 17
q18 0 18 -32q0 -30 -18 -55q-30 -40 -85 -40q-63 0 -99 51q-24 34 -24 84q0 64 31 99q16 18 27 18q1 -1 15 -4q4 -1 7 -1.5t6 -0.5q11 0 29 7q72 27 118 27q100 0 155 -73q40 -52 40 -119q0 -85 -57 -143q-14 -15 -48 -39.5t-88 -59.5q-77 -50 -125 -122h144z" />
    <glyph glyph-name="three" unicode="3" horiz-adv-x="536" 
d="M302 388q60 -17 93 -40q76 -55 76 -155q0 -94 -72 -155q-61 -52 -166 -52q-82 0 -142 39q-70 45 -70 122q0 55 38 91q31 30 75 30q38 0 64.5 -24.5t26.5 -63.5q0 -33 -20 -33l-4 2t-9 5t-10.5 5t-9.5 2q-33 0 -33 -40q0 -25 15 -44q26 -32 66 -32q47 0 77 39q28 34 28 84
q0 141 -169 151q-24 1 -24 19q0 12 20 20q47 21 97 60q65 53 65 115q0 35 -24 60t-59 25q-16 0 -30 -6.5t-24.5 -17t-16.5 -24.5t-6 -29q0 -18 9 -30q10 -15 26 -15q25 0 35 28q6 17 16 17q15 0 15 -21q0 -33 -22 -56q-29 -30 -72 -30q-50 0 -82 31q-45 43 -45 110
q0 17 8 41q11 29 25 29l6 -2q11 -4 25 -4q19 0 45 10q75 31 117 31q70 0 125 -44q48 -39 48 -94q0 -68 -64 -116q-11 -8 -28 -17.5t-39 -20.5z" />
    <glyph glyph-name="four" unicode="4" horiz-adv-x="511" 
d="M441 179h-75v-9v-70q4 -45 30 -59q26 -15 26 -26q0 -15 -22 -15h-192q-20 0 -26 2q-10 4 -10 13q0 12 21 20q35 12 49 41q8 22 8 66v37h-207q-46 0 -46 25q0 16 24 40q141 133 141 301q0 10 -1.5 29t-1.5 29q0 26 32 28q11 1 27 3.5t36 6.5q23 8 55 31q11 8 17 8
q17 0 17 -20q0 -38 -24 -101q-69 -185 -240 -327h171v45q0 26 -33 46q-6 3 -6 10t15 19q59 53 98 126q12 22 26 22q11 0 14 -7q2 -4 2 -25v-236h75v-53z" />
    <glyph glyph-name="five" unicode="5" horiz-adv-x="521" 
d="M139 423q46 39 107 39q90 0 148 -70q49 -58 49 -149q0 -106 -62 -180q-68 -77 -172 -77q-120 0 -170 92q-18 34 -18 74q0 52 27 87q30 38 81 38q35 0 59 -20.5t24 -54.5q0 -38 -19 -38q-4 0 -15 4q-6 3 -13 3q-37 0 -37 -45q0 -29 22 -48.5t52 -19.5q48 0 73 34
q35 47 35 117q0 94 -53 136q-29 23 -62 23q-44 0 -82 -47q-14 -15 -25 -15q-27 0 -27 26q0 2 0.5 6.5t1.5 10.5l34 283q5 38 25 38q7 0 27 -11q50 -28 98 -28q36 0 64 11l22.5 11.5t34.5 20.5q9 6 17 6q18 0 18 -21q0 -18 -17 -57q-41 -86 -150 -86q-42 0 -84 17l-13 -110v0
z" />
    <glyph glyph-name="six" unicode="6" horiz-adv-x="521" 
d="M289 680q45 0 77 -22q38 -26 38 -68q0 -32 -25 -53t-57 -21q-20 0 -41 10q-26 12 -26 29q0 3 3 7.5l6.5 9.5l6.5 9.5t3 7.5q0 22 -22 22q-36 0 -66 -46q-49 -74 -49 -194q0 -91 31 -163q41 -98 118 -98q39 0 62 36q20 32 20 74q0 49 -25 92q-33 55 -80 55q-28 0 -45 -23
q-13 -19 -13 -51q0 -14 7 -45q1 -3 1 -10q0 -12 -11 -12q-21 0 -33 48q-8 37 -8 64q0 55 24 96q31 54 88 54q74 0 123 -82q40 -68 40 -160q0 -96 -47 -172q-55 -88 -147 -88q-110 0 -174 117q-44 80 -44 194q0 148 66 258q42 70 102 103q40 22 97 22z" />
    <glyph glyph-name="seven" unicode="7" horiz-adv-x="380" 
d="M268 569q-112 -64 -185 -64q-49 0 -75 20q-15 12 -15 23q0 7 11 24q25 40 36 86q4 22 18 22q8 0 31 -12q72 -35 132 -35q49 0 99 24q31 16 39 16q23 0 23 -24q0 -14 -61 -84q-116 -136 -116 -324q0 -157 72 -206q15 -11 15 -20q0 -15 -24 -15h-147q-27 0 -38 17
q-21 33 -21 118q0 144 102 302q40 61 81 105l12 13.5t11 13.5z" />
    <glyph glyph-name="eight" unicode="8" horiz-adv-x="531" 
d="M247 680q83 0 137 -55q41 -41 41 -98q0 -48 -29 -82q-32 -35 -80 -35q-50 0 -81 39q-14 19 -14 33q0 13 8 13q2 -1 8 -3q16 -10 34 -10q17 0 28 10q19 18 19 48q0 31 -22 53t-54 22q-35 0 -58 -26t-23 -62q0 -49 44 -87q27 -23 88 -50l62 -28q31 -14 56 -39
q59 -57 59 -135q0 -57 -30.5 -104t-84.5 -72q-55 -26 -117 -26q-83 0 -147 46q-70 49 -70 131q0 46 29 84q39 50 100 50q18 0 38 -6q25 -7 25 -22q0 -9 -12 -13q-27 -12 -43 -39t-16 -57q0 -48 26 -77.5t74 -29.5q59 0 88 50q15 28 15 59q0 52 -45 87q-14 10 -41 24.5
t-69 34.5q-35 17 -60.5 33.5t-39.5 33.5q-42 49 -42 121q0 82 61 136q52 48 138 48z" />
    <glyph glyph-name="nine" unicode="9" horiz-adv-x="524" 
d="M223 681q100 0 169 -102q57 -86 57 -217q0 -124 -46 -223q-71 -153 -205 -153q-67 0 -109 39q-37 34 -37 83q0 43 24 70q24 29 66 29q35 0 59 -25q16 -16 16 -27q0 -6 -18 -13q-15 -6 -15 -26q0 -37 46 -37q63 0 94 82q23 61 23 134q0 92 -36 169q-45 98 -128 98
q-40 0 -64 -32q-22 -28 -22 -69q0 -42 24 -73q25 -34 66 -34q25 0 42.5 19t17.5 44q0 19 -20 54q-4 5 -4 11q0 11 10 11q18 0 41 -27q40 -49 40 -110q0 -45 -25 -82q-36 -49 -94 -49q-77 0 -128 80q-44 70 -44 151q0 106 71 174q52 51 129 51z" />
    <glyph glyph-name="colon" unicode=":" horiz-adv-x="257" 
d="M102 119q27 0 46 -19.5t19 -46.5q0 -28 -19.5 -47.5t-46.5 -19.5q-28 0 -47.5 19.5t-19.5 47.5t19.5 47t48.5 19zM102 362q27 0 46 -19.5t19 -46.5q0 -28 -19.5 -47.5t-46.5 -19.5q-28 0 -47.5 19.5t-19.5 47.5t19.5 47t48.5 19z" />
    <glyph glyph-name="semicolon" unicode=";" horiz-adv-x="258" 
d="M82 -4q-48 10 -48 56q0 28 19 47.5t47 19.5q31 0 49 -20.5t18 -52.5q0 -74 -77 -137q-41 -34 -59 -34q-9 0 -9 9q0 4 8 12q44 46 52 100zM102 362q27 0 46 -19.5t19 -46.5q0 -28 -19.5 -47.5t-46.5 -19.5q-28 0 -47.5 19.5t-19.5 47.5t19.5 47t48.5 19z" />
    <glyph glyph-name="less" unicode="&#x3c;" horiz-adv-x="546" 
d="M466 490l-333 -157l333 -156v-94l-433 210v81l433 209v-93z" />
    <glyph glyph-name="equal" unicode="=" horiz-adv-x="509" 
d="M34 233v71h400v-71h-400zM34 375v72h400v-72h-400z" />
    <glyph glyph-name="greater" unicode="&#x3e;" horiz-adv-x="523" 
d="M467 374v-81l-433 -210v94l333 156l-333 157v93z" />
    <glyph glyph-name="question" unicode="?" horiz-adv-x="517" 
d="M218 119q27 0 46 -19.5t19 -46.5q0 -28 -19.5 -47.5t-46.5 -19.5q-28 0 -47.5 19.5t-19.5 47.5t20 47t48 19zM272 680q78 0 134 -53q55 -52 55 -130q0 -74 -55 -132q-11 -13 -33 -29.5t-54 -38.5q-41 -29 -57 -57q-13 -25 -20 -80q-3 -20 -20 -20t-23 20q-9 30 -9 70
q0 53 31 99q11 18 48 56q54 57 54 122q0 53 -40 87q-25 20 -54 20q-34 0 -58 -23.5t-24 -56.5q0 -20 11 -36q10 -19 31 -19q26 0 37 30q4 16 15 16q20 0 20 -29q0 -21 -8 -38.5t-21.5 -30t-32 -20t-39.5 -7.5q-57 0 -92 41q-34 37 -34 97q0 29 15 67q18 46 43 46
q5 0 13.5 -2.5t13.5 -2.5q8 0 26 5q85 29 127 29z" />
    <glyph glyph-name="at" unicode="@" horiz-adv-x="728" 
d="M379 194q-36 -41 -83 -41q-50 0 -78 42q-25 34 -25 88q0 97 65 170q54 60 117 60q13 0 33 -5q23 -8 23 -18q0 -11 -13 -11h-16q-44 0 -74 -46q-39 -62 -39 -136q0 -72 47 -72q40 0 51 75l9 64q2 16 3 26t1 14q0 14 -20 28q-6 4 -6 9q0 12 16 16q54 15 92 49q7 7 15 7
q9 0 9 -10q0 -4 -1 -9l-29 -210q-2 -14 -3 -24t-1 -15q0 -20 11 -20q21 0 52 40q51 69 51 153q0 75 -43 130q-52 67 -138 67q-106 0 -195 -86q-41 -40 -69 -94q-38 -78 -38 -162q0 -95 56 -157q59 -65 152 -65q69 0 133 40q17 11 27 11q29 0 29 -29q0 -21 -28 -37
q-83 -50 -169 -50q-88 0 -154.5 48t-95.5 132q-19 51 -19 113q0 126 75 236q54 75 126 118q80 47 165 47q77 0 139 -38q64 -38 94 -107q22 -48 22 -109q0 -97 -55 -176q-67 -97 -148 -97q-50 0 -73 41z" />
    <glyph glyph-name="A" unicode="A" horiz-adv-x="791" 
d="M347 331q32 -41 56 -106q14 31 41 69l-55 190zM464 225q-13 -18 -39 -74q-9 -20 -27 -20q-21 0 -27 24q-17 63 -47 106q-46 -156 -120 -233q-44 -45 -109 -45q-45 0 -73.5 27.5t-28.5 72.5q0 37 23 65q24 30 62 30q17 0 25 -18q9 -25 34 -25q48 0 87 78q15 30 42 102
q-17 10 -35 10q-32 0 -32 -29q0 -7 4 -19q1 -1 1 -5q0 -17 -28 -17q-24 0 -41 20q-14 19 -14 44q0 42 33 68q26 22 61 22q36 0 74 -24l29 99q11 39 11 60q0 33 -37 66q-19 16 -19 29q0 25 27 25q10 0 28 -7q57 -19 92 -19q36 0 87 19q20 7 32 7q26 0 26 -23q0 -12 -18 -27
q-35 -29 -35 -63q0 -14 8 -41l110 -374q19 -66 63 -89q23 -11 23 -25q0 -22 -39 -22h-185q-30 0 -30 18q0 13 17 22q25 13 25 33q0 14 -7 38l-33 114v0z" />
    <glyph glyph-name="B" unicode="B" horiz-adv-x="675" 
d="M211 190q0 -42 15 -66q27 -48 98 -48q63 0 98 36.5t35 99.5q0 71 -45 110q-28 25 -62 25q-26 0 -45 -15q-21 -17 -21 -42q0 -17 9 -30q10 -15 26 -15q15 0 22 19t16 19q28 0 28 -32q0 -24 -18.5 -39t-43.5 -15q-42 0 -71 35q-23 29 -23 66q0 48 36 81q13 13 66 45
q66 40 66 99q0 85 -84 85q-58 0 -85 -45q-17 -29 -17 -85v-288zM429 388q103 -14 149 -78q33 -47 33 -107q0 -110 -96 -171q-76 -49 -201 -49q-135 0 -236 52q-51 25 -51 50q0 14 17 25q22 15 30 32q5 13 5 43v337q0 28 -6 42.5t-25 33.5q-17 17 -17 29t8 21.5t19 9.5
q7 0 18 -4q39 -15 69 -15q28 0 82 17q79 24 138 24q75 0 128 -39q59 -44 59 -116q0 -83 -69 -117q-9 -5 -22.5 -10t-31.5 -10z" />
    <glyph glyph-name="C" unicode="C" horiz-adv-x="608" 
d="M300 680q36 0 92 -18q36 -11 46 -11q9 0 27 8q12 5 14 5q27 0 42 -54q12 -41 12 -74q0 -110 -63 -174q-53 -53 -123 -53q-47 0 -78 24q-43 31 -43 81q0 27 17 50q18 24 46 24q25 0 25 -25q0 -12 -13 -19q-25 -13 -25 -30t16 -27q13 -10 31 -10q31 0 51.5 22.5t20.5 53.5
q0 40 -29 65.5t-69 25.5q-63 0 -103 -55q-45 -63 -45 -160q0 -94 47 -162q53 -77 144 -77q117 0 170 128q7 15 18 15q20 0 20 -37q0 -43 -18 -82.5t-49 -69t-73 -46.5t-90 -15q-140 0 -223 110q-74 100 -74 245q0 97 36 175q41 86 117 131q61 36 126 36z" />
    <glyph glyph-name="D" unicode="D" horiz-adv-x="687" 
d="M309 120q164 0 164 209q0 115 -56 185q-65 80 -171 80q-73 0 -128 -39q-67 -45 -71 -121q-2 -26 -14 -26q-17 0 -26 30q-7 20 -7 42q0 65 49 117q80 83 218 83q102 0 184 -49q84 -49 127 -140q35 -78 35 -171q0 -205 -137 -285q-61 -35 -138 -35h-261q-27 0 -27 20
q0 11 23 22q33 14 41 47q3 13 3 68v216q0 32 -24 43q-19 7 -19 20q0 17 19 37q70 82 162 82q33 0 33 -24q0 -6 -15 -22q-17 -18 -18 -28q-5 -18 -5 -51v-310h59z" />
    <glyph glyph-name="E" unicode="E" horiz-adv-x="654" 
d="M213 365q48 1 62 62q11 41 28 41t18 -37q0 -54 11 -93q7 -28 35 -88q5 -12 5 -18q0 -21 -19 -21q-11 0 -21 15q-22 30 -29 37q-36 41 -90 41v-82q0 -63 18 -94q27 -44 99 -44q101 0 128 103q11 38 26 38t23 -47q10 -79 58 -133q22 -23 22 -34q0 -21 -20 -21
q-2 0 -4.5 0.5t-6.5 1.5q-29 8 -54 8h-462q-27 0 -27 20q0 12 26 23q32 16 40 54q1 4 1 73v274q0 38 -6 55q-10 22 -41 31q-17 5 -17 17q0 29 70 78q79 55 188 55q70 0 171 -45q27 -12 45 -12q17 0 33 10q7 6 12 6q14 0 23 -30q7 -21 7 -42q0 -60 -45 -97q-40 -32 -89 -32
q-44 0 -69 25q-19 19 -19 42q0 16 12 16q3 0 10 -2.5t11 -2.5q31 0 31 35q0 31 -28 47q-23 16 -54 16q-73 0 -98 -70q-14 -39 -14 -129v-50v0z" />
    <glyph glyph-name="F" unicode="F" horiz-adv-x="620" 
d="M213 365q48 1 62 62q11 41 28 41q18 0 18 -37q0 -52 11 -93q4 -13 12 -34.5t22 -52.5q6 -12 6 -19q0 -21 -19 -21q-11 0 -24 18q-2 4 -6.5 10l-11.5 15q-38 52 -98 50v-163q0 -50 6 -63q10 -26 48 -36q26 -6 26 -22q0 -20 -28 -20h-225q-27 0 -27 20q0 12 27 24
q30 13 38 47q1 6 1.5 22.5t0.5 43.5v287q0 36 -6 53q-11 25 -39 32q-19 6 -19 18q0 29 70 78q79 55 188 55q73 0 150 -36q46 -21 66 -21q18 0 32 10q7 6 13 6q14 0 23 -30q7 -21 7 -42q0 -60 -45 -97q-40 -32 -89 -32q-44 0 -69 25q-19 19 -19 42q0 16 12 16q3 0 10.5 -2.5
t10.5 -2.5q31 0 31 35q0 31 -28 47q-23 16 -54 16q-78 0 -101 -80q-11 -38 -11 -119v-50v0z" />
    <glyph glyph-name="G" unicode="G" horiz-adv-x="668" 
d="M545 173q0 -35 27 -48q15 -8 15 -19q0 -17 -22 -38q-88 -85 -228 -85q-156 0 -242 116q-74 101 -74 236q0 143 81 239q54 63 125 89q46 17 93 17q60 0 132 -28q24 -8 32 -8q15 0 29 10q11 8 19 8q21 0 36 -43q12 -35 12 -61q0 -72 -49 -118q-47 -46 -118 -46
q-55 0 -87 31q-28 27 -28 61q0 22 14 41q13 21 36 21q27 0 27 -22q0 -6 -10 -13q-17 -14 -17 -28q0 -28 34 -28q23 0 38 18q13 16 13 41q0 42 -32 68q-29 25 -72 25q-54 0 -103 -41q-81 -71 -81 -210q0 -98 37 -157q52 -84 138 -84q47 0 74 30q19 22 19 74q0 34 -6 48
q-7 15 -36 32q-26 15 -26 27q0 22 24 22q6 0 17 -3q54 -14 84 -14q31 0 69 12q21 7 31 7q26 0 26 -22q0 -13 -22 -28q-29 -20 -29 -61v-68z" />
    <glyph glyph-name="H" unicode="H" horiz-adv-x="697" 
d="M412 413v43q0 75 -3 90q-7 46 -45 73q-22 15 -22 27q0 19 18 19q4 0 21 -6q51 -19 95 -19q47 0 99 23q7 4 14 4q21 0 21 -20q0 -12 -23 -29q-33 -22 -41 -74q-1 -5 -1.5 -27t-0.5 -61v-303q0 -56 4 -68q9 -29 45 -45q19 -7 19 -20q0 -20 -28 -20h-212q-28 0 -28 20
q0 12 27 23q30 14 38 46q3 13 3 64v201q-35 -14 -45 -25q-12 -12 -20 -45q-8 -36 -30 -36q-15 0 -27 25q-14 27 -30 27q-8 0 -41 -11v-136q0 -56 4 -68q7 -29 45 -45q19 -7 19 -20q0 -20 -28 -20h-213q-27 0 -27 20q0 12 26 23q30 13 38 46q3 13 3 64v303q0 38 -0.5 60
t-1.5 30q-7 46 -45 73q-22 15 -22 27q0 19 18 19q4 0 21 -6q51 -19 95 -19q47 0 99 23q7 4 14 4q21 0 21 -20q0 -12 -23 -29q-33 -22 -41 -74q-1 -5 -1.5 -27t-0.5 -61v-107z" />
    <glyph glyph-name="I" unicode="I" horiz-adv-x="372" 
d="M219 153q0 -56 4 -68q7 -29 45 -45q19 -7 19 -20q0 -20 -28 -20h-213q-27 0 -27 20q0 12 26 23q30 13 38 46q3 13 3 64v303q0 38 -0.5 60t-1.5 30q-7 46 -45 73q-22 15 -22 27q0 19 18 19q4 0 21 -6q51 -19 95 -19q47 0 99 23q7 4 14 4q21 0 21 -20q0 -12 -23 -29
q-33 -22 -41 -74q-1 -5 -1.5 -27t-0.5 -61v-303z" />
    <glyph glyph-name="J" unicode="J" horiz-adv-x="462" 
d="M230 456q0 76 -4 93q-12 47 -56 70q-23 14 -23 27q0 19 20 19q9 0 29 -7q54 -18 97 -18q47 0 98 22q12 5 17 5q21 0 21 -20q0 -8 -26 -31q-29 -23 -33 -45q-7 -24 -7 -115v-189q0 -61 24 -95q10 -14 10 -26q0 -31 -42 -79q-75 -84 -186 -84q-70 0 -119 34q-57 37 -57 105
q0 43 27 75q34 42 90 42q27 0 57 -14q35 -17 35 -42q0 -19 -17 -19q-4 0 -13.5 3t-14.5 3q-18 0 -29.5 -14t-11.5 -32q0 -22 15.5 -38.5t37.5 -16.5q35 0 51 34q10 20 10 75v278z" />
    <glyph glyph-name="K" unicode="K" horiz-adv-x="712" 
d="M370 361q18 -4 35.5 -8.5t34.5 -11.5q50 -21 50 -44q0 -4 -6 -17.5t-6 -23.5q0 -17 10 -36l70 -125q19 -34 55 -51q26 -12 26 -26q0 -18 -25 -18h-219q-29 0 -29 19q0 10 14 18q19 10 22 15q6 7 6 18q0 16 -12 39l-74 134q-25 46 -59 46q-44 0 -44 -58v-78q0 -56 4 -68
q7 -29 45 -45q19 -7 19 -20q0 -20 -28 -20h-213q-27 0 -27 20q0 12 26 23q30 13 38 46q3 13 3 64v303q0 38 -0.5 60.5t-1.5 29.5q-8 48 -45 73q-22 13 -22 27q0 19 18 19q4 0 21 -6q51 -19 95 -19q47 0 99 23q7 4 15 4q20 0 20 -20q0 -11 -25 -30q-28 -22 -34 -46
q-7 -27 -7 -115v-128q61 56 170 123q49 28 49 59q0 26 -26 26q-14 0 -22 -14q-6 -11 -16 -11q-17 0 -29 27q-10 21 -10 41q0 45 30.5 73t75.5 28q52 0 86 -33.5t34 -85.5q0 -66 -52 -115q-31 -29 -94 -60l-24 -13z" />
    <glyph glyph-name="L" unicode="L" horiz-adv-x="593" 
d="M46 0q-27 0 -27 20q0 12 26 23q30 13 38 46q3 13 3 64v303q0 38 -0.5 60t-1.5 30q-7 46 -45 73q-22 15 -22 27q0 19 18 19q4 0 21 -6q50 -19 94 -19q43 0 107 23q8 4 14 4q22 0 22 -21q0 -11 -29 -28q-35 -21 -43 -69q-1 -5 -1.5 -26.5t-0.5 -59.5v-239q0 -95 48 -123
q25 -16 54 -16q50 0 78 37q28 32 28 83q0 32 -17 72q-8 18 -8 24q0 21 22 21q25 0 51 -35q32 -46 32 -112v-17t-1 -27q-1 -5 -1 -9v-5q0 -38 33 -83q5 -8 5 -15q0 -28 -27 -28q-6 0 -14.5 1.5l-17.5 3l-17.5 3t-13.5 1.5h-407z" />
    <glyph glyph-name="M" unicode="M" horiz-adv-x="831" 
d="M413 28q-11 -33 -33 -33t-31 33l-136 458q12 -89 12 -193q0 -59 -4.5 -107t-12.5 -86q-27 -117 -115 -117q-42 0 -67.5 28.5t-25.5 70.5t26 70q18 19 37 19q1 0 6 -2.5l10.5 -5.5t11.5 -5.5t10 -2.5q53 0 53 236q0 89 -8 126q-15 57 -68 103q-20 17 -20 27q0 19 18 19
q6 0 24 -7q60 -22 116 -22q51 0 111 20q24 9 29 9q19 0 19 -20q0 -12 -18 -25q-27 -20 -27 -48q0 -16 8 -43l75 -251l73 251q8 30 8 41q0 27 -32 53q-16 12 -16 23q0 19 20 19q8 0 35 -10q49 -16 104 -16q53 0 104 23q7 4 14 4q21 0 21 -20q0 -12 -23 -29q-29 -20 -35 -44
q-8 -30 -8 -118v-303q0 -56 4 -68q7 -29 45 -45q19 -7 19 -20q0 -20 -28 -20h-213q-27 0 -27 20q0 12 26 23q30 13 38 46q3 13 3 64v333z" />
    <glyph glyph-name="N" unicode="N" horiz-adv-x="675" 
d="M491 456q0 72 -10 96q-10 31 -60 73q-15 13 -15 22q0 17 17 17q4 0 16 -5q40 -17 85 -17q41 0 83 19q13 6 19 6q17 0 17 -20q0 -10 -18 -23q-42 -33 -56 -74q-10 -27 -10 -94v-260q0 -34 29 -40q23 -5 23 -22q0 -11 -15 -27q-32 -33 -36 -91q-3 -33 -28 -33q-17 0 -41 34
l-274 411q4 -29 6 -63t2 -74q0 -135 -18 -201q-30 -107 -114 -107q-42 0 -67.5 28t-25.5 70q0 40 26 68q20 20 36 20q2 0 6.5 -2.5l10.5 -6t12 -6t10 -2.5q27 0 41 54q13 58 13 148q0 132 -29 201q-17 38 -59 61q-25 13 -25 26q0 22 20 22q4 0 12 -3q66 -23 104 -23t82 18
q21 8 28 8q19 0 19 -19q0 -8 -16 -24q-15 -17 -15 -25q0 -12 14 -34l201 -304v198z" />
    <glyph glyph-name="O" unicode="O" horiz-adv-x="694" 
d="M323 393q20 0 34.5 -14.5t14.5 -35.5q0 -20 -14.5 -34.5t-35.5 -14.5q-20 0 -34.5 14.5t-14.5 34.5q0 21 14.5 35.5t35.5 14.5zM325 620q-98 4 -138 -150q-17 -66 -17 -140q0 -110 37 -194q40 -94 115 -94q97 0 136 150q17 66 17 139q0 98 -29 177q-40 108 -121 112z
M322 680q128 2 208 -88q94 -104 94 -257q0 -144 -79 -244q-86 -108 -227 -108q-75 0 -141 39q-88 53 -130 164q-26 72 -26 148q0 100 43 185q82 159 258 161z" />
    <glyph glyph-name="P" unicode="P" horiz-adv-x="651" 
d="M48 0q-27 0 -27 20q0 13 14 19q38 15 45 37q7 18 7 81v262q0 40 -6 55q-9 22 -40 32q-14 5 -14 18q0 26 51 71q95 85 234 85q115 0 193 -66q84 -71 84 -182q0 -98 -66 -159q-53 -50 -129 -50q-86 0 -130 59q-24 31 -24 72q0 51 33 83q28 26 62 26q29 0 50 -18t21 -46
q0 -19 -10 -33q-10 -16 -28 -16q-17 0 -17 16q0 5 5.5 14t5.5 13q0 20 -26 20q-19 0 -31 -16.5t-12 -35.5q0 -28 21 -47t50 -19q49 0 76 39q24 34 24 85q0 60 -35.5 98t-95.5 38q-82 0 -104 -76q-9 -29 -9 -95v-227q0 -71 8 -84q9 -14 45 -31q23 -9 23 -22q0 -20 -30 -20
h-218z" />
    <glyph glyph-name="Q" unicode="Q" horiz-adv-x="696" 
d="M385 67q-44 42 -87 42q-23 0 -65 -17q39 -48 89 -48q31 0 63 23zM323 393q20 0 34.5 -14.5t14.5 -35.5q0 -20 -14.5 -34.5t-35.5 -14.5q-20 0 -34.5 14.5t-14.5 34.5q0 21 14.5 35.5t35.5 14.5zM210 127q52 29 101 29q60 0 116 -41q48 91 48 218q0 105 -35 189
q-41 101 -117 101q-95 0 -135 -145q-18 -66 -18 -145q0 -116 40 -206zM492 39q22 -43 22 -83q0 -53 -30 -89q-32 -39 -83 -39q-29 0 -52 17q-32 23 -32 57q0 14 8 28q7 16 22 16q4 0 16 -4.5t19 -4.5q37 0 37 45q0 3 -0.5 7.5t-1.5 10.5q-42 -17 -93 -17q-136 0 -217 98
q-86 107 -86 252q0 96 41 180q43 89 123 133q61 34 137 34q137 0 223 -107q79 -97 79 -241q0 -86 -33 -162q-35 -82 -99 -131z" />
    <glyph glyph-name="R" unicode="R" horiz-adv-x="656" 
d="M368 297q43 -29 90 -29q6 0 33 3q21 0 21 -19q0 -5 -4.5 -18t-4.5 -20q0 -11 9 -30l33 -71q24 -53 70 -71q22 -7 22 -22q0 -20 -41 -20h-201q-30 0 -30 21q0 13 16 20q25 10 25 29q0 29 -38 97q-14 26 -29 48.5t-29 41.5q-40 52 -52 76q-17 39 -17 68q0 42 26 74
q25 34 68 34q29 0 48 -16q22 -18 22 -45q0 -18 -11.5 -31t-28.5 -13q-19 0 -19 16q0 5 7.5 13t7.5 13q0 20 -25 20q-18 0 -30.5 -14t-12.5 -33q0 -28 22 -44q19 -15 48 -15q37 0 63 23q32 29 32 74t-33 77q-32 29 -80 29q-80 0 -113 -73q-12 -29 -12 -108v-229q0 -56 4 -68
q7 -28 44 -45q19 -7 19 -20q0 -20 -27 -20h-213q-27 0 -27 20q0 12 26 23q30 13 38 46q3 13 3 64v277q0 58 -38 69q-22 6 -22 23t32 52q97 106 253 106q103 0 177 -53q83 -59 83 -159q0 -77 -53 -125q-52 -47 -128 -47h-11q-5 0 -12 1z" />
    <glyph glyph-name="S" unicode="S" horiz-adv-x="594" 
d="M268 680q45 0 119 -27q46 -17 64 -17q6 0 17.5 2t17.5 2q24 0 24 -25q0 -14 -28 -36q-46 -39 -71 -88q-12 -24 -30 -24q-16 0 -26 22q-29 72 -88 72q-29 0 -48.5 -18t-19.5 -46q0 -36 53 -60q7 -3 27.5 -9.5l55.5 -17.5q81 -24 117 -52q84 -60 84 -162q0 -103 -84 -161
q-74 -52 -181 -52q-99 0 -172 39q-92 48 -92 138q0 27 9.5 49.5t26.5 39t40 26t50 9.5q60 0 103 -43q33 -32 33 -59q0 -20 -18 -20q-6 0 -18 9q-26 22 -49 22q-48 0 -48 -49q0 -31 26 -54q38 -32 96 -32q55 0 95 31q42 34 42 88q0 60 -59 93q-16 8 -43.5 18.5t-68.5 21.5
q-90 26 -127 61q-47 45 -47 115q0 88 66 142q62 52 152 52z" />
    <glyph glyph-name="T" unicode="T" horiz-adv-x="497" 
d="M248 513q-20 4 -38 5.5t-35 1.5q-39 0 -73 -19q-24 -13 -61 -44q-18 -15 -25 -15q-19 0 -19 21q0 6 6 20q19 38 31.5 71t17.5 59q10 51 98 51q20 0 49.5 -4.5t69.5 -14.5q43 -10 70.5 -15t41.5 -5q57 0 97 37q20 19 33 19q21 0 21 -26q0 -35 -48 -84q-35 -35 -115 -60
q-38 -10 -51 -34q-9 -17 -9 -62v-262q0 -56 4 -68q7 -28 44 -45q19 -7 19 -20q0 -20 -27 -20h-213q-27 0 -27 20q0 12 26 23q30 13 38 46q3 13 3 64v165q0 32 -3 43q-6 18 -27 29q-13 6 -13 19q0 49 115 104z" />
    <glyph glyph-name="U" unicode="U" horiz-adv-x="644" 
d="M86 456q0 38 -0.5 60t-1.5 30q-7 46 -45 73q-22 15 -22 27q0 19 18 19q4 0 21 -6q51 -19 95 -19q47 0 99 23q7 4 14 4q21 0 21 -20q0 -12 -23 -29q-33 -22 -41 -74q-1 -5 -1.5 -27t-0.5 -61v-182q0 -52 6 -83q7 -39 37.5 -62.5t70.5 -23.5q57 0 93 45q27 34 27 125v167
q0 67 -10 97q-14 45 -57 75q-28 19 -28 32q0 18 17 18q7 0 25 -7q45 -15 83 -15q49 0 91 19q10 6 18 6q19 0 19 -20q0 -10 -20 -27q-46 -33 -59 -75q-11 -33 -11 -96v-175q0 -17 0.5 -28.5t1.5 -16.5q5 -23 23 -36q12 -9 12 -20q0 -49 -46 -104q-71 -86 -190 -86
q-74 0 -132 37q-90 58 -101 171q-3 27 -3 82v183z" />
    <glyph glyph-name="V" unicode="V" horiz-adv-x="656" 
d="M347 161q5 17 25 56.5t55 101.5q59 104 59 149q0 24 -10 40q-12 21 -32 21q-26 0 -26 -38q0 -15 -16 -15q-27 0 -43 30q-12 24 -12 55q0 25 9.5 47t26.5 38t39.5 25t48.5 9q30 0 55.5 -11t43.5 -30t28 -45.5t10 -56.5q0 -57 -36 -124q-22 -39 -73 -110q-91 -124 -91 -192
q0 -33 26 -64q13 -14 13 -25q0 -14 -14 -19q-8 -3 -34 -3h-175q-35 0 -35 21q0 10 15 27q18 18 18 42q0 18 -17 71l-123 354q-5 14 -12 30l-15 35q-14 21 -43 41q-19 12 -19 24q0 20 21 20q4 0 12 -3q64 -24 108 -24t95 21q16 6 23 6q20 0 20 -19q0 -11 -17 -23
q-35 -26 -35 -63q0 -35 20 -93l107 -306v0z" />
    <glyph glyph-name="W" unicode="W" horiz-adv-x="866" 
d="M361 448q8 34 12.5 58t4.5 39q0 45 -52 84q-10 7 -10 18q0 19 20 19q8 0 46 -12q31 -9 54 -9q24 0 58 14q19 8 25 8q23 0 23 -20q0 -8 -10 -18q-34 -33 -34 -65q0 -35 12 -78l77 -266q10 26 24 54t31 59q53 98 53 140q0 21 -9 38q-11 20 -31 20q-26 0 -27 -30
q-2 -23 -19 -23q-23 0 -40 29q-13 25 -13 52q0 51 36 86q37 35 89 35q59 0 98 -40q39 -41 39 -99q0 -88 -99 -224q-45 -62 -60 -90q-32 -58 -32 -102t35 -79q13 -13 13 -25q0 -21 -37 -21h-161q-29 0 -29 21q0 11 15 28q19 20 19 42q0 19 -10 52l-64 216l-62 -233
q-5 -22 -5 -37q0 -20 20 -43q15 -15 15 -25q0 -21 -39 -21h-156q-30 0 -30 20q0 10 18 33q22 25 22 46q0 17 -9 49l-106 363q-24 81 -65 112q-18 13 -18 24q0 19 19 19q8 0 16 -4q60 -23 103 -23q41 0 82 19q19 9 28 9q21 0 21 -22q0 -12 -14 -23q-38 -29 -38 -63
q0 -15 8 -45l83 -294z" />
    <glyph glyph-name="X" unicode="X" horiz-adv-x="699" 
d="M539 127q35 -63 75 -83q18 -8 18 -23q0 -21 -36 -21h-219q-41 0 -41 23q0 15 17 21q39 15 39 49q0 17 -12 40l-64 119l-63 -125q-72 -144 -156 -144q-35 0 -62 21q-42 34 -42 98q0 46 25 81q33 48 83 48q29 0 29 -19q0 -4 -1.5 -10.5t-1.5 -9.5q0 -25 27 -25q25 0 52 44
l68 114l-135 242q-21 37 -60 60q-14 9 -14 23q0 17 19 17q9 0 24 -7q49 -18 93 -18q42 0 93 19q13 6 22 6q18 0 18 -19q0 -11 -18 -24q-23 -20 -23 -41q0 -14 10 -33l50 -94l46 86q16 28 16 44q0 17 -19 33q-21 19 -21 28q0 20 19 20q9 0 36 -10q36 -11 61 -11q17 0 46 10
q31 11 42 11q19 0 19 -20q0 -12 -39 -40q-53 -37 -95 -100q-10 -14 -28 -43.5l-44 -75.5z" />
    <glyph glyph-name="Y" unicode="Y" horiz-adv-x="627" 
d="M83 551q-24 43 -60 65q-30 19 -30 32q0 18 19 18q5 0 30 -11q36 -16 83 -16q44 0 86 17q21 10 31 10q19 0 19 -20q0 -10 -26 -30q-13 -9 -13 -26q0 -16 9 -31l111 -186q22 37 58 75q50 53 50 78q0 38 -33 38q-24 0 -39 -33q-6 -14 -16 -14q-17 0 -27 24q-9 19 -9 38
q0 45 33 74q31 27 79 27q52 0 85 -32.5t33 -84.5q0 -44 -25 -79q-7 -11 -22 -27t-40 -38q-62 -56 -81 -94q-24 -45 -24 -121v-51q0 -56 4 -68q7 -28 44 -45q19 -7 19 -20q0 -20 -27 -20h-213q-27 0 -27 20q0 12 26 23q30 13 38 46q3 13 3 64v149z" />
    <glyph glyph-name="Z" unicode="Z" horiz-adv-x="633" 
d="M206 117q50 -29 95 -29q108 0 134 117q5 23 23 23q19 0 21 -30q1 -56 14 -89q12 -35 47 -75q18 -20 18 -29q0 -15 -20 -15q-8 0 -20.5 4.5t-18.5 4.5q-5 1 -15 1h-22h-395q-60 0 -60 37q0 14 20 46l297 481q-46 20 -98 20q-77 0 -77 -44q0 -31 35 -31q3 0 8.5 1t8.5 1
q16 0 16 -21q0 -19 -19 -38q-32 -32 -75 -32q-48 0 -81 38q-32 37 -32 84q0 52 38 93q43 45 109 45q13 0 36.5 -3t58.5 -10q82 -15 125 -15q35 0 79 9q18 3 24 3q34 0 34 -38q0 -11 -17 -39l-291 -470v0z" />
    <glyph glyph-name="bracketleft" unicode="[" horiz-adv-x="272" 
d="M57 652q0 13 1 21t5 13t11.5 8.5t21.5 7.5l88 25q10 3 15 3q16 0 16 -16q0 -8 -16 -17q-27 -17 -27 -64v-609q4 -46 33 -64q10 -4 10 -14q0 -16 -16 -16q-8 0 -15 3l-88 25q-14 4 -21.5 7.5t-11.5 8.5t-5 12.5t-1 21.5v644z" />
    <glyph glyph-name="backslash" unicode="\" horiz-adv-x="437" 
d="M385 -56h-74l-299 772h75z" />
    <glyph glyph-name="bracketright" unicode="]" horiz-adv-x="298" 
d="M202 8q0 -14 -1 -21.5t-5 -12.5t-12 -8.5t-21 -7.5l-89 -25q-8 -3 -14 -3q-17 0 -17 16q0 8 16 17q23 14 26 64q1 5 1 74v535q-5 48 -33 64q-10 6 -10 14q0 16 17 16q3 0 14 -3l89 -25q13 -4 21 -7.5t12 -8.5t5 -13t1 -21v-644z" />
    <glyph glyph-name="asciicircum" unicode="^" horiz-adv-x="519" 
d="M28 369l169 300h106l169 -300h-87l-135 235l-136 -235h-86z" />
    <glyph glyph-name="underscore" unicode="_" horiz-adv-x="467" 
d="M0 -116v71h500v-71h-500z" />
    <glyph glyph-name="quoteleft" unicode="&#x2018;" horiz-adv-x="241" 
d="M120 560q47 -11 47 -57q0 -27 -19 -46.5t-46 -19.5q-31 0 -49.5 21t-18.5 52q0 73 77 136q41 34 59 34q9 0 9 -9q0 -4 -8 -12q-45 -47 -51 -99z" />
    <glyph glyph-name="a" unicode="a" horiz-adv-x="489" 
d="M286 61q-38 -71 -119 -71q-66 0 -110 47q-36 39 -36 101q0 72 47 113q40 35 91 35q40 0 64.5 -22.5t24.5 -62.5q0 -38 -21 -38q-5 0 -10 8q-12 24 -33 24q-19 0 -31 -18q-10 -16 -10 -37q0 -27 13 -46q15 -20 41 -20q34 0 53 28q16 22 16 60q0 22 -3 50t-10 63
q-20 107 -65 107q-28 0 -28 -23q0 -10 16 -20q5 -3 5 -10q0 -12 -24 -18q-18 -6 -32 -6q-31 0 -53 18q-33 28 -33 75q0 17 7 35q9 24 21 24q4 0 12 -3q40 -15 60 -15t64 6q12 2 23 3t21 1q98 0 117 -124l33 -223q9 -59 28 -66q18 -12 18 -22q0 -14 -18 -14h-100
q-30 0 -34 25l-5 36v0z" />
    <glyph glyph-name="b" unicode="b" horiz-adv-x="492" 
d="M158 154q0 -37 3 -53q9 -44 48 -44q47 0 71 59q17 45 17 98q0 99 -44 129q-17 11 -33 11q-62 0 -62 -99v-101zM158 394q43 55 108 55q79 0 126 -74q33 -53 33 -128q0 -106 -58 -179q-63 -78 -167 -78q-87 0 -148 56q-31 28 -31 52q0 1 2 5q2 2 3.5 6.5t4.5 9.5
q11 22 11 35v356q0 44 -1 49q-5 24 -28 35q-13 7 -13 17q0 13 17 16q65 10 109 45q10 9 19 9q13 0 13 -23v-264v0z" />
    <glyph glyph-name="c" unicode="c" horiz-adv-x="444" 
d="M208 449q23 0 61 -11q11 -4 17 -4q5 0 20 5q8 2 9 2q17 0 29 -34q10 -27 10 -49q0 -21 -8 -40t-21.5 -33t-31.5 -22.5t-39 -8.5q-33 0 -56 22q-20 17 -20 40q0 17 15 17l8 -2q13 -5 19 -5q12 0 20.5 9.5t8.5 21.5q0 34 -38 34q-46 0 -71 -48q-21 -39 -21 -88
q0 -60 30 -106q34 -52 91 -52q58 0 89 49q14 23 25 23q16 0 16 -18q0 -19 -12 -52q-40 -109 -152 -109q-48 0 -88 25q-97 58 -97 201q0 93 46 158q54 75 141 75z" />
    <glyph glyph-name="d" unicode="d" horiz-adv-x="513" 
d="M301 292q-26 -32 -56 -32q-16 0 -27 7q-15 7 -15 21q0 13 13 13q4 0 5 -1q6 -1 9 -1h6q14 0 23 12.5t9 26.5q0 18 -13 31t-31 13q-47 0 -71 -57q-17 -43 -17 -96q0 -52 18 -92q22 -52 69 -52q26 0 49 24q19 20 25 51q4 12 4 61v71v0zM301 510q0 46 -5 61q-4 12 -24 23
q-13 7 -13 17q0 13 17 16q65 10 109 45q10 9 19 9q13 0 13 -23v-561q0 -47 26 -64q16 -9 16 -18q0 -15 -22 -15h-108q-28 0 -28 32v32q-36 -74 -117 -74q-78 0 -124 66q-39 55 -39 144q0 93 45 165q52 84 141 84q61 0 94 -47v108z" />
    <glyph glyph-name="e" unicode="e" horiz-adv-x="470" 
d="M120 302q22 28 49 28q16 0 30 -8q16 -9 16 -24t-12 -15q-4 0 -10 3q-12 6 -17 6q-22 0 -22 -28q0 -15 11 -25.5t26 -10.5q36 0 58 31q18 25 18 58q0 30 -16 52q-17 24 -46 24q-46 0 -72 -47q-5 -10 -13 -44zM122 213q8 -46 25 -69q36 -49 91 -49q59 0 100 50q16 19 23 19
q14 0 14 -18q0 -48 -40 -95q-49 -61 -129 -61q-59 0 -102 33q-44 34 -65 87q-18 49 -18 101q0 103 58 173q54 65 126 65q27 0 71 -14q20 -7 31 -7q1 0 7.5 0.5l19.5 1.5q20 2 30 -32q8 -26 8 -49q0 -83 -59 -137q-45 -42 -104 -42q-56 0 -87 43z" />
    <glyph glyph-name="f" unicode="f" horiz-adv-x="352" 
d="M257 379h-76v-209q0 -78 1 -82q8 -40 47 -56q12 -6 12 -15q0 -17 -23 -17h-173q-23 0 -23 14q0 10 16 19q27 16 27 64v282h-58v58h58v116q0 78 46 111q25 17 52 17q13 0 37 -7q25 -6 38 -6q11 0 32 12q7 4 12 4q18 0 36 -33q15 -29 15 -49q0 -24 -14 -43q-17 -20 -40 -20
q-35 0 -57 58q-8 20 -22 20q-19 0 -19 -56v-124h76v-58z" />
    <glyph glyph-name="g" unicode="g" horiz-adv-x="512" 
d="M279 447q49 -7 81 -28q68 -44 68 -115q0 -64 -51 -103q-35 -28 -83 -28q-37 0 -73 21q-42 24 -42 59q0 13 11 13q5 0 13 -8q18 -21 40 -21q30 0 47 26q15 22 15 53q0 30 -13 52q-20 32 -57 32t-62 -28q-32 -35 -32 -81q0 -61 42 -101q43 -40 104 -40q18 0 52 7q1 1 5 1
q15 0 15 -15q0 -11 -16 -17l-101 -40q14 1 25.5 1.5t19.5 0.5q84 0 134 -44q39 -35 39 -80q0 -71 -87 -116q-71 -36 -156 -36q-83 0 -141 31q-66 36 -66 92q0 40 36 66q32 23 74 23q56 0 91 -36q25 -25 25 -47q0 -14 -13 -14q-6 0 -14 7q-24 21 -55 21q-41 0 -41 -32
q0 -28 37 -43q28 -11 61 -11q45 0 76 19q37 22 37 65q0 49 -51 75q-41 21 -95 21q-45 0 -69 -7q-14 -3 -21 -3q-16 0 -16 14q0 12 30 24l97 37q-54 10 -89 30q-83 47 -83 140q0 128 161 166q62 14 62 44q0 17 -20 17q-5 0 -19 -11q-3 -3 -9 -3q-15 0 -15 26q0 31 21 50.5
t52 19.5q30 0 51 -18t21 -47q0 -40 -53 -81z" />
    <glyph glyph-name="h" unicode="h" horiz-adv-x="496" 
d="M169 395q49 54 111 54q122 0 122 -144v-208q5 -51 27 -64q15 -9 15 -18q0 -15 -22 -15h-156q-22 0 -22 15q0 9 15 18q27 16 27 64v189q0 76 -54 76q-63 0 -63 -85v-107v-73q5 -51 27 -64q15 -9 15 -18q0 -15 -22 -15h-156q-22 0 -22 15q0 9 15 18q27 16 27 64v413
q0 46 -5 61q-4 12 -24 23q-13 7 -13 17q0 13 17 16q65 10 109 45q10 9 19 9q13 0 13 -23v-263v0z" />
    <glyph glyph-name="i" unicode="i" horiz-adv-x="267" 
d="M115 599q25 0 42.5 -18t17.5 -43q0 -26 -17.5 -44t-43.5 -18t-43.5 18t-17.5 44t18 43.5t44 17.5zM36 0q-22 0 -22 15q0 9 15 18q27 16 27 64v182q0 46 -5 61q-4 12 -24 23q-13 7 -13 16q0 14 17 17q66 11 109 45q11 8 19 8q13 0 13 -23v-329q5 -51 27 -64q15 -9 15 -18
q0 -15 -22 -15h-156z" />
    <glyph glyph-name="j" unicode="j" horiz-adv-x="271" 
d="M122 599q25 0 42.5 -18t17.5 -43q0 -26 -18 -44t-43 -18q-26 0 -43.5 18t-17.5 44t18 43.5t44 17.5zM60 279q0 45 -1 48q-4 23 -28 36q-13 7 -13 16q0 14 17 17q66 11 109 45q11 8 19 8q12 0 12 -23v-337q0 -74 -25 -121q-37 -72 -124 -115q-25 -13 -39 -13t-14 14
q0 6 9 14q78 73 78 231v180z" />
    <glyph glyph-name="k" unicode="k" horiz-adv-x="524" 
d="M169 353q55 96 143 96q38 0 65 -25.5t27 -63.5q0 -97 -111 -136q50 -17 71 -51q8 -13 33 -85q13 -38 41 -52q16 -7 16 -18q0 -18 -23 -18h-105q-31 0 -38 37q-22 126 -75 140q-24 6 -24 20q0 11 36 31q64 34 64 80q0 19 -13.5 32t-32.5 13q-74 0 -74 -149v-107
q5 -51 27 -64q15 -9 15 -18q0 -15 -22 -15h-156q-22 0 -22 15q0 9 15 18q27 16 27 64v413q0 46 -5 61q-4 12 -24 23q-13 7 -13 17q0 13 17 16q65 10 109 45q10 9 19 9q13 0 13 -23v-305v0z" />
    <glyph glyph-name="l" unicode="l" horiz-adv-x="268" 
d="M34 0q-23 0 -23 15q0 9 16 18q27 16 27 64v413q0 46 -5 61q-4 12 -24 23q-13 7 -13 17q0 13 17 16q65 10 109 45q10 9 19 9q12 0 12 -23v-488q0 -71 1 -73q5 -51 26 -64q16 -9 16 -18q0 -15 -23 -15h-155z" />
    <glyph glyph-name="m" unicode="m" horiz-adv-x="724" 
d="M172 395q13 15 23.5 25.5t20.5 15.5q23 13 58 13q76 0 109 -63q36 63 113 63q48 0 83 -27q41 -32 41 -123v-202q5 -51 26 -64q16 -9 16 -18q0 -15 -22 -15h-156q-23 0 -23 15q0 9 16 18q27 16 27 64v168q0 48 -6 66q-12 31 -45 31q-58 0 -58 -97v-168q0 -48 27 -64
q16 -9 16 -18q0 -15 -23 -15h-154q-23 0 -23 15q0 9 16 18q22 13 27 64v168q0 96 -52 96q-45 0 -55 -57q-1 -6 -1.5 -19.5t-0.5 -34.5v-153q5 -51 27 -64q16 -9 16 -18q0 -15 -23 -15h-156q-22 0 -22 15q0 9 15 18q27 16 27 64v182v32q0 13 -1 17q-4 22 -28 35q-13 6 -13 16
q0 14 17 17q66 11 109 45q11 8 19 8q13 0 13 -23v-31v0z" />
    <glyph glyph-name="n" unicode="n" horiz-adv-x="507" 
d="M172 394q46 55 112 55q47 0 78 -25q34 -25 39 -71q1 -6 1.5 -19.5t0.5 -33.5v-203q0 -48 27 -64q15 -9 15 -18q0 -15 -22 -15h-156q-23 0 -23 15q0 9 16 18q22 13 27 64v177q0 37 -6 55q-11 32 -45 32q-64 0 -64 -87v-177q5 -51 27 -64q15 -9 15 -18q0 -15 -22 -15h-156
q-22 0 -22 15q0 9 15 18q27 16 27 64v182q0 46 -5 61q-4 12 -24 23q-13 7 -13 16q0 14 17 17q66 11 109 45q11 8 19 8q13 0 13 -23v-32v0z" />
    <glyph glyph-name="o" unicode="o" horiz-adv-x="453" 
d="M98 398q11 0 11 -10q0 -5 -3 -12q-14 -44 -14 -84q0 -65 33 -117q37 -61 98 -61q40 0 66 36q21 31 21 75q0 35 -18 65q-21 38 -57 38q-26 0 -26 -27q0 -3 1.5 -8.5t1.5 -8.5q0 -11 -14 -11q-31 0 -54 29q-22 28 -22 59q0 38 24.5 63t62.5 25q75 0 126 -75q41 -62 41 -157
q0 -103 -56 -170q-50 -57 -122 -57q-83 0 -135 73q-42 60 -42 132q0 84 41 161q22 42 36 42z" />
    <glyph glyph-name="p" unicode="p" horiz-adv-x="532" 
d="M169 141q25 42 63 42q40 0 40 -25q0 -15 -15 -15q-3 0 -8 0.5t-8 0.5q-15 0 -25 -12t-10 -28q0 -17 11 -33q13 -16 31 -16q46 0 67 55q16 38 16 93q0 85 -36 123q-24 24 -52 24q-74 0 -74 -135v-74v0zM169 370q22 40 42 55q30 24 75 24q80 0 125 -69q40 -59 40 -144
q0 -93 -47 -164q-52 -82 -141 -82q-57 0 -94 54v-110q4 -51 30 -62q19 -7 19 -18q0 -15 -22 -15h-163q-23 0 -23 15q0 3 17 20q18 17 21 31q2 11 3.5 36.5t1.5 67.5v270q0 45 -1 48q-4 23 -28 36q-13 7 -13 16q0 14 17 17q65 10 109 45q11 8 19 8q13 0 13 -23v-56v0z" />
    <glyph glyph-name="q" unicode="q" horiz-adv-x="484" 
d="M268 42q-36 -52 -92 -52q-74 0 -117 69q-38 61 -38 138q0 83 37 148q59 104 157 104q19 0 43 -8q32 -9 32 -24q0 -13 -15 -13q-4 0 -10.5 1t-9.5 1q-46 0 -76 -43q-39 -54 -39 -154q0 -73 35 -110q16 -18 41 -18q52 0 52 96v81q0 49 -1 52q-4 19 -32 34q-9 6 -9 15
q0 13 17 18q64 20 109 62q10 10 17 10q14 0 14 -25v-492q5 -48 33 -64q10 -6 10 -14q0 -15 -29 -15h-163q-26 0 -26 15q0 11 17 16q36 12 42 58q1 3 1 81v33v0z" />
    <glyph glyph-name="r" unicode="r" horiz-adv-x="401" 
d="M172 373q31 76 89 76q36 0 65 -32q20 -23 20 -43q0 -25 -31 -41q-41 -23 -41 -58q0 -6 4.5 -19.5t4.5 -19.5q0 -15 -17 -15q-31 0 -34 65q-1 23 -3 31q-6 18 -25 18q-22 0 -30 -29q-1 -7 -1.5 -19t-0.5 -30v-165q6 -48 36 -62q13 -4 13 -15q0 -15 -26 -15h-152
q-29 0 -29 15q0 2 17 19q18 16 21 33q2 11 3 37t1 66v109q0 47 -1 50q-4 22 -28 35q-12 7 -12 15q0 15 17 17q67 11 109 44q10 9 17 9q14 0 14 -16v-60v0z" />
    <glyph glyph-name="s" unicode="s" horiz-adv-x="423" 
d="M182 449q28 0 77 -20q21 -9 34 -9q5 0 22 3q3 1 8 1q15 0 15 -17q0 -5 -17 -28q-18 -24 -22 -33t-7.5 -20.5t-5.5 -25.5q-3 -17 -16 -17q-10 0 -16 11q-10 21 -16 30q-23 32 -52 32q-15 0 -26 -11t-11 -26q0 -28 57 -47q70 -23 92 -37q58 -34 58 -103q0 -75 -67 -115
q-44 -27 -110 -27q-64 0 -110 27q-55 31 -55 90q0 41 29 65q20 16 51 16q43 0 64 -31q11 -17 11 -29t-11 -12q-4 0 -12 3t-12 3q-26 0 -26 -27q0 -21 25 -33q19 -10 42 -10q30 0 49.5 16.5t19.5 45.5q0 28 -27 45q-12 7 -51 21q-72 25 -97 50q-31 32 -31 82q0 61 42 99
q41 38 102 38z" />
    <glyph glyph-name="t" unicode="t" horiz-adv-x="324" 
d="M237 379h-71v-244q0 -30 5 -45q9 -23 31 -23q13 0 29 11q10 7 14 7q12 0 12 -13q0 -20 -26 -46q-36 -36 -88 -36q-61 0 -81 41q-12 22 -12 73v275h-56v45q74 18 106 78q9 19 22 71q4 24 23 24q16 0 20 -13q1 -3 1 -26v-121h71v-58z" />
    <glyph glyph-name="u" unicode="u" horiz-adv-x="500" 
d="M287 43q-16 -16 -29 -26q-35 -27 -82 -27t-80 27q-40 34 -40 114v148q0 39 -2 49q-4 22 -28 35q-12 6 -12 16q0 14 17 17q66 11 109 45q11 8 19 8q12 0 12 -23v-271q0 -77 54 -77q45 0 58 52q4 15 4 51v98q0 46 -5 61q-4 12 -24 23q-13 7 -13 16q0 14 17 17q66 11 109 45
q11 8 19 8q13 0 13 -23v-329q0 -48 27 -64q15 -9 15 -18q0 -15 -22 -15h-107q-29 0 -29 22v21v0z" />
    <glyph glyph-name="v" unicode="v" horiz-adv-x="451" 
d="M256 197q37 68 37 104q0 26 -21 26q-10 0 -16 -14q-4 -13 -11 -13q-20 0 -33 24q-12 21 -12 41q0 36 25.5 60t62.5 24q45 0 74 -35q24 -29 24 -64q0 -33 -18 -72l-18.5 -29l-48.5 -76q-39 -62 -39 -97q0 -16 8 -29l7.5 -7.5t14.5 -13.5q7 -4 7 -14q0 -12 -25 -12h-150
q-21 0 -21 15q0 7 14 18q18 12 18 29q0 14 -10 38l-68 186q-16 46 -59 61q-15 6 -15 15q0 12 21 20q26 10 49 25.5t45 35.5q6 6 14 6q10 0 21 -32l97 -267z" />
    <glyph glyph-name="w" unicode="w" horiz-adv-x="653" 
d="M266 378q1 3 1.5 8t2.5 13q8 38 44 38q23 0 32 -13q4 -5 15 -33l83 -221q54 90 54 132q0 25 -23 25q-13 0 -16 -12q-3 -15 -11 -15q-20 0 -33 24q-13 20 -13 41q0 38 24.5 61t62.5 23q43 0 71.5 -27t28.5 -69t-32 -97l-19.5 -30.5l-37.5 -58.5q-35 -56 -35 -87
q0 -21 28 -52q7 -7 7 -16q0 -12 -24 -12h-118q-28 0 -28 15q0 3 12 18q13 14 13 27q0 11 -9 37l-55 147l-39 -156q-5 -23 -5 -28q0 -11 17 -30q9 -11 9 -18q0 -12 -29 -12h-113q-27 0 -27 15q0 6 9 15q20 20 20 36q0 14 -6 31l-71 189q-5 13 -10 22t-11.5 16t-16 12
t-23.5 11q-12 4 -12 16q0 13 26 21q41 12 73 47q15 18 26 18q10 0 17 -13q1 -5 3 -10t4 -12l84 -226z" />
    <glyph glyph-name="x" unicode="x" horiz-adv-x="492" 
d="M381 79q19 -33 46 -47q12 -8 12 -17q0 -15 -21 -15h-170h-20q-10 3 -10 14q0 8 23 25q10 7 10 21q0 13 -13 33l-32 52q-11 -29 -18.5 -46.5t-9.5 -22.5q-38 -86 -99 -86q-35 0 -57 22.5t-22 56.5q0 33 21 57.5t53 24.5q16 0 16 -14q-1 -22 18 -22q25 0 51 48l16 32
l-75 121q-10 17 -24 25q-5 2 -13.5 4.5l-21.5 6.5q-10 1 -10 14q0 11 16 20q36 15 69 41q28 22 33 22q9 0 23 -23l75 -126l15 34q11 28 11 45q0 7 -20 24q-8 6 -8 15q0 17 29 17h117q23 0 23 -16q0 -11 -35 -26q-44 -20 -81 -93l-24 -48z" />
    <glyph glyph-name="y" unicode="y" horiz-adv-x="495" 
d="M287 106q45 73 45 144q0 63 -37 63q-10 0 -16 -18q-2 -6 -9 -6q-10 0 -27 14q-31 25 -31 63q0 36 26 59.5t62 23.5q44 0 72 -31q41 -44 41 -107q0 -125 -90 -267q-74 -118 -163 -170q-52 -31 -101 -31q-35 0 -61 16q-37 22 -37 62q0 35 31 56q26 19 62 19q12 0 32 -5
q24 -8 24 -18q0 -2 -6 -12q-1 -1 -1 -4q0 -14 18 -14q42 0 114 82q-21 -6 -33 -6q-44 0 -44 30q0 6 3 17t3 16q0 11 -7 24l-98 190q-14 26 -46 42q-30 15 -30 20q0 10 23 21l14.5 7.5t19.5 11.5q9 7 41 42q9 10 19 10q11 0 25 -27l162 -317v0z" />
    <glyph glyph-name="z" unicode="z" horiz-adv-x="412" 
d="M224 116q36 0 67 16q10 6 17 6q17 0 17 -20q0 -8 -9 -20q-17 -26 -31 -75q-4 -17 -16 -22q-3 -1 -29 -1h-183q-24 0 -31 4q-19 10 -19 30q0 11 16 36l155 244q-32 -13 -60 -13q-24 0 -51 12q-33 13 -33 35q0 4 8 25l24 58q7 19 22 19q2 0 41 -24t72 -24q37 0 63 20l25 20
q7 7 16 7q22 0 22 -26q0 -8 -16 -33l-174 -274h87z" />
    <glyph glyph-name="braceleft" unicode="{" horiz-adv-x="350" 
d="M142 340q84 -17 94 -86q3 -14 3 -57v-85q0 -70 7 -91q15 -46 67 -47q33 -2 33 -24q0 -20 -36 -20q-97 0 -125 11q-41 16 -55 72q-6 28 -6 85v114q0 75 -13 89q-14 17 -43 18q-26 2 -26 21t26 21q29 1 43 18q13 14 13 88v95q0 125 52 153q28 15 134 15q36 0 36 -20
q0 -23 -43 -24q-44 -1 -58 -51q-6 -24 -6 -87v-65q0 -44 -3 -57q-12 -71 -94 -86z" />
    <glyph glyph-name="bar" unicode="|" horiz-adv-x="393" 
d="M297 667v-834h-94v834h94z" />
    <glyph glyph-name="braceright" unicode="}" horiz-adv-x="419" 
d="M250 340q-83 15 -95 86q-1 7 -1.5 21t-0.5 36v65q0 70 -7 91q-15 45 -67 48q-33 1 -33 23q0 20 36 20q97 0 125 -11q42 -17 54 -72q7 -28 7 -85v-95q0 -73 12 -88q14 -17 43 -18q26 -2 26 -21t-26 -21q-41 -2 -51 -36q-4 -12 -4 -71v-114q0 -125 -52 -153
q-29 -15 -134 -15q-36 0 -36 20q0 22 42 24q44 1 58 51q7 22 7 87v85q0 22 0.5 36t1.5 21q12 71 95 86z" />
    <glyph glyph-name="asciitilde" unicode="~" horiz-adv-x="647" 
d="M94 303q54 117 138 117q40 0 114 -37q67 -32 93 -32q45 0 86 72l49 -39q-21 -45 -42 -70q-40 -49 -96 -49q-31 0 -112 38q-68 33 -95 33q-46 0 -86 -72z" />
    <glyph glyph-name="exclamdown" unicode="&#xa1;" horiz-adv-x="306" 
d="M158 680q27 0 46.5 -19.5t19.5 -46.5q0 -28 -19.5 -47.5t-47.5 -19.5t-47 19.5t-19 47.5t19.5 47t47.5 19zM224 149q2 -24 4 -39t4 -22q9 -32 33 -49q15 -9 15 -21q0 -18 -18 -18q-3 0 -21 5q-42 13 -84 13t-84 -13q-17 -5 -21 -5q-18 0 -18 18q0 12 15 21q24 15 33 49
q2 6 4 21t4 40l33 316q3 28 6 40q7 22 28 22t28 -22q3 -6 6 -40z" />
    <glyph glyph-name="cent" unicode="&#xa2;" horiz-adv-x="431" 
d="M175 512q-62 -41 -62 -139q0 -87 62 -135v274v0zM221 635v-59q14 -2 26 -4.5t23 -6.5q10 -3 17 -3t19 5q7 3 9 3q15 0 26 -29q10 -24 10 -42q0 -31 -16 -51q-17 -24 -44 -24q-16 0 -32 11q-17 11 -17 26q0 8 8 10q11 3 11 12q0 32 -40 36v-295q5 -1 9.5 -1.5t9.5 -0.5
q61 0 90 53q12 22 24 22q16 0 16 -18q0 -58 -46 -108q-46 -49 -103 -51v-75h-46v75q-30 7 -57 23q-97 58 -97 198q0 87 36 146q40 67 118 88v60h46z" />
    <glyph glyph-name="sterling" unicode="&#xa3;" horiz-adv-x="534" 
d="M363 268h-122q-3 -44 -18 -77q-5 -12 -16 -28.5t-27 -38.5q100 52 189 52q26 0 55 -8q40 -10 40 -31q0 -6 -7 -19q-28 -49 -32 -99q-3 -33 -22 -33q-10 0 -48 22q-68 38 -132 38q-43 0 -124 -39q-26 -13 -36 -13q-11 0 -20.5 10t-9.5 22q0 21 31 46q51 44 70 89
q13 32 13 57q0 9 -1.5 21.5t-5.5 28.5h-85v54h64l-29.5 48t-16.5 29q-22 44 -22 85q0 61 37 113q59 83 164 83q44 0 115 -27q9 -4 20 -4q2 0 22 5q3 1 7 1q7 -2 18 -12q38 -43 38 -102t-34 -97q-38 -41 -94 -41q-42 0 -70 24q-29 26 -29 66q0 34 20 34q9 0 14 -12
q10 -31 34 -31q20 0 34 17q11 17 11 37q0 31 -21 51.5t-51 20.5q-48 0 -76 -43q-22 -31 -22 -74q0 -33 29 -99q19 -44 24 -72h122v-54z" />
    <glyph glyph-name="fraction" unicode="&#x2044;" horiz-adv-x="194" 
d="M-133 -20l280 707h61l-280 -707h-61z" />
    <glyph glyph-name="yen" unicode="&#xa5;" horiz-adv-x="557" 
d="M88 335h120l-118 216q-22 40 -55 65q-28 19 -28 32q0 18 17 18q5 0 29 -11q33 -16 76 -16q40 0 79 17q21 10 29 10q17 0 17 -20q0 -11 -24 -30q-11 -9 -11 -26q0 -15 8 -31l102 -186q22 39 54 76q46 50 46 78q0 37 -31 37q-21 0 -35 -32q-6 -14 -15 -14q-15 0 -25 24
q-9 19 -9 37q0 45 30 73t73 28q51 0 80.5 -33t29.5 -84q0 -41 -23 -79q-5 -10 -19.5 -26t-37.5 -39q-51 -50 -70 -84h111v-54h-133q-2 -9 -3 -22.5t-2 -30.5h128v-55h-128v-20q0 -55 3 -67q8 -30 42 -46q17 -8 17 -20q0 -20 -25 -20h-197q-25 0 -25 20q0 12 24 23
q28 13 36 47q1 6 1.5 21.5t0.5 41.5v20h-129v55h129v53h-139v54z" />
    <glyph glyph-name="section" unicode="&#xa7;" horiz-adv-x="521" 
d="M172 378q-27 -27 -27 -58q0 -52 60 -92l116 -79q23 23 23 52q0 53 -66 101l-106 76v0zM381 104q51 -38 51 -102q0 -74 -61 -120q-53 -39 -115 -39q-51 0 -121 40q-15 9 -20 9q-4 0 -10 -9q-3 -6 -11 -6q-18 0 -28 28q-8 24 -8 42q0 42 31 73q28 26 62 26q36 0 36 -25
q0 -9 -9 -13q-11 -5 -11 -13q0 -25 29 -45q26 -17 53 -17q22 0 42 14q21 16 21 39q0 32 -60 74l-125 86q-86 62 -86 155q0 76 65 123q-37 46 -37 92q0 49 30 90q52 73 146 73q50 0 88 -23q28 -17 40 -17q4 0 13 2t13 2q18 0 28 -25q10 -19 10 -39q0 -51 -41 -81
q-29 -20 -54 -20q-11 0 -24 7t-13 18l3 3t6.5 7.5t6.5 10.5t3 12q0 26 -24 43q-22 14 -49 14q-26 0 -46 -14q-24 -17 -24 -40q0 -29 35 -58q5 -5 18.5 -14l33.5 -23l103 -72q78 -56 78 -145q0 -79 -68 -123z" />
    <glyph glyph-name="currency" unicode="&#xa4;" horiz-adv-x="461" 
d="M207 402q-28 1 -46 -16.5t-18 -45.5q0 -26 18.5 -44t44.5 -18q25 0 43.5 18t18.5 44q0 27 -17.5 44.5t-43.5 17.5zM327 511l50 -50l-55 -55q17 -34 17 -66q0 -30 -17 -66l55 -55l-50 -51l-56 56q-34 -17 -65 -17q-32 0 -66 17l-56 -56l-50 51l55 55q-17 36 -17 66
q0 32 17 66l-55 55l50 50l56 -54q34 17 66 17q31 0 65 -17z" />
    <glyph glyph-name="quotesingle" unicode="'" horiz-adv-x="212" 
d="M105 427h-71v240h71v-240z" />
    <glyph glyph-name="quotedblleft" unicode="&#x201c;" horiz-adv-x="411" 
d="M289 560q47 -11 47 -57q0 -27 -18.5 -46.5t-46.5 -19.5q-31 0 -49 21t-18 52q0 73 77 136q40 34 59 34q8 0 8 -9q0 -4 -8 -12q-44 -47 -51 -99zM120 560q47 -11 47 -57q0 -27 -19 -46.5t-46 -19.5q-31 0 -49.5 21t-18.5 52q0 73 77 136q41 34 59 34q9 0 9 -9q0 -4 -8 -12
q-45 -47 -51 -99z" />
    <glyph glyph-name="guillemotleft" unicode="&#xab;" horiz-adv-x="358" 
d="M263 103q4 -12 4 -23q1 -15 -12 -15q-7 0 -19 21l-66 114q-13 23 -13 36q0 16 13 38l65 104q13 22 21 22q11 0 11 -15q0 -10 -4 -22l-36 -129zM140 103q5 -18 5 -22q0 -16 -12 -16q-8 0 -20 21l-65 114q-14 25 -14 37q0 14 14 37l65 104q13 22 21 22q10 0 10 -15
q0 -10 -4 -22l-35 -129z" />
    <glyph glyph-name="guilsinglleft" unicode="&#x2039;" horiz-adv-x="236" 
d="M140 103q5 -18 5 -23q0 -15 -12 -15q-8 0 -20 21l-65 114q-14 25 -14 36q0 15 14 38l65 104q13 22 21 22q10 0 10 -15q0 -10 -4 -22l-35 -129z" />
    <glyph glyph-name="guilsinglright" unicode="&#x203a;" horiz-adv-x="216" 
d="M39 362q-2 7 -3 12.5l-2 10.5q-2 15 12 15q7 0 19 -21l66 -113q14 -25 14 -37q0 -16 -14 -39l-65 -103q-13 -22 -21 -22q-10 0 -10 16q0 10 4 22l35 128z" />
    <glyph glyph-name="endash" unicode="&#x2013;" horiz-adv-x="475" 
d="M34 198v71h347v-71h-347z" />
    <glyph glyph-name="dagger" unicode="&#x2020;" horiz-adv-x="532" 
d="M332 440q47 0 73 9q7 3 27 21q7 7 17 7q16 0 16 -14q0 -5 -4 -12q-11 -24 -11 -49q0 -27 11 -54l2 -8q0 -13 -17 -13q-5 0 -16 10q-38 30 -96 30h-18q-9 0 -20 -1v-316q0 -115 10 -136q4 -10 27 -34q9 -9 9 -22q0 -19 -17 -19q-5 0 -13 4q-30 11 -62 11t-62 -11
q-9 -4 -14 -4q-17 0 -17 19q0 11 27 40q19 19 19 152v316q-11 1 -21 1h-18q-46 0 -70 -12q-6 -2 -30 -24q-4 -4 -11 -4q-17 0 -17 13l2 8q11 27 11 54q0 25 -11 49q-4 7 -4 12q0 14 16 14q9 0 32 -21q16 -16 86 -16h35v16q0 115 -10 136q-5 10 -27 33q-9 10 -9 22
q0 20 17 20q6 0 14 -4q28 -12 62 -12q32 0 62 12q7 4 13 4q17 0 17 -20q0 -12 -27 -40q-19 -20 -19 -151v-16h36z" />
    <glyph glyph-name="daggerdbl" unicode="&#x2021;" horiz-adv-x="543" 
d="M332 440q47 0 73 9q7 3 27 21q7 7 17 7q16 0 16 -14q0 -5 -4 -12q-11 -24 -11 -49q0 -27 11 -54l2 -8q0 -13 -17 -13q-5 0 -16 10q-38 30 -96 30h-18q-9 0 -20 -1v-227h39q43 0 70 11q7 3 30 24q4 4 11 4q17 0 17 -12q0 -1 -2 -9q-11 -27 -11 -53t11 -50q4 -7 4 -12
q0 -14 -16 -14q-10 0 -32 21q-16 16 -86 16h-35v-15q0 -115 10 -136q4 -10 27 -34q9 -9 9 -22q0 -19 -17 -19q-5 0 -13 4q-30 11 -62 11t-62 -11q-9 -4 -14 -4q-17 0 -17 19q0 11 27 40q19 19 19 152v15h-36q-46 0 -73 -8q-8 -3 -27 -22q-7 -7 -17 -7q-16 0 -16 14q0 5 4 12
q11 24 11 50t-11 53q-2 8 -2 9q0 12 17 12q5 0 16 -10q38 -29 96 -29h38v227q-11 1 -21 1h-18q-46 0 -70 -12q-6 -2 -30 -24q-4 -4 -11 -4q-17 0 -17 13l2 8q11 27 11 54q0 25 -11 49q-4 7 -4 12q0 14 16 14q9 0 32 -21q16 -16 86 -16h35v16q0 115 -10 136q-5 10 -27 33
q-9 10 -9 22q0 20 17 20q6 0 14 -4q28 -12 62 -12q32 0 62 12q7 4 13 4q17 0 17 -20q0 -12 -27 -40q-19 -20 -19 -151v-16h36z" />
    <glyph glyph-name="paragraph" unicode="&#xb6;" horiz-adv-x="594" 
d="M417 573q-31 21 -67 30v-700h67v670v0zM278 239q-36 -16 -75 -16q-76 0 -131 50q-65 62 -65 160q0 36 9.5 69t27 61.5t42.5 51.5t57 38q55 27 124 27q84 0 159 -37q19 -9 37 -21.5t37 -28.5q48 -41 48 -69q0 -13 -14 -18q-31 -10 -40 -32q-6 -15 -6 -55v-424q0 -60 4 -71
q8 -30 48 -46q15 -6 15 -20q0 -19 -28 -19h-295q-30 0 -30 19q0 14 23 23q43 18 50 43q3 10 3 72v243v0z" />
    <glyph glyph-name="bullet" unicode="&#x2022;" horiz-adv-x="560" 
d="M336 478q58 0 97 -41q40 -40 40 -98q0 -59 -40 -99t-99 -40q-58 0 -98 40t-40 98q0 60 40 100t100 40z" />
    <glyph glyph-name="quotesinglbase" unicode="&#x201a;" horiz-adv-x="278" 
d="M82 -4q-48 10 -48 56q0 28 19 47.5t47 19.5q31 0 49 -20.5t18 -52.5q0 -74 -77 -137q-41 -34 -59 -34q-9 0 -9 9q0 4 8 12q44 46 52 100z" />
    <glyph glyph-name="quotedblbase" unicode="&#x201e;" horiz-adv-x="448" 
d="M251 -4q-47 11 -47 56q0 28 18.5 47.5t46.5 19.5q31 0 49 -20.5t18 -52.5q0 -74 -77 -137q-40 -34 -59 -34q-8 0 -8 9q0 4 8 12q43 46 51 100zM82 -4q-48 10 -48 56q0 28 19 47.5t47 19.5q31 0 49 -20.5t18 -52.5q0 -74 -77 -137q-41 -34 -59 -34q-9 0 -9 9q0 4 8 12
q44 46 52 100z" />
    <glyph glyph-name="quotedblright" unicode="&#x201d;" horiz-adv-x="418" 
d="M251 557q-47 11 -47 57q0 28 18.5 47t46.5 19q31 0 49 -20.5t18 -52.5q0 -74 -77 -137q-41 -33 -59 -33q-8 0 -8 8q0 3 8 13q43 46 51 99zM82 557q-48 10 -48 57q0 28 19 47t47 19q31 0 49 -20.5t18 -52.5q0 -74 -77 -137q-42 -33 -59 -33q-9 0 -9 8q0 3 8 13
q44 46 52 99z" />
    <glyph glyph-name="guillemotright" unicode="&#xbb;" horiz-adv-x="337" 
d="M38 362q-4 12 -4 23q0 15 12 15q7 0 19 -21l66 -113q14 -25 14 -37q0 -16 -14 -39l-66 -103q-13 -22 -20 -22q-10 0 -10 16q0 8 3 22l36 128zM161 362q-5 18 -5 23q0 15 12 15q6 0 20 -21l65 -113q14 -25 14 -37q0 -16 -14 -39l-65 -103q-13 -22 -21 -22q-10 0 -10 16
q0 10 4 22l35 128z" />
    <glyph glyph-name="ellipsis" unicode="&#x2026;" horiz-adv-x="662" 
d="M503 119q27 0 46 -19.5t19 -46.5q0 -28 -19 -47.5t-47 -19.5t-47 19.5t-19 47.5t19.5 47t47.5 19zM302 119q28 0 47 -19.5t19 -46.5q0 -28 -19.5 -47.5t-47.5 -19.5t-47 19.5t-19 47.5t19.5 47t47.5 19zM102 119q27 0 46 -19.5t19 -46.5q0 -28 -19.5 -47.5t-46.5 -19.5
q-28 0 -47.5 19.5t-19.5 47.5t19.5 47t48.5 19z" />
    <glyph glyph-name="perthousand" unicode="&#x2030;" horiz-adv-x="918" 
d="M731 336q-22 0 -36 -20q-18 -26 -18 -65q0 -63 40 -115q27 -34 53 -34q56 0 56 83q0 47 -24 94q-29 57 -71 57zM753 436q36 0 67 -37q55 -64 55 -189q0 -79 -29 -142q-34 -76 -93 -76q-64 0 -98 85q-26 66 -26 138t26 138q35 83 98 83zM455 336q-22 0 -36 -20
q-18 -26 -18 -65q0 -63 40 -115q25 -34 53 -34q55 0 55 83q0 46 -23 94q-29 57 -71 57zM477 436q36 0 67 -37q54 -65 54 -189q0 -82 -28 -142q-34 -76 -93 -76q-64 0 -98 85q-26 66 -26 138t26 138q35 83 98 83zM144 0l266 667h62l-267 -667h-61zM118 577q-22 0 -36 -20
q-19 -26 -19 -65q0 -63 41 -115q25 -34 53 -34q55 0 55 82q0 47 -23 95q-29 57 -71 57zM140 677q36 0 67 -37q54 -65 54 -189q0 -82 -28 -142q-34 -76 -93 -76q-64 0 -98 84q-26 66 -26 139t26 137q34 84 98 84z" />
    <glyph glyph-name="questiondown" unicode="&#xbf;" horiz-adv-x="519" 
d="M279 680q27 0 46 -19.5t19 -46.5q0 -28 -19 -47.5t-47 -19.5t-47.5 19.5t-19.5 47.5t20 47t48 19zM273 527q17 0 22 -21q9 -32 9 -70q0 -52 -31 -99q-11 -17 -47 -56q-54 -56 -54 -122q0 -52 40 -86q24 -21 54 -21q33 0 57 23.5t24 56.5q0 21 -10 37q-12 18 -32 18
q-26 0 -35 -30q-6 -16 -17 -16q-19 0 -19 29q0 42 29.5 69.5t71.5 27.5q57 0 92 -41q33 -38 33 -97q0 -28 -14 -67q-18 -46 -44 -46q-4 0 -13 2.5t-13 2.5q-10 0 -26 -6q-87 -29 -128 -29q-77 0 -133 53q-55 52 -55 131q0 72 54 131q19 19 63 51q45 31 63 51q31 34 35 72
q0 4 1 8q0 4 0.5 10t1.5 14q4 18 21 20z" />
    <glyph glyph-name="grave" unicode="`" horiz-adv-x="255" 
d="M227 601q23 0 28 -21l16 -81q1 -5 1.5 -9t0.5 -6q0 -12 -14 -12q-9 0 -20 11l-72 88q-9 10 -9 18q0 12 23 12h46z" />
    <glyph glyph-name="acute" unicode="&#xb4;" horiz-adv-x="319" 
d="M319 601q23 0 23 -12q0 -8 -9 -18l-71 -88q-11 -11 -20 -11q-15 0 -15 12q0 2 0.5 5.5t1.5 9.5l16 81q4 21 29 21h45z" />
    <glyph glyph-name="circumflex" unicode="&#x2c6;" horiz-adv-x="451" 
d="M149 482q-11 -4 -17 -4q-11 0 -11 11q0 7 17 21l79 65q17 14 29 14q10 0 29 -14l87 -66q16 -12 16 -19q0 -12 -12 -12q-6 0 -17 4l-99 36z" />
    <glyph glyph-name="tilde" unicode="&#x2dc;" horiz-adv-x="349" 
d="M182 519q-15 0 -30 -21q-6 -9 -14 -9q-13 0 -13 13q0 14 12 40q19 40 63 40q19 0 61 -17q43 -17 57 -17q12 0 26 15q12 13 17 13q13 0 13 -14q0 -32 -22.5 -54.5t-53.5 -22.5q-18 0 -78 23q-30 11 -38 11z" />
    <glyph glyph-name="breve" unicode="&#x2d8;" horiz-adv-x="348" 
d="M361 585q12 0 12 -15q0 -26 -22 -51q-35 -38 -101 -38q-68 0 -101 38q-23 26 -23 51q0 15 13 15q5 0 10 -6q29 -29 102 -29q70 0 99 29q6 6 11 6z" />
    <glyph glyph-name="dotaccent" unicode="&#x2d9;" horiz-adv-x="284" 
d="M250 588q23 0 39 -16t16 -39t-16 -38.5t-39 -15.5t-39 15.5t-16 38.5t16.5 39t38.5 16z" />
    <glyph glyph-name="dieresis" unicode="&#xa8;" horiz-adv-x="657" 
d="M362 816q23 0 39 -16t16 -39t-16 -38.5t-39 -15.5t-39 15.5t-16 38.5t16.5 39t38.5 16zM193 816q22 0 38 -16t16 -39t-16 -38.5t-38 -15.5q-23 0 -39 15.5t-16 38.5t16 39t39 16zM213 365q48 1 62 62q11 41 28 41t18 -37q0 -54 11 -93q7 -28 35 -88q5 -12 5 -18
q0 -21 -19 -21q-11 0 -21 15q-22 30 -29 37q-36 41 -90 41v-82q0 -63 18 -94q27 -44 99 -44q101 0 128 103q11 38 26 38t23 -47q10 -79 58 -133q22 -23 22 -34q0 -21 -20 -21q-2 0 -4.5 0.5t-6.5 1.5q-29 8 -54 8h-462q-27 0 -27 20q0 12 26 23q32 16 40 54q1 4 1 73v274
q0 38 -6 55q-10 22 -41 31q-17 5 -17 17q0 29 70 78q79 55 188 55q70 0 171 -45q27 -12 45 -12q17 0 33 10q7 6 12 6q14 0 23 -30q7 -21 7 -42q0 -60 -45 -97q-40 -32 -89 -32q-44 0 -69 25q-19 19 -19 42q0 16 12 16q3 0 10 -2.5t11 -2.5q31 0 31 35q0 31 -28 47
q-23 16 -54 16q-73 0 -98 -70q-14 -39 -14 -129v-50v0z" />
    <glyph glyph-name="ring" unicode="&#x2da;" horiz-adv-x="300" 
d="M250 560q-23 0 -23 -23q0 -24 23 -24t23 24q0 23 -23 23zM251 608q29 0 49.5 -21t20.5 -50q0 -30 -20.5 -51t-50.5 -21t-50.5 21t-20.5 51t21 50.5t51 20.5z" />
    <glyph glyph-name="cedilla" unicode="&#xb8;" horiz-adv-x="457" 
d="M277 603q23 0 39 -16.5t16 -38.5q0 -23 -16 -39t-39 -16t-39 16t-16 39t16 39t39 16zM128 603q22 0 38 -16.5t16 -38.5q0 -23 -16 -39t-39 -16t-38.5 16t-15.5 39t16 39t39 16zM105 222q8 -48 26 -72q37 -51 94 -51q62 0 104 52q15 19 24 19q14 0 14 -19q0 -47 -42 -98
q-53 -63 -134 -63q-59 0 -106 35q-44 33 -66 90q-19 48 -19 104q0 109 61 179q55 67 130 67q29 0 73 -14q26 -8 32 -7q3 1 7 1h8q5 0 13 1q20 2 31 -33q9 -26 9 -51q0 -86 -61 -141q-49 -44 -108 -44q-57 0 -90 45zM103 313q23 29 51 29q15 0 31 -8q17 -9 17 -24
q0 -17 -13 -17q-6 0 -10 3q-13 7 -18 7q-22 0 -22 -29q0 -15 11 -26.5t27 -11.5q35 0 59 33q19 25 19 60q0 33 -16 53q-16 25 -48 25q-49 0 -74 -49q-4 -6 -7 -17t-7 -28z" />
    <glyph glyph-name="hungarumlaut" unicode="&#x2dd;" horiz-adv-x="364" 
d="M369 601q21 0 21 -13q0 -6 -8 -17l-65 -88q-8 -11 -17 -11q-14 0 -14 12q1 4 3 15l14 81q4 21 25 21h41zM262 601q21 0 21 -13q0 -6 -8 -17l-64 -88q-9 -11 -18 -11q-15 0 -13 12q0 2 0.5 6t1.5 9l14 81q4 21 26 21h40z" />
    <glyph glyph-name="ogonek" unicode="&#x2db;" horiz-adv-x="502" 
d="M538 -92q-8 -49 -34 -62q-14 -8 -31 -8q-28 0 -47 17.5t-19 45.5q0 30 34 99h27q-13 -33 -13 -53q0 -48 44 -48q13 0 39 9z" />
    <glyph glyph-name="caron" unicode="&#x2c7;" horiz-adv-x="353" 
d="M350 584q13 5 18 5q10 0 10 -11q0 -7 -17 -21l-79 -65q-17 -14 -29 -14q-9 0 -28 14l-88 65q-16 12 -16 20q0 12 13 12q3 0 16 -5l100 -35z" />
    <glyph glyph-name="emdash" unicode="&#x2014;" horiz-adv-x="657" 
d="M0 198v71h563v-71h-563z" />
    <glyph glyph-name="ordfeminine" unicode="&#xaa;" horiz-adv-x="354" 
d="M180 297q-25 -37 -68 -37q-40 0 -65 27.5t-25 67.5t22 65q23 29 61 29q55 0 55 -54q0 -28 -16 -28q-5 0 -8 7q-6 14 -16 14q-19 0 -19 -31q0 -38 28 -38q38 0 38 51q0 45 -12 93q-10 40 -30 40q-14 0 -14 -9q0 -4 8 -9q5 -3 5 -10q0 -17 -37 -17q-24 0 -39 17t-15 42
q0 9 5 24q4 15 15 15q2 0 8 -2q22 -9 34 -9q7 0 16 1t21 3q15 3 27 3q61 0 72 -80l20 -138q4 -35 15 -39q12 -8 12 -16q0 -12 -14 -12h-59q-20 0 -23 18l-2 12v0z" />
    <glyph glyph-name="ordmasculine" unicode="&#xba;" horiz-adv-x="301" 
d="M69 521q10 0 10 -10q0 -1 -2 -9q-8 -29 -8 -52q0 -53 33 -86q20 -20 42 -20q24 0 37 22q12 18 12 43q0 22 -10 39q-10 22 -30 22q-13 0 -13 -13q0 -2 1 -5.5t1 -5.5q0 -10 -12 -10q-19 0 -33 20q-12 16 -12 38q0 24 14 41t38 17q46 0 77 -49q24 -38 24 -98q0 -55 -26 -96
q-30 -49 -82 -49t-83 48q-25 37 -25 84q0 31 10 64q10 38 27 58q4 7 10 7z" />
    <glyph glyph-name="dotlessi" unicode="&#x131;" horiz-adv-x="270" 
d="M36 0q-22 0 -22 15q0 9 15 18q27 16 27 64v182q0 46 -5 61q-4 12 -24 23q-13 7 -13 16q0 14 17 17q66 11 109 45q11 8 19 8q13 0 13 -23v-256v-73q5 -51 27 -64q15 -9 15 -18q0 -15 -22 -15h-156z" />
    <glyph glyph-name="onesuperior" unicode="&#xb9;" horiz-adv-x="255" 
d="M42 263q-18 0 -18 11q0 8 18 19q15 11 18 35v228q0 28 -17 36q-21 9 -21 18q0 10 16 13q42 6 67 31q19 19 26 19q12 0 12 -24v-281v-48q5 -20 28 -33q7 -4 7 -13q0 -11 -18 -11h-118z" />
    <glyph glyph-name="logicalnot" unicode="&#xac;" horiz-adv-x="563" 
d="M375 198h-342v82h433v-280h-91v198z" />
    <glyph glyph-name="mu" unicode="&#xb5;" horiz-adv-x="499" 
d="M170 -101q1 -10 1.5 -16t0.5 -8q0 -29 -15 -35q-3 -1 -24 -1h-97q-22 0 -22 15q0 9 15 18q22 13 27 64v343q0 39 -2 49q-4 22 -28 35q-12 6 -12 16q0 14 17 17q64 10 109 45q11 8 19 8q12 0 12 -23v-271q0 -77 54 -77q45 0 58 52q4 15 4 51v98q0 46 -5 61q-4 12 -24 23
q-13 7 -13 16q0 14 17 17q66 11 109 45q11 8 19 8q13 0 13 -23v-329q0 -48 27 -64q15 -9 15 -18q0 -15 -22 -15h-107q-29 0 -29 22v21q-53 -53 -108 -53h-9q-4 0 -9 1z" />
    <glyph glyph-name="mu" unicode="&#x3bc;" horiz-adv-x="499" 
d="M170 -101q1 -10 1.5 -16t0.5 -8q0 -29 -15 -35q-3 -1 -24 -1h-97q-22 0 -22 15q0 9 15 18q22 13 27 64v343q0 39 -2 49q-4 22 -28 35q-12 6 -12 16q0 14 17 17q64 10 109 45q11 8 19 8q12 0 12 -23v-271q0 -77 54 -77q45 0 58 52q4 15 4 51v98q0 46 -5 61q-4 12 -24 23
q-13 7 -13 16q0 14 17 17q66 11 109 45q11 8 19 8q13 0 13 -23v-329q0 -48 27 -64q15 -9 15 -18q0 -15 -22 -15h-107q-29 0 -29 22v21q-53 -53 -108 -53h-9q-4 0 -9 1z" />
    <glyph glyph-name="trademark" unicode="&#x2122;" horiz-adv-x="803" 
d="M540 305q-6 -21 -21 -21t-21 21l-65 229q1 -17 1.5 -35t0.5 -37q0 -185 -77 -185q-25 0 -40.5 17.5t-15.5 42.5q0 19 11 36q10 19 28 19q4 0 11 -4.5t10 -4.5q27 0 27 134q0 26 -1.5 43.5t-3.5 27.5q-7 31 -37 58q-12 10 -12 19q0 14 13 14q4 0 15 -4q31 -12 64 -12
q27 0 60 11q15 5 18 5q14 0 14 -14q0 -3 -4 -8l-8.5 -11t-8.5 -12t-4 -12q0 -11 4 -23l39 -135l38 135q5 18 5 22q0 14 -17 28q-11 9 -11 16q0 14 14 14q3 0 21 -5q28 -9 58 -9t57 12q4 3 9 3q15 0 15 -15q0 -10 -19 -23q-15 -11 -18 -41v-47v-175q0 -34 1 -38q4 -14 24 -25
q13 -6 13 -15q0 -14 -19 -14h-119q-19 0 -19 14q0 6 16 16q17 11 19 19q3 9 3 43v168zM146 585q-20 3 -29 3q-33 0 -74 -35q-10 -10 -16 -10q-14 0 -14 16l5 13l10.5 30l14.5 42q16 34 60 34q20 0 64 -11q22 -5 38 -8t27 -3q29 0 52 20q12 12 21 12q15 0 15 -18
q0 -23 -28 -51q-21 -23 -66 -36q-21 -6 -27 -19q-4 -8 -4 -34v-151q0 -34 1 -38q4 -16 24 -25q12 -6 12 -15q0 -14 -18 -14h-119q-19 0 -19 14q0 6 16 16q15 10 19 19q3 9 3 43v96q0 31 -16 38q-9 4 -9 14q0 26 57 58z" />
    <glyph glyph-name="onehalf" unicode="&#xbd;" horiz-adv-x="668" 
d="M486 81q30 0 44 26q9 18 17 18q14 0 15 -22q1 -50 30 -75q12 -11 12 -18q0 -10 -22 -10h-223q-30 0 -30 20q0 69 89 153l35 34t21 24q30 39 30 75q0 24 -15.5 43t-39.5 19q-18 0 -32.5 -14t-14.5 -32q0 -29 25 -29q11 0 16 17q4 12 14 12q15 0 15 -22q0 -27 -20 -43.5
t-47 -16.5q-36 0 -58 24.5t-22 60.5q0 37 20 60q10 12 20 12q3 0 4 -1q5 -1 8 -1.5t5 -0.5q7 0 16 4q42 16 75 16q64 0 99 -45q25 -31 25 -73q0 -52 -36 -88q-22 -20 -85 -60q-47 -29 -73 -67h83zM90 -20l280 707h61l-280 -707h-61zM42 263q-18 0 -18 11q0 8 18 19
q15 11 18 35v228q0 28 -17 36q-21 9 -21 18q0 10 16 13q42 6 67 31q19 19 26 19q12 0 12 -24v-281v-48q5 -20 28 -33q7 -4 7 -13q0 -11 -18 -11h-118z" />
    <glyph glyph-name="plusminus" unicode="&#xb1;" horiz-adv-x="509" 
d="M34 84v72h400v-72h-400zM434 431v-71h-162v-164h-76v164h-162v71h162v165h76v-165h162z" />
    <glyph glyph-name="onequarter" unicode="&#xbc;" horiz-adv-x="620" 
d="M546 107h-47q0 -49 1 -50q3 -20 29 -34q5 -2 5 -11q0 -12 -17 -12h-120q-25 0 -25 13q0 10 16 14q32 12 32 61v19h-124q-33 0 -33 18q0 11 17 26q85 79 85 179q0 5 -0.5 16.5t-0.5 17.5q0 20 31 21q34 1 63 23q7 6 13 6q14 0 14 -16q0 -36 -25 -87q-39 -83 -133 -165h93
v17q0 15 -19 25q-5 2 -5 8q0 7 10 14q34 29 60 74q9 15 20 15q13 0 13 -22v-131h47v-39zM93 -20l281 707h61l-281 -707h-61zM42 263q-18 0 -18 11q0 8 18 19q15 11 18 35v228q0 28 -17 36q-21 9 -21 18q0 10 16 13q42 6 67 31q19 19 26 19q12 0 12 -24v-281v-48
q5 -20 28 -33q7 -4 7 -13q0 -11 -18 -11h-118z" />
    <glyph glyph-name="brokenbar" unicode="&#xa6;" horiz-adv-x="390" 
d="M297 153v-320h-94v320h94zM297 667v-338h-94v338h94z" />
    <glyph glyph-name="degree" unicode="&#xb0;" horiz-adv-x="386" 
d="M168 609q-26 0 -44.5 -18t-18.5 -45q0 -25 18.5 -43.5t43.5 -18.5q27 0 45 18t18 44q0 27 -17.5 44.5t-44.5 18.5zM169 680q28 0 52.5 -10.5t42 -28.5t27.5 -42.5t10 -52.5q0 -29 -10 -53t-28 -42t-42.5 -28t-53.5 -10t-53 10t-42 28t-28 42t-10 53t10.5 53.5t28.5 42.5
t42.5 28t53.5 10z" />
    <glyph glyph-name="threequarters" unicode="&#xbe;" horiz-adv-x="728" 
d="M655 107h-47v-42q2 -27 17 -35q18 -11 18 -18q0 -12 -18 -12h-119q-25 0 -25 13q0 9 15 14q33 12 33 61v19h-124q-33 0 -33 18q0 11 17 26q85 79 85 179q0 5 -0.5 16.5t-0.5 17.5q0 19 30 21q35 2 64 23q7 6 13 6q14 0 14 -16q0 -31 -23 -83q-38 -84 -135 -169h93v17
q0 13 -20 25q-4 1 -4 8t10 14q34 29 60 74q9 15 20 15q13 0 13 -22v-131h47v-39zM202 -20l280 707h61l-280 -707h-61zM211 500q99 -29 99 -118q0 -62 -46 -96q-41 -31 -105 -31q-52 0 -90 23q-46 28 -46 76q0 32 21 54t53 22q25 0 42.5 -15.5t17.5 -39.5t-16 -24
q-2 0 -9 4.5t-11 4.5q-17 0 -17 -21q0 -18 14 -30t33 -12q29 0 45 22q16 19 16 49q0 64 -62 81q-13 4 -39 5q-18 1 -18 15q0 9 14 15q30 12 59 35q39 30 39 66q0 20 -14 34t-33 14q-18 0 -31 -12.5t-13 -30.5q0 -24 18 -24q11 0 17 15q6 12 14 12q13 0 13 -16
q0 -24 -18.5 -39.5t-43.5 -15.5q-30 0 -53 20q-29 27 -29 67q0 13 5 28q7 18 19 18q24 -3 19 -3q10 0 27 6q45 19 73 19q42 0 74 -22q37 -25 37 -64q0 -57 -75 -91z" />
    <glyph glyph-name="twosuperior" unicode="&#xb2;" horiz-adv-x="380" 
d="M185 343q30 0 44 27q8 17 17 17q13 0 14 -22q5 -49 31 -74q12 -11 12 -18q0 -10 -23 -10h-222q-30 0 -30 20q0 69 88 153q22 20 36 35l21 23q30 37 30 74q0 24 -16 43t-39 19q-19 0 -33 -13t-14 -32q0 -29 24 -29q13 0 17 16q4 13 14 13q15 0 15 -23q0 -28 -25 -46
q-20 -14 -43 -14q-36 0 -58 24.5t-22 60.5q0 37 21 60q10 11 19 13q2 0 8.5 -2t9.5 -2q7 0 16 4q48 17 75 17q63 0 99 -45q25 -32 25 -73q0 -52 -36 -88q-22 -22 -85 -60q-47 -29 -73 -68h83z" />
    <glyph glyph-name="registered" unicode="&#xae;" horiz-adv-x="799" 
d="M417 312q19 -10 39 -10q3 0 9.5 1t9.5 1q14 0 14 -14q0 -4 -2.5 -11.5t-2.5 -10.5q0 -5 5 -17l18 -41q13 -28 38 -39q15 -5 15 -16q0 -15 -27 -15h-113q-20 0 -20 16q0 3 3.5 6.5t8 7.5t8 7.5t3.5 6.5q0 36 -50 107q-37 50 -37 85q0 25 13 44q15 22 38 22
q17 0 29.5 -11.5t12.5 -27.5q0 -28 -26 -28q-13 0 -13 12q0 5 6 10q2 2 2 5q0 8 -10 8q-20 0 -20 -23q0 -32 35 -32q22 0 36 15.5t14 37.5q0 25 -18 41.5t-42 16.5q-44 0 -60 -40q-7 -15 -7 -61v-133q0 -34 1 -37q4 -15 24 -26q12 -5 12 -14q0 -15 -18 -15h-119
q-19 0 -19 15q0 9 12 14q19 9 24 26q2 8 2 37v161q0 30 -19 36q-15 4 -15 17q0 11 19 33q56 62 144 62q62 0 103 -32q46 -34 46 -94q0 -48 -29 -75t-77 -28zM384 615q-120 2 -200 -80q-81 -83 -81 -202q0 -81 39.5 -148t111.5 -103q61 -31 127 -31q80 0 146.5 41t101.5 113
q31 61 31 128q0 81 -40 147.5t-112 103.5q-58 31 -124 31zM385 680q97 0 179 -52q82 -51 126 -137q38 -76 38 -158q0 -100 -50.5 -182t-138.5 -127q-76 -38 -158 -38q-100 0 -182 50.5t-127 138.5q-38 74 -38 158q0 100 49.5 182t139.5 127q76 38 162 38z" />
    <glyph glyph-name="minus" unicode="&#x2212;" horiz-adv-x="530" 
d="M34 304v71h400v-71h-400z" />
    <glyph glyph-name="threesuperior" unicode="&#xb3;" horiz-adv-x="379" 
d="M211 500q99 -29 99 -118q0 -62 -46 -96q-41 -31 -105 -31q-52 0 -90 23q-46 28 -46 76q0 32 21 54t53 22q25 0 42.5 -15.5t17.5 -39.5q0 -23 -16 -24q-3 0 -11 5q-4 4 -9 4q-17 0 -17 -21q0 -18 14 -30t33 -12q29 0 45 22q16 19 16 49q0 64 -62 81q-13 4 -39 5
q-18 1 -18 15q0 9 14 15q28 12 59 35q39 31 39 66q0 20 -14 34t-33 14q-18 0 -31 -12.5t-13 -30.5q0 -24 18 -24q11 0 17 15q4 12 14 12q13 0 13 -16q0 -24 -18.5 -39.5t-43.5 -15.5q-30 0 -53 20q-29 27 -29 67q0 13 5 28q7 18 19 18q24 -3 19 -3q10 0 56 17q21 8 44 8
q42 0 74 -22q37 -25 37 -64q0 -57 -75 -91z" />
    <glyph glyph-name="copyright" unicode="&#xa9;" horiz-adv-x="799" 
d="M371 541q19 0 52 -11q18 -6 25 -6q4 0 11.5 3.5t11.5 3.5q16 0 27 -32q6 -23 6 -45q0 -66 -36 -103q-30 -32 -72 -32q-29 0 -50 17.5t-21 46.5q0 17 11 32t27 15q18 0 18 -18q0 -3 -3.5 -7l-7 -8t-7 -7.5t-3.5 -6.5q0 -18 23 -18q15 0 26 12.5t11 28.5q0 21 -15.5 35.5
t-35.5 14.5q-40 0 -62 -43q-18 -35 -18 -79q0 -54 24 -91q29 -44 80 -44q61 0 91 72q5 11 14 11q14 0 14 -25q0 -34 -18 -65q-38 -62 -114 -62q-82 0 -128 66q-42 58 -42 143q0 78 40 136q46 66 121 66zM384 615q-120 2 -200 -80q-81 -83 -81 -202q0 -81 39.5 -148
t111.5 -103q61 -31 127 -31q80 0 146.5 41t101.5 113q31 61 31 128q0 81 -40 147.5t-112 103.5q-58 31 -124 31zM385 680q97 0 179 -52q82 -51 126 -137q38 -76 38 -158q0 -100 -50.5 -182t-138.5 -127q-76 -38 -158 -38q-100 0 -182 50.5t-127 138.5q-38 74 -38 158
q0 100 49.5 182t139.5 127q76 38 162 38z" />
    <glyph glyph-name="macron" unicode="&#xaf;" horiz-adv-x="467" 
d="M0 712v71h500v-71h-500z" />
    <glyph glyph-name="macron" unicode="&#x2c9;" horiz-adv-x="467" 
d="M0 712v71h500v-71h-500z" />
    <glyph glyph-name="periodcentered" unicode="&#xb7;" horiz-adv-x="242" 
d="M102 287q27 0 46 -19.5t19 -47.5t-19.5 -47t-46.5 -19q-28 0 -47.5 19t-19.5 47q0 29 19.5 48t48.5 19z" />
    <glyph glyph-name="periodcentered" unicode="&#x2219;" horiz-adv-x="242" 
d="M102 287q27 0 46 -19.5t19 -47.5t-19.5 -47t-46.5 -19q-28 0 -47.5 19t-19.5 47q0 29 19.5 48t48.5 19z" />
    <glyph glyph-name="Dcaron" unicode="&#x10e;" horiz-adv-x="487" 
d="M355 511l50 -50l-121 -121l121 -121l-50 -51l-121 122l-121 -122l-50 51l121 121l-121 121l50 50l121 -120z" />
    <glyph glyph-name="Delta" unicode="&#x394;" horiz-adv-x="699" 
d="M504 78l-190 493l-192 -493h382zM267 667h92l262 -667h-614z" />
    <glyph glyph-name="Delta" unicode="&#x2206;" horiz-adv-x="699" 
d="M504 78l-190 493l-192 -493h382zM267 667h92l262 -667h-614z" />
    <glyph glyph-name="Omega" unicode="&#x3a9;" horiz-adv-x="730" 
d="M28 78h174q-176 104 -176 286q0 146 103 240q85 79 204 79q122 0 208 -81q100 -94 100 -239q0 -183 -177 -285h175v-78h-263v73q68 37 104 82q70 85 70 195q0 112 -71 189q-62 65 -145 65q-85 0 -147 -65q-71 -74 -71 -190q0 -182 174 -276v-73h-262v78z" />
    <glyph glyph-name="Omega" unicode="&#x2126;" horiz-adv-x="730" 
d="M28 78h174q-176 104 -176 286q0 146 103 240q85 79 204 79q122 0 208 -81q100 -94 100 -239q0 -183 -177 -285h175v-78h-263v73q68 37 104 82q70 85 70 195q0 112 -71 189q-62 65 -145 65q-85 0 -147 -65q-71 -74 -71 -190q0 -182 174 -276v-73h-262v78z" />
    <glyph glyph-name="pi" unicode="&#x3c0;" horiz-adv-x="584" 
d="M92 411h-72v68h529v-68h-72v-411h-84v411h-217v-411h-84v411z" />
    <glyph glyph-name="partialdiff" unicode="&#x2202;" horiz-adv-x="553" 
d="M257 366q-92 2 -131 -85q-15 -33 -15 -69q0 -64 39 -107q40 -45 102 -45q48 0 86 33q52 45 52 124q0 61 -35 104q-38 44 -98 45zM92 668q85 -11 143 -36q129 -53 190 -176q47 -96 47 -211q0 -111 -52 -176q-65 -81 -173 -81q-96 0 -157 67q-61 65 -61 162q0 74 42 133
q61 84 169 84q60 0 97 -29q4 -3 15 -13.5l28 -27.5q-1 1 -2 3.5l-3 7.5q-19 46 -30 67q-17 31 -45 57q-86 81 -218 98z" />
    <glyph glyph-name="product" unicode="&#x220f;" horiz-adv-x="664" 
d="M642 750v-73h-74v-854h74v-73h-228v73h73v854h-307v-854h72v-73h-227v73h75v854h-75v73h617z" />
    <glyph glyph-name="summation" unicode="&#x2211;" horiz-adv-x="661" 
d="M602 516h-81l-9 151h-378l248 -398l-248 -437h387l5 153h85v-235h-577v95l242 424l-242 387v94h568v-234z" />
    <glyph glyph-name="radical" unicode="&#x221a;" horiz-adv-x="622" 
d="M667 752h-188l-218 -752h-99l-80 287h-82v74h134l39 -133q2 -5 9 -35.5l19 -85.5l3 -16h5q2 8 7 30.5t14 57.5l25 103l47 158l111 387h254v-75z" />
    <glyph glyph-name="infinity" unicode="&#x221e;" horiz-adv-x="735" 
d="M301 340q-61 94 -128 94q-40 0 -64 -26.5t-24 -68.5t25 -67.5t65 -25.5q53 0 97 54q30 38 29 40zM366 340q60 -94 126 -94q42 0 66 26t24 68t-24.5 68t-66.5 26q-54 0 -97 -55q-12 -13 -28 -39zM334 296q-24 -34 -45 -55q-51 -53 -122 -53q-33 0 -60.5 11.5t-47 31.5
t-30 48.5t-10.5 62.5q0 33 10.5 60.5t30 47.5t47 31t60.5 11q90 0 165 -108q21 31 45 55q55 53 123 53q71 0 113 -50q35 -41 35 -103q0 -33 -11 -61t-30.5 -48t-46.5 -31t-60 -11q-90 0 -166 108z" />
    <glyph glyph-name="integral" unicode="&#x222b;" horiz-adv-x="394" 
d="M104 -155q21 -10 41 -10q39 0 51 30q6 16 6 97v560q0 110 9 142q12 43 51 65q36 21 82 21q11 0 28 -3t40 -8l-17 -84q-24 11 -41 11q-36 0 -48 -27q-9 -17 -9 -75v-609q0 -32 -0.5 -52.5t-1.5 -28.5q-4 -46 -28 -74q-42 -49 -130 -49q-19 0 -38 6q-2 1 -4.5 1.5t-7.5 2.5
z" />
    <glyph glyph-name="approxequal" unicode="&#x2248;" horiz-adv-x="560" 
d="M10 201q10 22 20 38.5t20 28.5q41 50 98 50q37 0 112 -36q67 -33 95 -33q45 0 86 66l49 -33q-21 -46 -43 -71q-41 -47 -94 -47q-33 0 -111 37q-69 32 -97 32q-46 0 -86 -66zM10 381q10 22 20 38.5t20 29.5q41 50 98 50q38 0 112 -37q67 -33 95 -33q47 0 86 67l49 -34
q-22 -47 -43 -71q-41 -47 -94 -47q-34 0 -111 37q-69 33 -97 33q-46 0 -86 -66z" />
    <glyph glyph-name="approxequal" unicode="&#x22f2;" horiz-adv-x="560" 
d="M10 201q10 22 20 38.5t20 28.5q41 50 98 50q37 0 112 -36q67 -33 95 -33q45 0 86 66l49 -33q-21 -46 -43 -71q-41 -47 -94 -47q-33 0 -111 37q-69 32 -97 32q-46 0 -86 -66zM10 381q10 22 20 38.5t20 29.5q41 50 98 50q38 0 112 -37q67 -33 95 -33q47 0 86 67l49 -34
q-22 -47 -43 -71q-41 -47 -94 -47q-34 0 -111 37q-69 33 -97 33q-46 0 -86 -66z" />
    <glyph glyph-name="notequal" unicode="&#x2260;" horiz-adv-x="509" 
d="M257 304h177v-71h-208l-40 -90l-66 29l27 61h-113v71h145l32 71h-177v72h209l40 90l65 -29l-27 -61h113v-72h-145z" />
    <glyph glyph-name="lessequal" unicode="&#x2264;" horiz-adv-x="545" 
d="M466 67h-433v82h433v-82zM466 517l-330 -125l330 -125v-89l-433 174v80l433 173v-88z" />
    <glyph glyph-name="greaterequal" unicode="&#x2265;" horiz-adv-x="537" 
d="M466 149v-82h-433v82h433zM466 432v-80l-433 -174v89l330 125l-330 125v88z" />
    <glyph glyph-name="lozenge" unicode="&#x25ca;" horiz-adv-x="652" 
d="M136 333l197 -270l197 270l-197 271zM593 333l-260 -359l-259 359l259 360z" />
    <glyph glyph-name="nonbreakingspace" unicode="&#xa0;" 
 />
    <glyph glyph-name="sfthyphen" unicode="&#xad;" horiz-adv-x="282" 
d="M0 198v71h188v-71h-188z" />
    <glyph glyph-name="glyph292" horiz-adv-x="255" 
d="M227 829q23 0 28 -21l16 -81q1 -5 1.5 -9t0.5 -6q0 -12 -14 -12q-9 0 -20 11l-72 88q-9 10 -9 18q0 12 23 12h46z" />
    <glyph glyph-name="glyph293" horiz-adv-x="348" 
d="M361 813q12 0 12 -15q0 -26 -22 -51q-35 -38 -101 -38q-68 0 -101 38q-23 26 -23 51q0 15 13 15q5 0 10 -6q29 -29 102 -29q70 0 99 29q6 6 11 6z" />
    <glyph glyph-name="glyph294" horiz-adv-x="354" 
d="M325 816q23 0 38.5 -16t15.5 -39t-15.5 -38.5t-38.5 -15.5t-39 15.5t-16 38.5t16 39t39 16zM176 816q22 0 38 -16t16 -39t-16 -38.5t-39 -15.5t-38.5 15.5t-15.5 38.5t16 39t39 16z" />
    <glyph glyph-name="glyph295" horiz-adv-x="284" 
d="M250 816q23 0 39 -16t16 -39t-16 -38.5t-39 -15.5t-39 15.5t-16 38.5t16.5 39t38.5 16z" />
    <glyph glyph-name="glyph296" horiz-adv-x="319" 
d="M319 829q23 0 23 -12q0 -8 -9 -18l-71 -88q-11 -11 -20 -11q-15 0 -15 12q0 2 0.5 5.5t1.5 9.5l16 81q4 21 29 21h45z" />
    <glyph glyph-name="glyph297" horiz-adv-x="364" 
d="M335 816q23 0 39 -16t16 -39t-16 -38.5t-39 -15.5t-39 15.5t-16 38.5t16.5 39t38.5 16zM166 816q22 0 38 -16t16 -39t-16 -38.5t-38 -15.5q-23 0 -39 15.5t-16 38.5t16 39t39 16z" />
    <glyph glyph-name="glyph298" horiz-adv-x="354" 
d="M325 588q23 0 38.5 -16t15.5 -39t-15.5 -38.5t-38.5 -15.5t-39 15.5t-16 38.5t16 39t39 16zM176 588q22 0 38 -16t16 -39t-16 -38.5t-39 -15.5t-38.5 15.5t-15.5 38.5t16 39t39 16z" />
    <glyph glyph-name="glyph299" horiz-adv-x="353" 
d="M149 710q-11 -4 -17 -4q-11 0 -11 11q0 7 17 21l79 65q17 14 29 14q10 0 29 -14l87 -66q16 -12 16 -19q0 -12 -12 -12q-6 0 -17 4l-99 36z" />
    <glyph glyph-name="glyph300" horiz-adv-x="353" 
d="M350 813q11 4 18 4q10 0 10 -11q0 -7 -17 -21l-79 -65q-17 -14 -29 -14q-9 0 -28 14l-88 65q-16 12 -16 20q0 12 13 12q5 0 16 -4l100 -37z" />
    <glyph glyph-name="glyph301" horiz-adv-x="349" 
d="M182 747q-15 0 -30 -21q-6 -9 -14 -9q-13 0 -13 13q0 14 12 40q19 40 63 40q19 0 61 -17q43 -17 57 -17q13 0 26 16q12 12 17 12q13 0 13 -14q0 -32 -22.5 -54.5t-53.5 -22.5q-18 0 -78 23q-30 11 -38 11z" />
    <glyph glyph-name="afii10018" unicode="&#x411;" horiz-adv-x="646" 
d="M353 400q78 0 140 -32q93 -50 93 -157t-94 -168q-75 -48 -197 -48q-132 0 -232 51q-50 26 -50 50q0 13 17 25q21 13 29 30q4 11 4 43v252q0 35 -6 52q-11 24 -39 31q-18 6 -18 18q0 28 69 76q77 55 185 55q69 0 146 -36q45 -21 65 -21q16 0 33 11q8 5 12 5q14 0 23 -30
q6 -21 6 -40q0 -58 -44 -96q-38 -32 -87 -32q-42 0 -68 26q-19 19 -19 41q0 15 12 15l10 -2q4 -3 11 -3q30 0 30 35q0 29 -27 46q-24 15 -54 15q-77 0 -99 -78q-11 -39 -11 -117l1 -218q0 -41 14 -66q27 -47 96 -47q61 0 96 37t35 98q0 69 -44 108q-27 23 -61 23
q-26 0 -44 -15q-21 -17 -21 -41q0 -15 9 -28q10 -16 25 -16t22 19t16 19q27 0 27 -31q0 -24 -18 -38.5t-43 -14.5q-42 0 -70 34q-21 25 -21 65q0 95 141 95z" />
    <glyph glyph-name="afii10020" unicode="&#x413;" horiz-adv-x="585" 
d="M201 141q0 -47 6 -63q10 -26 48 -36q26 -6 26 -22q0 -20 -28 -20h-226q-27 0 -27 20q0 12 27 24q32 14 38 48q1 5 1.5 21t0.5 44v289q0 36 -5 53q-11 23 -40 32q-19 6 -19 18q0 29 70 78q80 56 190 56q75 0 150 -37q46 -21 66 -21q16 0 32 11q8 5 13 5q14 0 23 -30
q7 -21 7 -42q0 -59 -45 -98q-38 -32 -89 -32q-43 0 -69 26q-19 19 -19 42q0 15 11 15q4 0 11 -2t11 -2q31 0 31 35q0 30 -28 48q-24 15 -55 15q-78 0 -102 -80q-10 -34 -10 -119v-276v0z" />
    <glyph glyph-name="afii10021" unicode="&#x414;" horiz-adv-x="757" 
d="M484 617q-9 -8 -13.5 -19t-4.5 -23q0 -18 17 -71l123 -354q5 -14 12 -30l15 -35q7 -11 18 -22h13q8 0 18.5 2.5t23.5 6.5q8 2 11 2q20 0 20 -22q0 -11 -22 -34q-23 -26 -38 -58.5t-20 -64.5q-7 -46 -24 -46q-16 0 -26 37q-27 104 -117 104h-236q-95 0 -124 -104
q-10 -37 -26 -37t-23 46q-2 10 -7 25.5t-12.5 33t-17.5 34t-22 30.5q-22 23 -22 34q0 22 21 22q2 0 4.5 -0.5t6.5 -1.5q25 -7 47 -9h14q-13 27 -13 65q0 56 36 124q22 39 73 110q91 124 91 192q0 17 -6.5 34t-19.5 30q-8 8 -16 13t-8 15q0 19 20 19q6 0 23 -6q51 -21 95 -21
q43 0 108 24q7 3 12 3q21 0 21 -20q0 -8 -7.5 -14zM341 504q-5 -17 -25 -56.5t-55 -101.5q-59 -104 -59 -149q0 -24 10 -40q12 -21 32 -21q26 0 26 38q0 15 16 15q26 0 43 -30q12 -24 12 -55q0 -22 -8 -41h121q14 19 14 42q0 35 -20 93l-107 306v0z" />
    <glyph glyph-name="afii10022" unicode="&#x415;" horiz-adv-x="637" 
d="M198 341v-89q0 -91 13 -127q25 -69 98 -69q31 0 54 15q27 16 27 47q0 35 -31 35q-4 0 -11 -2.5t-10 -2.5q-11 0 -11 15q0 23 19 42q25 25 68 25q49 0 87 -32q45 -38 45 -96q0 -20 -7 -41q-9 -30 -23 -30q-5 0 -12 6q-14 10 -32 10t-45 -12q-98 -45 -168 -45
q-108 0 -187 55q-69 49 -69 77q0 12 17 17q31 7 40 31q6 15 6 54v215q0 39 -6 54q-9 24 -40 31q-17 5 -17 17q0 27 69 77q79 55 187 55q70 0 168 -45q27 -12 45 -12t32 10q7 6 12 6q14 0 23 -30q7 -21 7 -41q0 -59 -45 -96q-38 -32 -87 -32q-15 0 -30.5 4.5t-28 13t-20.5 21
t-8 28.5q0 15 11 15q3 0 10 -2.5t11 -2.5q31 0 31 35q0 30 -27 47q-23 15 -54 15q-73 0 -98 -69q-13 -36 -13 -127v-11q18 -5 37.5 -3t38 6.5t34.5 8t26.5 2t14 -12t-2.5 -33.5q-11 -39 -11 -92q-1 -37 -18 -37q-18 0 -27 40q-14 60 -62 62h-30z" />
    <glyph glyph-name="afii10024" unicode="&#x416;" horiz-adv-x="1066" 
d="M340 414q-14 23 -34.5 52.5t-48.5 64.5q-13 17 -30.5 25t-30.5 8q-14 0 -23.5 -9.5t-6.5 -23.5q5 -12 19 -16q15 -5 17 -13q4 -18 -18 -36q-32 -23 -68 -23q-26 0 -51 14q-53 32 -53 99q0 30 17 59q35 59 114 59q21 0 44 -6.5t45.5 -19t43.5 -31.5t38 -44l51.5 -80.5
l64.5 -102.5v67q0 85 -8 115q-4 22 -34 46q-26 20 -26 31q0 19 21 19q7 0 15 -3q52 -24 101 -24q48 0 101 24q7 3 15 3q21 0 21 -19q0 -13 -27 -31q-32 -23 -39 -74q-1 -5 -1.5 -27t-0.5 -60v-67l64.5 102.5l51.5 80.5q16 25 37.5 44t44 31.5t45.5 19t44 6.5q79 0 114 -59
q17 -29 17 -59q0 -67 -53 -99q-25 -14 -51 -14q-36 0 -68 23q-23 18 -18 36q2 8 17 13q14 4 19 16q3 14 -6.5 23.5t-23.5 9.5q-13 0 -30.5 -8t-30.5 -25q-28 -35 -48.5 -64.5t-34.5 -52.5q6 1 12 1h13q47 0 109 -24q52 -19 52 -44q0 -4 -6.5 -17.5t-6.5 -23.5q0 -8 11 -36
l73 -175q13 -30 57 -50q26 -12 26 -27q0 -18 -26 -18h-224q-29 0 -29 19q0 11 15 19q28 13 28 33q0 9 -13 38l-77 184q-19 46 -61 46q-43 0 -43 -67v-119q0 -56 4 -68q9 -29 46 -45q19 -7 19 -20q0 -20 -28 -20h-220q-28 0 -28 20q0 13 19 20q37 16 46 45q4 12 4 68v119
q0 67 -44 67q-41 0 -60 -46l-77 -184q-13 -27 -13 -38q0 -12 6 -19q2 -2 7.5 -6t15.5 -9q14 -8 14 -18q0 -19 -29 -19h-224q-26 0 -26 18q0 15 26 27q44 20 57 50l73 175q11 27 11 36q0 10 -6.5 24t-6.5 17q0 25 52 44q61 24 109 24h13t12 -1z" />
    <glyph glyph-name="afii10027" unicode="&#x419;" horiz-adv-x="775" 
d="M408 816q12 0 12 -15q0 -26 -22 -51q-35 -38 -101 -38q-68 0 -101 38q-23 26 -23 51q0 15 13 15q5 0 10 -6q29 -29 102 -29q70 0 99 29q6 6 11 6zM201 265q11 -4 30 -4q45 0 78 17t53 42.5t28 54t3 51.5q-7 26 -27 36t-43 7q-22 -6 -29 -21q-12 -23 7 -34q4 -2 14 0t15 0
q16 -8 8 -23q-7 -16 -28 -19q-9 -2 -17.5 0t-16.5 6q-24 11 -32 39q-7 25 5 52q14 32 51 46q30 11 61 3q18 -4 32 -13q0 29 -2 39q-7 46 -46 72q-21 15 -21 28q0 18 17 18q4 0 21 -6q51 -19 95 -19q49 0 99 24q7 3 14 3q21 0 21 -19q0 -13 -24 -29q-32 -22 -40 -74
q-1 -5 -1.5 -27t-0.5 -61v-302q0 -56 4 -68q9 -27 45 -44q18 -9 18 -20q0 -20 -27 -20h-212q-27 0 -27 20q0 12 26 23q30 13 38 46q3 13 3 64v122q-17 -24 -38.5 -47t-46.5 -42t-52 -32.5t-55 -19.5q0 -41 4 -50q7 -27 45 -44q19 -9 19 -20q0 -20 -28 -20h-212q-27 0 -27 20
q0 12 26 23q30 13 38 46q3 10 3 64v301q0 39 -0.5 61.5t-1.5 28.5q-8 47 -46 72q-21 15 -21 28q0 18 18 18q3 0 20 -6q51 -19 96 -19q47 0 98 24q7 3 14 3q21 0 21 -19q0 -14 -23 -29q-28 -19 -36 -44q-7 -27 -7 -118v-189z" />
    <glyph glyph-name="afii10028" unicode="&#x41a;" horiz-adv-x="697" 
d="M29 0q-28 0 -28 20q0 13 19 20q37 16 46 45q4 12 4 68v304q0 85 -8 115q-4 22 -34 46q-26 20 -26 31q0 19 21 19q7 0 15 -3q52 -24 101 -24q48 0 101 24q7 3 15 3q21 0 21 -19q0 -13 -27 -31q-32 -23 -39 -74q-1 -5 -1.5 -27t-0.5 -60v-67l64.5 102.5l51.5 80.5
q16 25 37 44t44 31.5t46 19t44 6.5q79 0 114 -59q17 -29 17 -59q0 -67 -53 -99q-25 -14 -51 -14q-36 0 -68 23q-23 18 -18 36q2 8 17 13q14 4 19 16q3 14 -6.5 23.5t-23.5 9.5q-13 0 -29.5 -8t-31.5 -25q-25 -29 -47 -61.5t-36 -55.5q6 1 12 1h13q47 0 109 -24
q52 -19 52 -44q0 -4 -6.5 -17.5t-6.5 -23.5q0 -8 11 -36l73 -175q13 -30 57 -50q26 -12 26 -27q0 -18 -26 -18h-224q-29 0 -29 19q0 11 15 19q28 13 28 33q0 9 -13 38l-77 184q-19 46 -61 46q-43 0 -43 -67v-119q0 -56 4 -68q9 -29 46 -45q19 -7 19 -20q0 -20 -28 -20h-220z
" />
    <glyph glyph-name="afii10030" unicode="&#x41c;" horiz-adv-x="949" 
d="M650 47q29 24 29 58q0 18 -4 41t-12 52l-77 306q-5 -17 -25 -56.5t-55 -101.5q-59 -104 -59 -149q0 -24 10 -40q12 -21 32 -21q26 0 26 38q0 15 16 15q26 0 43 -30q12 -24 12 -55q0 -26 -9.5 -47.5t-26.5 -37.5t-39.5 -25t-48.5 -9q-30 0 -55.5 11t-43.5 30t-28 45.5
t-10 56.5q0 35 13 71l-77 305q-5 -17 -25 -56.5t-55 -101.5q-59 -104 -59 -149q0 -24 10 -40q12 -21 32 -21q26 0 26 38q0 15 16 15q26 0 43 -30q12 -24 12 -55q0 -26 -9.5 -47.5t-26.5 -37.5t-39.5 -25t-48.5 -9q-30 0 -55.5 11t-43.5 30t-28 45.5t-10 56.5q0 56 36 124
q22 39 73 110q91 124 91 192q0 35 -26 64q-8 8 -16 13t-8 15q0 19 20 19q6 0 23 -6q51 -21 95 -21q43 0 108 24q7 3 12 3q21 0 21 -20q0 -8 -7.5 -14l-17.5 -14q-25 -23 -24.5 -49t9.5 -64l40 -150q46 62 71 114t25 86q0 35 -26 64q-8 8 -16 13t-8 15q0 19 20 19q6 0 23 -6
q51 -21 95 -21q43 0 108 24q7 3 12 3q21 0 21 -20q0 -8 -7.5 -14l-17.5 -14q-19 -16 -15 -45.5t13 -67.5l94 -354q5 -17 10.5 -31.5t15.5 -33.5q14 -21 46 -37q12 -6 13.5 -14t1.5 -13q0 -21 -35 -21h-188q-27 0 -34 3q-14 5 -14 19q0 13 13 25z" />
    <glyph glyph-name="afii10031" unicode="&#x41d;" horiz-adv-x="677" 
d="M201 152q0 -56 4 -68q7 -27 45 -44q19 -9 19 -20q0 -20 -28 -20h-212q-27 0 -27 20q0 12 26 23q30 13 38 46q3 10 3 64v301q0 39 -0.5 61.5t-1.5 28.5q-8 47 -46 72q-21 15 -21 28q0 18 18 18q3 0 20 -6q51 -19 96 -19q47 0 98 24q7 3 14 3q21 0 21 -19q0 -14 -23 -29
q-28 -19 -36 -44q-7 -27 -7 -118v-70q34 14 88 14h104v56q0 38 -0.5 60.5t-1.5 29.5q-7 46 -46 72q-21 15 -21 28q0 18 17 18q4 0 21 -6q51 -19 95 -19q49 0 99 24q7 3 14 3q21 0 21 -19q0 -13 -24 -29q-32 -22 -40 -74q-1 -5 -1.5 -27t-0.5 -61v-302q0 -56 4 -68
q9 -27 45 -44q18 -9 18 -20q0 -20 -27 -20h-212q-27 0 -27 20q0 12 26 23q30 13 38 46q3 13 3 64v107q-26 43 -57.5 61t-74.5 18q-24 0 -42 -11.5t-18 -33.5q0 -15 9 -28q10 -16 25 -16t22 19t16 19q27 0 27 -31q0 -24 -18 -38.5t-43 -14.5q-19 0 -38 8v-60z" />
    <glyph glyph-name="afii10032" unicode="&#x41e;" horiz-adv-x="662" 
d="M441 390q-6 64 -24 114q-40 106 -119 110q-96 4 -135 -147q-17 -65 -17 -137q0 -106 36 -190q39 -92 113 -92q49 0 83.5 40.5t51.5 115.5q-29 -10 -65 -10q-87 0 -131 59q-24 31 -24 73q0 50 33 82q27 27 63 27q29 0 50 -18t21 -47q0 -19 -10 -32q-11 -17 -28 -17
q-18 0 -18 17q0 5 6 13.5t6 12.5q0 21 -27 21q-18 0 -30.5 -16.5t-12.5 -35.5q0 -30 21 -48.5t51 -18.5q26 0 47 10.5t34.5 28t20 40t4.5 45.5zM295 673q124 1 204 -87q92 -103 92 -251q0 -142 -78 -239q-84 -106 -221 -106q-75 0 -139 39q-87 53 -127 160q-26 70 -26 145
q0 98 42 181q80 156 253 158z" />
    <glyph glyph-name="afii10034" unicode="&#x420;" horiz-adv-x="632" 
d="M28 0q-28 0 -28 20q0 13 15 19q20 8 27 14q13 9 18 23q6 19 6 81v264q0 40 -5 55q-9 22 -40 32q-14 5 -14 18q0 26 51 71q98 86 234 86q116 0 194 -66q84 -71 84 -184q0 -98 -66 -159q-53 -50 -129 -50q-87 0 -131 59q-24 31 -24 73q0 50 33 82q27 27 63 27q29 0 50 -18
t21 -47q0 -19 -10 -32q-11 -17 -28 -17q-18 0 -18 17q0 5 6 13.5t6 12.5q0 21 -27 21q-18 0 -30.5 -16.5t-12.5 -35.5q0 -30 21 -48.5t51 -18.5q47 0 76 41q34 49 34 83q0 69 -36 108q-38 39 -106 39q-69 0 -95 -53q-18 -41 -18 -128v-229q0 -70 8 -84q9 -15 46 -31
q23 -9 23 -22q0 -20 -31 -20h-218z" />
    <glyph glyph-name="afii10035" unicode="&#x421;" horiz-adv-x="585" 
d="M274 678q35 0 89 -18q35 -11 46 -11q8 0 26 8q8 4 14 4q26 0 42 -52q11 -39 11 -73q0 -105 -62 -170q-51 -52 -121 -52q-45 0 -76 24q-42 31 -42 79q0 27 17 49q18 24 45 24q25 0 25 -24q0 -12 -14 -20q-24 -12 -24 -29t16 -27q13 -9 30 -9q30 0 50 22t20 53q0 39 -28 64
t-67 25q-74 0 -113 -73q-32 -59 -32 -139q0 -94 45 -158q53 -74 142 -74q115 0 166 125q6 14 18 14q20 0 20 -36q0 -43 -17.5 -81.5t-48 -67.5t-72 -45.5t-87.5 -14.5q-140 0 -219 108q-73 97 -73 240q0 210 150 299q60 35 124 36z" />
    <glyph glyph-name="afii10039" unicode="&#x425;" horiz-adv-x="709" 
d="M335 0q-42 0 -42 23q0 15 17 21q39 15 39 49q0 16 -12 39l-59 111l-70 -122q-8 -14 -11.5 -25t-3.5 -19q0 -17 19 -33q21 -20 21 -28q0 -19 -19 -19h-185q-19 0 -19 19q0 12 15 23q3 2 9 6.5t15 10.5q25 17 48.5 42.5t46.5 57.5q3 4 12.5 20l22 38.5l28 49.5l30.5 53
l-138 247q-21 35 -60 61q-14 9 -14 22q0 17 19 17q7 0 24 -6q48 -19 92 -19q41 0 93 20q15 5 22 5q19 0 19 -18q0 -12 -18 -25q-24 -18 -24 -40q0 -13 11 -33l50 -94l41 81q73 145 156 145q37 0 62 -22q42 -35 42 -97q0 -47 -24 -81q-34 -49 -83 -49q-29 0 -29 20q0 3 1 10
t1 10q0 24 -27 24q-26 0 -51 -43l-46 -76l139 -249q19 -33 33 -49q17 -20 47 -36q14 -8 14 -22q0 -20 -36 -20h-218z" />
    <glyph glyph-name="afii10041" unicode="&#x427;" horiz-adv-x="699" 
d="M456 259q-193 -73 -328 34q-53 41 -79 102q-12 33 -15 90q-1 34 -6 46q-2 5 -6.5 10l-10.5 12q-4 3 -6 6t-3 5q-9 24 33 58q31 23 64 37q50 20 94.5 20.5t86.5 -16.5q67 -28 92 -94q17 -41 6 -80q-15 -50 -59 -68q-28 -9 -52 -1q-29 8 -38 33q-10 23 13 32q12 4 24 -6
q20 -18 35 -12q16 6 20 25q3 16 -3 31q-11 28 -38.5 38.5t-56.5 -0.5q-18 -7 -30.5 -20t-19 -29.5t-6.5 -35.5q0 -18 7 -36q27 -69 109 -79q16 -2 38.5 -1.5t46 3.5t46.5 8.5t42 12.5v69q0 90 -7 114q-5 18 -33 45q-26 26 -26 31q0 20 20 20q8 0 15 -4q52 -23 98 -23
q44 0 95 19q16 6 21 6q18 0 18 -19q0 -12 -22 -27q-38 -26 -45 -72q-1 -7 -1.5 -29.5t-0.5 -60.5v-301q0 -50 3 -63q7 -33 38 -46q26 -12 26 -23q0 -20 -27 -20h-212q-27 0 -27 20q0 11 18 20q38 17 45 44q4 12 4 68v107z" />
    <glyph glyph-name="afii10044" unicode="&#x42a;" horiz-adv-x="807" 
d="M248 586q-34 14 -72 14q-62 0 -62 -37q0 -24 28 -24q2 0 6.5 0.5t7.5 0.5q13 0 13 -18q0 -15 -16 -30q-26 -26 -61 -26q-20 0 -36.5 8t-29 22t-19.5 31.5t-7 37.5q0 45 31 76q34 37 89 37q20 0 78 -11q32 -5 57 -8t45 -3q33 0 63 6q15 3 20 3q28 0 28 -31q0 -11 -16 -36
q-8 -15 -9 -27q-1 -9 -1.5 -24.5t-0.5 -38.5v-223q0 -65 9 -93q23 -74 103 -74q28 0 52 10t40.5 28t26 42t9.5 53q0 50 -24 83q-27 39 -74 39q-29 0 -49.5 -18.5t-20.5 -46.5q0 -19 12 -34q12 -17 30 -17q26 0 26 20q0 4 -5.5 12.5t-5.5 13.5q0 16 17 16q18 0 28 -16
q9 -14 9 -32q0 -28 -20.5 -45.5t-48.5 -17.5q-36 0 -61 25q-33 31 -33 81q0 40 23 72q43 58 128 58q74 0 127 -50q64 -61 64 -155q0 -113 -82 -180q-76 -64 -190 -64q-134 0 -228 84q-50 44 -50 69q0 14 13 18q31 10 40 32q5 15 5 53v257q0 58 -6 78z" />
    <glyph glyph-name="afii10045" unicode="&#x42b;" horiz-adv-x="904" 
d="M755 150q0 -55 4 -67q8 -29 45 -44q18 -8 18 -20q0 -19 -27 -19h-213q-28 0 -28 19q0 12 27 24q31 13 38 44q3 12 3 64v308q0 39 -0.5 61.5t-1.5 27.5q-7 46 -46 72q-22 15 -22 27q0 18 18 18q4 0 21 -5q54 -19 96 -19q45 0 99 23q6 3 14 3q21 0 21 -19q0 -13 -24 -28
q-33 -22 -41 -73q-1 -5 -1 -28v-60v-309zM245 662q-59 -21 -114 -21t-103 21q-9 4 -22 -4q-6 -5 -6 -16q0 -14 15 -18q37 -16 44 -37q7 -18 7 -80v-259q0 -39 -5 -54q-10 -22 -40 -32q-14 -5 -14 -18q0 -25 51 -70q96 -84 234 -84q113 0 193 65q84 69 84 180q0 95 -66 157
q-55 50 -129 50q-87 0 -130 -58q-24 -32 -24 -72q0 -50 32 -82q28 -26 63 -26q29 0 50 18t21 46q0 19 -10 32q-10 16 -28 16q-17 0 -17 -16q0 -5 5.5 -13.5t5.5 -12.5q0 -20 -26 -20q-19 0 -31.5 16t-12.5 35q0 29 22 48q22 17 50 17q48 0 75 -38q25 -34 25 -84
q0 -60 -36.5 -97t-94.5 -37q-82 0 -105 74q-9 31 -9 94v225q0 62 4 71q7 25 50 42q23 9 23 22q0 11 -6 16q-14 8 -25 4z" />
    <glyph glyph-name="afii10046" unicode="&#x42c;" horiz-adv-x="629" 
d="M241 664q9 4 24 -4q6 -5 6 -16q0 -12 -22 -22q-38 -15 -45 -30q-8 -13 -8 -82v-224q0 -66 9 -94q22 -73 102 -73q58 0 94 37.5t36 95.5q0 49 -25 83q-27 39 -74 39q-29 0 -49.5 -18.5t-20.5 -46.5q0 -19 12 -35t30 -16q26 0 26 20q0 4 -6 12.5t-6 13.5q0 16 18 16
q17 0 27 -16q10 -14 10 -33q0 -27 -21 -45t-48 -18q-36 0 -62 26q-32 32 -32 81q0 40 23 72q42 58 128 58q74 0 127 -50q65 -62 65 -155q0 -111 -82 -180q-79 -65 -191 -65q-135 0 -229 84q-50 44 -50 69q0 14 13 18q31 10 40 32q5 17 5 53v259q0 59 -6 79q-5 16 -18 23
q-5 3 -11.5 6l-14.5 7q-15 6 -15 19q0 11 6 16q13 8 21 4q49 -21 101 -21q53 0 113 21z" />
    <glyph glyph-name="afii10047" unicode="&#x42d;" horiz-adv-x="654" 
d="M48 77q-48 46 -48 118q0 76 61 115q50 32 130 32q33 0 38 -1q24 -5 24 -22q0 -14 -27 -27q-56 -29 -56 -76q0 -44 37 -74q34 -28 80 -28q36 0 77 23q79 46 93 168q-47 -2 -59 -8q-19 -9 -35 -28q-5 -5 -11.5 -14.5t-16.5 -22.5q-11 -14 -21 -14q-18 0 -18 20q0 6 5 18
q25 55 33 86q10 37 12 91q0 36 17 36q18 0 27 -40q12 -54 70 -63q-1 132 -80 200q-46 40 -100 40q-43 0 -71 -24q-31 -25 -31 -67q0 -24 12 -40q15 -18 38 -18q33 0 33 28q0 15 -17 27q-10 7 -10 13q0 21 27 21q22 0 36 -20q13 -17 13 -40q0 -35 -27 -60q-33 -30 -85 -30
q-69 0 -117 45q-47 47 -47 115q0 25 11 60q15 42 36 42q6 0 20 -8.5t27 -8.5t31 7q71 28 129 28q125 0 214 -104q80 -95 80 -234q0 -134 -73 -232q-84 -113 -238 -113q-135 0 -223 84z" />
    <glyph glyph-name="afii10048" unicode="&#x42e;" horiz-adv-x="928" 
d="M711 390q-6 64 -24 114q-40 106 -119 110q-96 4 -135 -147q-17 -65 -17 -137q0 -106 36 -190q39 -92 113 -92q49 0 83.5 40.5t51.5 115.5q-29 -10 -65 -10q-87 0 -131 59q-24 31 -24 73q0 50 33 82q27 27 63 27q29 0 50 -18t21 -47q0 -19 -10 -32q-11 -17 -28 -17
q-18 0 -18 17q0 5 6 13.5t6 12.5q0 21 -27 21q-18 0 -30.5 -16.5t-12.5 -35.5q0 -30 21 -48.5t51 -18.5q26 0 47 10.5t34.5 28t20 40t4.5 45.5zM565 673q124 1 204 -87q92 -103 92 -251q0 -142 -78 -239q-84 -106 -221 -106q-75 0 -139 39q-87 53 -127 160q-20 52 -25 113
h-70v-150q0 -56 4 -68q8 -29 44 -44q19 -9 19 -20q0 -20 -28 -20h-211q-27 0 -27 20q0 11 26 23q30 13 38 45q3 10 3 64v300q0 76 -3 90q-8 45 -45 72q-21 15 -21 27q0 18 18 18q4 0 21 -6q51 -18 94 -18q46 0 98 23q7 3 14 3q21 0 21 -19q0 -12 -23 -29q-35 -23 -41 -72
q-1 -6 -1 -29v-60v-83h70q6 77 41 146q80 156 253 158z" />
    <glyph glyph-name="afii10049" unicode="&#x42f;" horiz-adv-x="696" 
d="M266 296q-7 -1 -12 -1h-10q-77 0 -127 47q-52 48 -52 125q0 99 81 158q74 53 176 53q154 0 250 -106q32 -35 32 -52t-22 -23q-37 -10 -37 -69v-275q0 -26 0.5 -42.5t1.5 -21.5q7 -31 38 -46q26 -11 26 -23q0 -20 -27 -20h-210q-27 0 -27 20q0 12 18 20q37 16 45 45
q3 13 3 67v229q0 78 -12 107q-33 73 -112 73q-46 0 -79 -30t-33 -76q0 -44 32 -73q25 -24 62 -24q29 0 48 16q22 16 22 44q0 19 -12.5 32.5t-30.5 13.5q-25 0 -25 -19q0 -7 7.5 -14.5t7.5 -12.5q0 -15 -18 -15q-40 0 -40 43q0 28 21 45q20 17 48 17q41 0 68 -35
q25 -31 25 -74q0 -27 -17 -66q-10 -23 -51 -77l-29 -41t-29 -48q-37 -67 -37 -98q0 -18 25 -28q16 -7 16 -20q0 -21 -30 -21h-199q-41 0 -41 20q0 14 21 22q46 18 70 70l33 72q9 19 9 29q0 7 -4.5 19.5t-4.5 18.5q0 19 21 19q25 -3 32 -3q48 0 89 29z" />
    <glyph glyph-name="afii10069" unicode="&#x434;" horiz-adv-x="501" 
d="M414 -15q0 -46 -15.5 -85.5t-42.5 -68.5t-64.5 -45.5t-82.5 -16.5q-56 0 -99 27t-63 82q-12 33 -12 52q0 18 16 18q11 0 25 -23q8 -12 19 -24.5t24 -22.5t27 -16t29 -6q34 0 56.5 13t36 34t19 47.5t5.5 53.5v39q-38 -54 -96 -54q-75 0 -122 71q-41 62 -41 141
q0 37 9.5 71t29.5 69q61 109 165 109q19 0 46 -8q33 -11 33 -25t-16 -14q-3 0 -10 0.5t-11 0.5q-47 0 -80 -45q-20 -29 -30 -63.5t-10 -81.5q0 -72 36 -111q18 -19 43 -19q54 0 54 96v74v51q-4 20 -33 37q-10 6 -10 15q0 14 18 19q67 20 114 65q11 11 18 11q15 0 15 -26
v-441z" />
    <glyph glyph-name="afii10070" unicode="&#x435;" horiz-adv-x="451" 
d="M103 313q23 29 51 29q15 0 31 -8q17 -9 17 -24q0 -17 -13 -17q-6 0 -10 3q-13 7 -18 7q-22 0 -22 -29q0 -15 11 -26.5t27 -11.5q35 0 59 33q19 25 19 60q0 33 -16 53q-16 25 -48 25q-49 0 -74 -49q-4 -6 -7 -17t-7 -28zM105 222q8 -48 26 -72q37 -51 94 -51q62 0 104 52
q15 19 24 19q14 0 14 -19q0 -47 -42 -98q-53 -63 -134 -63q-59 0 -106 35q-44 33 -66 90q-19 48 -19 104q0 109 61 179q55 67 130 67q29 0 73 -14q26 -8 32 -7q3 1 7 1h8q5 0 13 1q20 2 31 -33q9 -26 9 -51q0 -86 -61 -141q-49 -44 -108 -44q-57 0 -90 45z" />
    <glyph glyph-name="afii10073" unicode="&#x437;" horiz-adv-x="472" 
d="M295 171q53 -25 79.5 -73t26.5 -113q0 -46 -15.5 -85.5t-42.5 -68.5t-64.5 -45.5t-82.5 -16.5q-56 0 -99 27t-63 82q-12 33 -12 52q0 18 16 18q11 0 25 -23q16 -25 43 -37t56 -12q30 0 56 13t44.5 34t29.5 47.5t11 53.5q0 43 -22 74.5t-70 31.5q-38 0 -38 -34
q0 -12 8.5 -21.5t20.5 -9.5q6 0 19 5l8 2q15 0 15 -17q0 -23 -20 -40q-25 -22 -56 -22q-21 0 -39.5 8.5t-32 22.5t-21 33t-7.5 40q0 22 10 49q12 34 29 34q1 0 9 -2q15 -5 20 -5q11 0 30.5 6t30.5 11q44 20 66 49.5t22 66.5q0 38 -23 63t-60 25q-27 0 -47 -17t-20 -43
q0 -38 36 -38q19 0 25 15q8 20 15 20q21 0 21 -32q0 -36 -28 -58q-26 -20 -63 -20q-56 0 -89 38q-32 37 -32 93q0 23 7 43q9 29 26 29q3 0 9 -0.5t9 -0.5q19 0 55 13q57 20 106 20q54 0 103 -29q70 -40 70 -115q0 -56 -32.5 -90.5t-77.5 -50.5z" />
    <glyph glyph-name="afii10075" unicode="&#x439;" horiz-adv-x="494" 
d="M338 612q12 0 12 -15q0 -26 -22 -51q-35 -38 -101 -38q-68 0 -101 38q-23 26 -23 51q0 15 13 15q5 0 10 -6q29 -29 102 -29q70 0 99 29q6 6 11 6zM306 330q-5 25 -27 35q-14 8 -14 17q0 14 18 16q62 10 109 46q11 8 19 8q13 0 13 -23v-331q0 -48 27 -64q16 -10 16 -19
q0 -15 -23 -15h-156q-23 0 -23 15q0 9 16 19q27 14 27 64v130q-4 -15 -20.5 -35t-38.5 -38t-46 -30.5t-44 -12.5v-14q0 -49 27 -64q16 -10 16 -19q0 -15 -23 -15h-157q-22 0 -22 15q0 9 16 19q24 14 26 64v18v165v49q-5 24 -28 35q-14 8 -14 17q0 14 18 16q64 10 109 46
q11 8 19 8q13 0 13 -23v-226q18 0 44.5 7.5t51 23.5t40 40t11.5 56z" />
    <glyph glyph-name="afii10076" unicode="&#x43a;" horiz-adv-x="494" 
d="M158 97q5 -51 27 -64q15 -9 15 -18q0 -15 -22 -15h-156q-22 0 -22 15q0 9 15 18q27 16 27 64v184q0 46 -5 61q-4 12 -24 23q-13 7 -13 17q0 13 17 16q65 10 109 45q10 9 19 9q13 0 13 -23v-332zM238 300q11 27 23 53.5t27 47.5t34 34.5t44 13.5q35 0 57 -22.5t22 -56.5
q0 -33 -21 -57.5t-53 -24.5q-16 0 -16 14q1 22 -18 22q-6 0 -16 -7t-20 -20t-18 -31.5t-11 -41.5q50 -17 71 -51q8 -13 33 -85q13 -38 41 -52q16 -7 16 -18q0 -18 -23 -18h-105q-31 0 -38 37q-22 126 -75 140q-24 6 -24 20q0 9 5.5 13.5l15 12.5t22 25t27.5 52z" />
    <glyph glyph-name="afii10077" unicode="&#x43b;" horiz-adv-x="472" 
d="M138 248q-20 -35 -30.5 -64.5t-11.5 -46.5q-2 -26 20 -26q10 0 16 13q6 14 12 14q20 0 32 -24q11 -21 10 -41q0 -18 -8 -33.5t-20.5 -26.5t-29 -17.5t-34.5 -6.5q-44 0 -73 35q-22 28 -21 64q2 34 22 73q1 2 17.5 30.5t54.5 79.5q44 53 44 74q0 3 -2 9q-7 2 -23 9
q-9 3 -6 14t45 31q5 2 15.5 9t27.5 20q32 23 36 23q6 0 14 -23l41 -132l74 -227q7 -19 55 -46q12 -8 12 -17q0 -15 -22 -15h-170h-20q-10 1 -10 14q0 8 23 25q15 10 12 21l-74 234z" />
    <glyph glyph-name="afii10078" unicode="&#x43c;" horiz-adv-x="670" 
d="M323 60q-2 -8 -6 -21q-9 -39 -46 -39q-24 0 -31 13q-3 3 -13 34l-73 221q-59 -90 -60 -132q-2 -26 21 -26q13 0 16 12q4 16 13 16q18 0 32 -24q11 -23 10 -41q-1 -38 -27 -61t-64 -23q-42 0 -69.5 27t-25.5 69q1 43 36 96q3 5 18 27l43 63q36 43 36 62q0 11 -35 23
q-9 3 -6 14t45 31q7 4 43 30q32 23 36 23q7 0 13 -24q14 -53 75 -236q8 18 15.5 37.5l15.5 39.5q17 43 17 62q0 7 -3 12q-4 3 -28 11q-8 3 -6 14q3 13 45 31q7 4 43 30q32 23 36 23q8 0 14 -24q20 -75 47 -160l62 -191q8 -22 55 -47q12 -8 12 -17q0 -15 -21 -15h-171h-20
q-10 3 -10 14q0 8 24 25q15 11 11 22l-61 189z" />
    <glyph glyph-name="afii10079" unicode="&#x43d;" horiz-adv-x="511" 
d="M308 291q0 13 -0.5 24t-1.5 15q-5 25 -27 35q-14 8 -14 17q0 14 18 16q62 10 109 46q11 8 19 8q13 0 13 -23v-331q0 -48 27 -64q16 -10 16 -19q0 -15 -23 -15h-156q-23 0 -23 15q0 9 16 19q25 13 27 64v38q0 17 -5.5 33.5t-15 30t-23.5 21.5t-31 8q-16 0 -27 -11.5
t-11 -26.5q0 -29 22 -29q5 0 18 7q4 3 10 3q13 0 13 -17q0 -15 -17 -24q-16 -8 -31 -8q-28 0 -51 29v-54q0 -49 27 -64q16 -10 16 -19q0 -15 -23 -15h-157q-22 0 -22 15q0 9 16 19q24 14 26 64v18v165v49q-5 24 -28 35q-14 8 -14 17q0 14 18 16q64 10 109 46q11 8 19 8
q13 0 13 -23v-186q33 45 92 45q11 0 28.5 -3t28.5 -11v17z" />
    <glyph glyph-name="afii10080" unicode="&#x43e;" horiz-adv-x="446" 
d="M98 398q11 0 11 -10q0 -5 -3 -12q-14 -44 -14 -84q0 -65 33 -117q37 -61 98 -61q40 0 66 36q21 31 21 75q0 35 -18 65q-21 38 -57 38q-26 0 -26 -27q0 -3 1.5 -8.5t1.5 -8.5q0 -11 -14 -11q-31 0 -54 29q-22 28 -22 59q0 38 24.5 63t62.5 25q75 0 126 -75q41 -62 41 -157
q0 -103 -56 -170q-50 -57 -122 -57q-83 0 -135 73q-42 60 -42 132q0 84 41 161q22 42 36 42z" />
    <glyph glyph-name="afii10082" unicode="&#x440;" horiz-adv-x="519" 
d="M169 141q25 42 63 42q40 0 40 -25q0 -15 -15 -15q-3 0 -8 0.5t-8 0.5q-15 0 -25 -12t-10 -28q0 -17 11 -33q13 -16 31 -16q46 0 67 55q16 38 16 93q0 85 -36 123q-24 24 -52 24q-74 0 -74 -135v-74v0zM169 370q22 40 42 55q30 24 75 24q80 0 125 -69q40 -59 40 -144
q0 -93 -47 -164q-52 -82 -141 -82q-57 0 -94 54v-110q4 -51 30 -62q19 -7 19 -18q0 -15 -22 -15h-163q-23 0 -23 15q0 3 17 20q18 17 21 31q2 11 3.5 36.5t1.5 67.5v270q0 45 -1 48q-4 23 -28 36q-13 7 -13 16q0 14 17 17q65 10 109 45q11 8 19 8q13 0 13 -23v-56v0z" />
    <glyph glyph-name="afii10083" unicode="&#x441;" horiz-adv-x="430" 
d="M208 449q23 0 61 -11q11 -4 17 -4q5 0 20 5q8 2 9 2q17 0 29 -34q10 -27 10 -49q0 -21 -8 -40t-21.5 -33t-31.5 -22.5t-39 -8.5q-31 0 -56 22q-20 17 -20 40q0 17 15 17l8 -2q13 -5 19 -5q12 0 20.5 9.5t8.5 21.5q0 34 -38 34q-46 0 -71 -48q-21 -39 -21 -88
q0 -60 30 -106q34 -52 91 -52q58 0 89 49q14 23 25 23q16 0 16 -18q0 -19 -12 -52q-40 -109 -152 -109q-48 0 -88 25q-97 58 -97 201q0 93 46 158q54 75 141 75z" />
    <glyph glyph-name="afii10085" unicode="&#x443;" horiz-adv-x="572" 
d="M326 102q-2 -70 -11.5 -127.5t-32.5 -104.5q-14 -28 -31 -47.5t-37 -34.5q-29 -18 -60 -19q-21 1 -38 8t-28 25q-8 14 -9.5 30.5t6.5 33.5q14 31 42 49q6 3 13 7t16 6q26 8 29 -3q2 1 3 -3t-1 -10l2 -4q4 -5 9 -5t14 5q17 10 28.5 39.5t20.5 77.5q-11 -4 -24 -6t-19 -2
q-43 0 -43 31q1 5 4 16.5t2 16.5q2 11 -6 23l-95 192q-12 25 -45 42q-30 16 -30 21q0 12 23 21l14.5 7.5l20.5 10.5q3 4 13.5 14t27.5 28q8 9 19 9q11 2 25 -27l118 -245h1q10 118 61 197q33 55 91 71q38 13 76 -11q32 -18 41.5 -51.5t-8.5 -65.5q-19 -31 -60 -37
q-23 -3 -30 2q-8 3 -4 9q3 22 -5 24q-32 19 -64 -34q-18 -30 -28 -79t-11 -100z" />
    <glyph glyph-name="afii10086" unicode="&#x444;" horiz-adv-x="870" 
d="M473 393q40 38 88 48.5t93 -2.5t82 -47.5t55 -85.5q35 -103 1 -189q-47 -116 -175 -116q-50 0 -78.5 23.5t-40 56t-8.5 67t15 57.5q32 58 88 77q53 19 100 -13q-17 41 -47 61t-62.5 20.5t-63 -18.5t-47.5 -56v-276v-87q0 -61 4 -77q5 -23 23 -34q16 -9 16 -18
q0 -15 -22 -15h-157q-23 0 -23 15q0 9 16 18q18 11 23 34q2 9 2.5 27t1.5 46v145q-39 -38 -87 -48.5t-93 2.5t-82.5 47.5t-55.5 86.5q-17 51 -18 98t17 91q26 63 69 89.5t106 26.5q50 0 78.5 -23.5t40 -56t8.5 -67t-15 -57.5q-32 -58 -88 -77q-53 -19 -100 13q17 -42 47 -62
t62 -20q33 0 63.5 19t47.5 57v378q0 46 -5 61q-4 12 -24 23q-13 7 -13 17q0 13 17 16q67 11 110 45q10 9 19 9q12 0 12 -23v-306zM724 184q-12 -35 -38 -44q-8 -3 -16 -3.5t-16 0.5q-19 3 -24 17q-6 17 7 21q3 2 10 0q14 -3 19 -1q21 8 12 35q-5 14 -19.5 21t-29.5 2
q-33 -10 -45 -50q-9 -32 2 -63t32 -45q24 -18 54 -8q34 13 47.5 46t4.5 72zM106 264q12 35 38 44q8 3 16 3.5t16 -0.5q19 -3 24 -17q6 -17 -7 -21q-3 -2 -10 0q-14 3 -19 1q-21 -8 -12 -35q5 -14 19.5 -21t29.5 -2q33 10 45 50q9 32 -2 63t-32 45q-24 18 -54 8
q-34 -13 -47.5 -46t-4.5 -72z" />
    <glyph glyph-name="afii10087" unicode="&#x445;" horiz-adv-x="506" 
d="M205 146q-9 -12 -20 -25t-20.5 -26l-16.5 -23t-7 -16q0 -7 20 -24q8 -6 8 -15q0 -17 -29 -17h-117q-23 0 -23 16q0 12 35 26q28 11 60.5 50t79.5 103l-75 121q-10 17 -24 25q-5 2 -13.5 4.5l-21.5 6.5q-10 1 -10 14q0 11 16 20q36 15 69 41q28 22 33 22q9 0 23 -23
l75 -126q11 27 23 53.5t27 47.5t34 34.5t44 13.5q35 0 57 -22.5t22 -56.5q0 -33 -21 -57.5t-53 -24.5q-16 0 -16 14q1 22 -18 22q-6 0 -12.5 -2.5t-14.5 -10.5t-18.5 -22.5t-24.5 -38.5l105 -171q19 -33 46 -47q12 -8 12 -17q0 -15 -21 -15h-170h-20q-10 3 -10 14q0 8 23 25
q10 7 10 21q0 13 -13 33z" />
    <glyph glyph-name="afii10088" unicode="&#x446;" horiz-adv-x="522" 
d="M399 -10q-49 2 -84 17t-42 36q-16 -16 -29 -26q-35 -27 -82 -27t-80 27q-40 34 -40 114v148q0 39 -2 49q-4 22 -28 35q-12 6 -12 16q0 14 17 17q66 11 109 45q11 8 19 8q12 0 12 -23v-271q0 -77 54 -77q45 0 58 52q4 15 4 51v98q0 46 -5 61q-4 12 -24 23q-13 7 -13 16
q0 14 17 17q66 11 109 45q11 8 19 8q13 0 13 -23v-329q0 -12 2.5 -21.5t11 -17t23.5 -14t40 -11.5q8 -2 11 -7.5t4 -10.5q6 -32 -4.5 -61t-32.5 -51.5t-52.5 -36t-62.5 -13.5q-31 0 -53 13q-31 18 -31 50q0 29 27 46q22 15 52 15q48 0 48 -19q0 -3 -3 -6t-3 -7q0 -11 15 -11
q14 0 19 18t-1 38z" />
    <glyph glyph-name="afii10089" unicode="&#x447;" horiz-adv-x="482" 
d="M277 165l-15 -14.5t-14 -11.5q-35 -28 -84 -28q-122 0 -122 144q0 3 0.5 10.5t1.5 19.5q1 16 0 29q-3 41 -31 54q-13 6 -13 16q0 14 18 17q64 10 109 46q11 8 20 8q13 0 13 -23v-153q0 -78 54 -78q46 0 59 52q4 12 4 52q0 28 -4 37q-4 15 -25 26q-14 8 -14 16q0 14 18 17
q65 10 110 46q11 8 19 8q13 0 13 -23v-260q0 -70 1 -74q3 -50 26 -64q17 -11 17 -19q0 -15 -23 -15h-147q-35 0 -30 23l19 15q20 15 20 32v95v0z" />
    <glyph glyph-name="afii10090" unicode="&#x448;" horiz-adv-x="715" 
d="M507 44l-14.5 -14.5t-13.5 -11.5q-35 -28 -83 -28t-80 28q-20 17 -29 36l-22.5 -20l-18.5 -16q-35 -28 -83 -28q-121 0 -121 142v148q0 47 -1 50q-5 23 -28 35q-13 6 -13 16q0 14 17 16q66 12 109 46q12 9 20 9q12 0 12 -23v-272q0 -78 54 -78q45 0 63 62v139q0 47 -1 50
q-5 23 -28 35q-13 6 -13 16q0 14 17 16q66 12 109 46q12 9 19 9q13 0 13 -23v-272q0 -78 54 -78q45 0 58 52q4 15 4 51v98q0 46 -1 49q-5 24 -27 36q-14 8 -14 16q0 14 17 16q67 12 110 46q10 9 19 9q13 0 13 -23v-331q0 -47 26 -64q17 -11 17 -18q0 -16 -23 -16h-107
q-30 0 -30 23v21v0z" />
    <glyph glyph-name="afii10091" unicode="&#x449;" horiz-adv-x="759" 
d="M630 -10q-49 2 -84 17t-42 36q-16 -18 -28 -27q-35 -28 -83 -28q-46 0 -80 28q-19 16 -28 36l-22.5 -20l-18.5 -16q-35 -28 -83 -28q-120 0 -120 142v147q0 46 -1 49q-5 23 -28 35q-13 7 -13 17q0 13 17 16q66 11 109 45q10 9 19 9q13 0 13 -23v-271q0 -77 53 -77
q45 0 63 61v139q0 46 -1 49q-5 23 -28 35q-13 7 -13 17q0 13 18 16q64 10 108 45q10 9 19 9q13 0 13 -23v-271q0 -77 53 -77q46 0 59 52q3 13 3 50v98q0 45 -1 49q-5 25 -27 35q-14 8 -14 17q0 13 18 16q64 10 108 45q10 9 19 9q13 0 13 -23v-328q0 -12 2.5 -21.5t11 -17
t23.5 -14t40 -11.5q8 -2 11 -7.5t4 -10.5q6 -32 -4.5 -61t-32.5 -51.5t-52.5 -36t-62.5 -13.5q-31 0 -53 13q-31 18 -31 50q0 29 27 46q22 15 52 15q48 0 48 -19q0 -3 -3 -6t-3 -7q0 -11 15 -11q14 0 19 18t-1 38z" />
    <glyph glyph-name="afii10092" unicode="&#x44a;" horiz-adv-x="583" 
d="M286 308q38 48 104 47q79 -2 114 -78q17 -40 17 -91q0 -73 -32 -117q-55 -79 -162 -79q-86 0 -145 56q-31 30 -31 52q0 2 10 21q11 22 11 36v139q0 13 -0.5 23t-1.5 18q-4 -2 -11 -6t-18 -11q-25 -13 -58 -13q-24 0 -51 11q-32 15 -32 37q0 2 8 24l23 58q8 20 22 20
q2 0 40 -24q37 -24 71 -24q36 0 62 20l24 19q8 7 16 7q23 0 20 -29v-116zM286 155q0 -37 3 -53q9 -44 47 -44q75 0 75 118q0 49 -32 81q-11 11 -32 11q-61 0 -61 -83v-30z" />
    <glyph glyph-name="afii10093" unicode="&#x44b;" horiz-adv-x="641" 
d="M155 182v-30q0 -36 3 -52q9 -43 48 -43q75 0 75 115q0 48 -32 80q-11 12 -33 12q-61 0 -61 -82zM384 243v58q0 30 -5 45q-8 23 -30 23q-10 0 -18 10t-8 19q0 8 8 18q26 29 76 29q60 0 80 -41q11 -24 11 -72v-199q0 -29 5 -44q8 -23 30 -23q13 0 30 11q8 7 13 7
q12 0 12 -13q0 -20 -25 -45q-36 -36 -88 -36q-60 0 -80 41q-11 24 -11 73v19q-7 -31 -25 -55q-56 -78 -162 -78q-79 0 -140 51q-36 28 -36 56q0 2 2 5q2 2 3.5 6t4.5 9q10 20 10 35l1 138q0 32 -3 41q-4 18 -26 29q-13 7 -13 16q0 14 17 17q65 11 107 44q11 8 19 8
q12 0 12 -22v-120q38 47 105 46q80 -2 114 -77q6 -13 10 -29z" />
    <glyph glyph-name="afii10094" unicode="&#x44c;" horiz-adv-x="446" 
d="M42 290q0 32 -3 41q-4 18 -26 29q-13 7 -13 16q0 14 17 17q65 11 107 44q11 8 19 8q12 0 12 -22v-120q38 47 105 46q80 -2 114 -77q17 -40 17 -89q0 -71 -32 -115q-56 -78 -162 -78q-88 0 -146 55q-30 28 -30 52q0 2 2 5q2 2 3.5 6t4.5 9q10 20 10 35l1 138v0zM155 152
q0 -36 3 -52q9 -43 48 -43q75 0 75 115q0 48 -32 80q-11 12 -33 12q-61 0 -61 -82v-30z" />
    <glyph glyph-name="afii10095" unicode="&#x44d;" horiz-adv-x="492" 
d="M425 149q-32 -83 -88 -118.5t-141 -35.5q-77 0 -133 32q-63 37 -63 86q0 42 34 67q22 16 59 16q53 0 86 -36q23 -28 23 -48q0 -14 -12 -14q-5 0 -13 7q-23 21 -52 21q-28 0 -28 -25q0 -24 37 -37q30 -11 56 -11q54 0 84 30q15 14 23 55q2 14 2.5 34t-1.5 45l-101 -29
q-42 32 -49 89q4 16 19 16q5 0 13 -3q32 -41 113 -36q-23 138 -87 138q-9 0 -24.5 -2t-29.5 -8q-15 -8 -15 -21q0 -10 15 -20q5 -3 5 -10q0 -11 -23 -19q-20 -5 -33 -5q-31 0 -53 18q-33 28 -33 76q0 17 7 35q9 23 21 23q1 0 11 -2q40 -15 62 -15q10 0 22.5 1.5l28.5 3.5
q20 4 32.5 5.5t18.5 2.5q49 3 89.5 -12.5t69 -46t44.5 -73t16 -93.5q0 -48 -12 -81z" />
    <glyph glyph-name="afii10096" unicode="&#x44e;" horiz-adv-x="656" 
d="M314 395q11 0 11 -11q0 -2 -2 -12q-15 -42 -15 -85q0 -65 33 -117q37 -60 98 -60q43 0 67 37q21 33 21 78q0 34 -18 66q-23 38 -57 38q-26 0 -26 -27q0 -2 2 -12q1 -2 1 -5q0 -11 -14 -11q-23 0 -49 23q-28 25 -28 60q0 42 24 67.5t64 25.5q75 0 126 -76q41 -62 41 -156
q0 -108 -56 -175q-49 -58 -122 -58q-83 0 -136 74q-42 58 -42 132q0 62 23 122q-11 -4 -19.5 -6t-15.5 -1q-18 1 -18 -21v-170q0 -49 -11 -73q-20 -42 -81 -42q-53 0 -89 37q-26 26 -26 46q0 13 12 13q6 0 14 -7q17 -11 30 -11q22 0 30 23q5 15 5 45v268q0 36 30 36
q24 0 37 -19q46 -61 94 -61q22 0 46 12q10 13 16 13z" />
    <glyph glyph-name="afii10097" unicode="&#x44f;" horiz-adv-x="482" 
d="M87 101q7 -25 32 -25q13 0 31 9q36 18 56 53q16 28 16 57q0 6 -1 9q-19 -25 -55 -25q-70 0 -117 59q-42 54 -42 127q0 8 0.5 14.5t1.5 11.5q14 76 58 74q17 -2 43 -10q28 -9 44 -9q10 0 26 1.5t39 5.5q24 3 45 3q110 0 130 -125v-226q10 -59 27 -67q19 -10 19 -22
q0 -15 -18 -15h-101q-30 0 -39 25q-11 33 -11 88v166q0 50 -15 71q-16 25 -64 27q-73 4 -85 -49q-1 -5 -1 -19q0 -83 73 -83q36 0 33 31q0 14 20 14q18 0 29 -23q9 -17 9 -36q0 -82 -30 -137q-36 -68 -109 -83q-5 -1 -10 -1.5t-12 -0.5q-46 0 -77.5 28.5t-31.5 74.5
q0 16 4 31q8 33 49 40q44 -11 44 -39q0 -15 -10 -25z" />
    <glyph glyph-name="afii10038" unicode="&#x424;" horiz-adv-x="878" 
d="M487 562q46 12 91 12q106 0 183 -71q78 -72 78 -179q0 -96 -65 -158q-54 -51 -114 -51q-86 0 -130 59q-24 31 -24 73q0 50 33 83q28 26 63 26q28 0 49.5 -18t21.5 -46q0 -20 -10 -33q-11 -17 -28 -17q-18 0 -18 17q0 5 6 13.5t6 12.5q0 21 -27 21q-19 0 -31 -17t-12 -35
q0 -29 21 -47.5t51 -18.5q43 0 69 41q23 38 23 83q0 147 -123 147q-71 0 -96 -54q-18 -39 -18 -128v-120q0 -70 8 -84q9 -15 46 -30q23 -11 23 -23q0 -20 -31 -20h-225q-31 0 -31 20q0 12 23 23q37 15 46 30q7 11 8 54q-45 -12 -92 -12q-106 0 -183 71q-78 72 -78 179
q0 96 65 158q54 51 114 51q63 0 106 -34q48 -38 48 -98q0 -50 -33 -83q-28 -26 -63 -26q-30 0 -49 18q-22 18 -22 46q0 20 10 33q11 17 29 17q17 0 17 -17q0 -5 -6 -13.5t-6 -12.5q0 -21 27 -21q17 0 31 17q12 16 12 35q0 29 -21 47.5t-51 18.5q-43 0 -69 -41
q-23 -38 -23 -83q0 -147 123 -147q70 0 96 54q18 39 18 128v62q0 39 -0.5 61.5t-1.5 28.5q-7 46 -46 72q-21 15 -21 28q0 18 17 18q4 0 21 -6q26 -10 51 -14.5t46 -4.5q47 0 97 24q7 3 14 3q21 0 21 -19q0 -13 -24 -29q-32 -22 -40 -74z" />
    <glyph glyph-name="afii10019" unicode="&#x412;" horiz-adv-x="640" 
d="M393 392q99 -13 146 -77q32 -46 32 -105q0 -106 -94 -167q-74 -48 -196 -48q-132 0 -232 51q-49 25 -49 49q0 14 17 25q22 15 28 30q5 15 5 43v330q0 45 -29 74q-17 17 -17 29q0 11 8 20.5t18 9.5q7 0 18 -4q39 -14 67 -14q30 0 81 16q76 24 135 24q72 0 125 -38
q57 -42 57 -114q0 -79 -67 -115q-19 -10 -53 -19zM180 198q0 -40 14 -65q29 -47 96 -47q61 0 95.5 36.5t34.5 97.5q0 69 -44 108q-28 23 -60 23q-26 0 -45 -15q-20 -15 -20 -41q0 -15 9 -28q10 -16 25 -16t22 19t16 19q27 0 27 -31q0 -24 -18.5 -38.5t-42.5 -14.5
q-42 0 -69 34q-22 26 -22 65q0 46 34 79q7 7 23 17.5l42 26.5q65 41 65 97q0 83 -82 83q-57 0 -83 -44q-17 -29 -17 -83v-282z" />
    <glyph glyph-name="afii10025" unicode="&#x417;" horiz-adv-x="622" 
d="M250 607q-54 0 -77.5 -17.5t-27 -39t7.5 -39t26 -17.5q25 0 35 28q6 17 16 17q15 0 15 -21q0 -33 -22 -56q-29 -30 -72 -30q-50 0 -82 31q-45 43 -45 110q0 17 8 41q5 14 11 23t14 9l6 -2t20.5 -4t21.5 -2q30 0 81 16q76 24 135 24q72 0 125 -38q57 -42 57 -114
q0 -79 -67 -115q-19 -10 -53 -19q99 -13 146 -77q32 -46 32 -105q1 -57 -20.5 -97.5t-58.5 -67t-85.5 -38.5t-100.5 -12q-45 0 -74 -8t-48 -24q-26 -23 -26 -54q0 -49 48 -49q23 0 49 22q12 9 18 9q18 0 18 -20q0 -28 -33 -59q-43 -43 -103 -43q-27 0 -50 9.5t-40 26
t-26.5 39t-9.5 49.5q0 45 18.5 76t63.5 60q25 15 58 21.5t67.5 11.5t67.5 11.5t59 23t41.5 45.5t15.5 78q0 69 -44 108q-28 23 -60 23q-26 0 -45 -15q-20 -15 -20 -41q0 -15 9 -28q10 -16 25 -16t22 19t16 19q27 0 27 -31q0 -24 -18.5 -38.5t-42.5 -14.5q-42 0 -69 34
q-22 26 -22 65q0 46 34 79q7 7 23 17.5l42 26.5q65 41 65 97q0 42 -26.5 62.5t-75.5 20.5z" />
    <glyph glyph-name="afii10029" unicode="&#x41b;" horiz-adv-x="633" 
d="M359 47q29 24 29 58q0 35 -20 93l-107 306q-5 -17 -25 -56.5t-55 -101.5q-59 -104 -59 -149q0 -24 10 -40q12 -21 32 -21q26 0 26 38q0 15 16 15q26 0 43 -30q12 -24 12 -55q0 -26 -9.5 -47.5t-26.5 -37.5t-39.5 -25t-48.5 -9q-30 0 -55.5 11t-43.5 30t-28 45.5t-10 56.5
q0 56 36 124q22 39 73 110q91 124 91 192q0 35 -26 64q-8 8 -16 13t-8 15q0 19 20 19q6 0 23 -6q51 -21 95 -21q43 0 108 24q7 3 12 3q21 0 21 -20q0 -8 -7.5 -14l-17.5 -14q-18 -17 -18 -42q0 -18 17 -71l123 -354q5 -14 12 -30l15 -35q8 -11 15 -19t21 -18q11 -8 13 -15
t2 -12q0 -21 -35 -21h-175q-27 0 -34 3q-14 5 -14 19q0 13 13 25z" />
    <glyph glyph-name="afii10057" unicode="&#x408;" horiz-adv-x="480" 
d="M236 456q0 76 -4 93q-12 47 -56 70q-23 14 -23 27q0 19 20 19q9 0 29 -7q54 -18 97 -18q47 0 98 22q12 5 17 5q21 0 21 -20q0 -8 -26 -31q-29 -23 -33 -45q-7 -24 -7 -115v-189q0 -61 24 -95q10 -14 10 -26q0 -31 -42 -79q-75 -84 -186 -84q-70 0 -119 34q-57 37 -57 105
q0 43 27 75q34 42 90 42q27 0 57 -14q35 -17 35 -42q0 -19 -17 -19q-4 0 -13.5 3t-14.5 3q-18 0 -29.5 -14t-11.5 -32q0 -22 15.5 -38.5t37.5 -16.5q35 0 51 34q10 20 10 75v278z" />
    <glyph glyph-name="afii10026" unicode="&#x418;" horiz-adv-x="677" 
d="M201 265q11 -4 30 -4q45 0 78 17t53 42.5t28 54t3 51.5q-7 26 -27 36t-43 7q-22 -6 -29 -21q-12 -23 7 -34q4 -2 14 0t15 0q16 -8 8 -23q-7 -16 -28 -19q-9 -2 -17.5 0t-16.5 6q-24 11 -32 39q-7 25 5 52q14 32 51 46q30 11 61 3q18 -4 32 -13q0 29 -2 39q-7 46 -46 72
q-21 15 -21 28q0 18 17 18q4 0 21 -6q51 -19 95 -19q49 0 99 24q7 3 14 3q21 0 21 -19q0 -13 -24 -29q-32 -22 -40 -74q-1 -5 -1.5 -27t-0.5 -61v-302q0 -56 4 -68q9 -27 45 -44q18 -9 18 -20q0 -20 -27 -20h-212q-27 0 -27 20q0 12 26 23q30 13 38 46q3 13 3 64v122
q-17 -24 -38.5 -47t-46.5 -42t-52 -32.5t-55 -19.5q0 -41 4 -50q7 -27 45 -44q19 -9 19 -20q0 -20 -28 -20h-212q-27 0 -27 20q0 12 26 23q30 13 38 46q3 10 3 64v301q0 39 -0.5 61.5t-1.5 28.5q-8 47 -46 72q-21 15 -21 28q0 18 18 18q3 0 20 -6q51 -19 96 -19q47 0 98 24
q7 3 14 3q21 0 21 -19q0 -14 -23 -29q-28 -19 -36 -44q-7 -27 -7 -118v-189z" />
    <glyph glyph-name="afii10059" unicode="&#x40a;" horiz-adv-x="947" 
d="M393 260q-26 43 -57.5 61t-74.5 18q-24 0 -42 -11.5t-18 -33.5q0 -15 9 -28q10 -16 25 -16t22 19t16 19q27 0 27 -31q0 -24 -18 -38.5t-43 -14.5q-19 0 -38 8v-60q0 -56 4 -68q7 -27 45 -44q19 -9 19 -20q0 -20 -28 -20h-212q-27 0 -27 20q0 12 26 23q30 13 38 46
q3 10 3 64v301q0 39 -0.5 61.5t-1.5 28.5q-8 47 -46 72q-21 15 -21 28q0 18 18 18q3 0 20 -6q51 -19 96 -19q47 0 98 24q7 3 14 3q21 0 21 -19q0 -14 -23 -29q-28 -19 -36 -44q-7 -27 -7 -118v-70q34 14 88 14h104v56q0 38 -0.5 60.5t-1.5 29.5q-7 46 -46 72q-21 15 -21 28
q0 18 17 18q4 0 21 -6q51 -19 95 -19q49 0 99 24q7 3 14 3q21 0 21 -19q0 -13 -24 -29q-32 -22 -40 -74q-1 -5 -1.5 -27t-0.5 -61v-172q0 -63 9 -94q23 -74 106 -74q58 0 94.5 37t36.5 97q0 50 -25 84q-27 38 -75 38q-28 0 -50 -17q-22 -19 -22 -48q0 -19 12.5 -35t31.5 -16
q26 0 26 20q0 4 -5.5 12.5t-5.5 13.5q0 16 17 16q18 0 28 -16q10 -13 10 -32q0 -28 -21 -46t-50 -18q-35 0 -63 26q-32 32 -32 82q0 40 24 72q43 58 130 58q74 0 129 -50q66 -62 66 -157q0 -111 -84 -180q-80 -65 -193 -65q-138 0 -234 84q-51 45 -51 70q0 13 14 18
q30 10 40 32q5 15 5 54v12z" />
    <glyph glyph-name="afii10058" unicode="&#x409;" horiz-adv-x="912" 
d="M175 618q-8 8 -16.5 13t-8.5 15q0 19 20 19q6 0 23 -6q51 -21 95 -21q43 0 108 24q7 3 12 3q21 0 21 -20q0 -8 -7 -13t-17 -15q-18 -18 -18 -42q0 -18 17 -71l114 -331q26 -74 95 -74q58 0 89.5 37t31.5 97q0 50 -25 84q-27 38 -75 38q-28 0 -50 -17q-22 -19 -22 -48
q0 -19 12.5 -35t31.5 -16q26 0 26 20q0 4 -5.5 12.5t-5.5 13.5q0 16 17 16q18 0 28 -16q10 -13 10 -32q0 -28 -21 -46t-50 -18q-35 0 -63 26q-32 32 -32 82q0 40 24 72q43 58 130 58q74 0 129 -50q66 -62 66 -157q0 -111 -84 -180q-40 -32 -83 -48.5t-100 -16.5
q-62 0 -119 21t-105 63q-51 45 -51 70q0 13 14 18q28 10 38 28q3 8 -1 21.5l-10 33.5l-96 274q-5 -17 -25 -56.5t-55 -101.5q-59 -104 -59 -149q0 -24 10 -40q12 -21 32 -21q26 0 26 38q0 15 16 15q26 0 43 -30q12 -24 12 -55q0 -26 -9.5 -47.5t-26.5 -37.5t-39.5 -25
t-48.5 -9q-30 0 -55.5 11t-43.5 30t-28 45.5t-10 56.5q0 56 36 124q22 39 73 110q91 124 91 192q0 33 -26 64z" />
    <glyph glyph-name="afii10033" unicode="&#x41f;" horiz-adv-x="651" 
d="M201 141q0 -47 6 -63q10 -26 48 -36q26 -6 26 -22q0 -20 -28 -20h-226q-27 0 -27 20q0 12 27 24q32 14 38 48q1 5 1.5 21t0.5 44v289q0 36 -5 53q-11 23 -40 32q-19 6 -19 18q0 29 70 78q80 56 190 56q75 0 150 -37q46 -21 66 -21q16 0 32 11q8 5 13 5q14 0 23 -30
q7 -21 7 -42q0 -51 -34 -88v-340q0 -44 7 -63q10 -26 48 -36q26 -6 26 -22q0 -20 -28 -20h-226q-27 0 -27 20q0 12 27 24q32 14 38 48q1 5 1.5 21t0.5 44v286q-22 8 -36 22q-19 19 -19 42q0 15 11 15q4 0 11 -2t11 -2q31 0 31 35q0 30 -28 48q-24 15 -55 15q-78 0 -102 -80
q-10 -34 -10 -119v-276v0z" />
    <glyph glyph-name="afii10017" unicode="&#x410;" horiz-adv-x="633" 
d="M261 504q-5 -17 -25 -56.5t-55 -101.5q-59 -104 -59 -149q0 -27 16.5 -44t45.5 -17q37 0 69 11t54.5 28.5t33 40t5.5 45.5q-7 26 -27 36t-43 7q-22 -6 -29 -21q-12 -23 7 -34q4 -2 14 0t15 0q16 -8 8 -23q-7 -16 -28 -19q-9 -2 -17.5 0t-16.5 6q-24 11 -32 39q-7 25 5 52
q14 32 51 46q30 11 61 3zM359 47q11 12 20 26.5t9 31.5q0 26 -11 65q-12 -35 -38.5 -68.5t-60.5 -59.5t-71 -41.5t-70 -15.5q-30 0 -55.5 11t-43.5 30t-28 45.5t-10 56.5q0 56 36 124q22 39 73 110q91 124 91 192q0 17 -6 33.5t-20 30.5q-8 8 -16 13t-8 15q0 19 20 19
q6 0 23 -6q51 -21 95 -21q43 0 108 24q7 3 12 3q21 0 21 -20q0 -8 -7.5 -14l-17.5 -14q-18 -17 -18 -42q0 -18 17 -71l123 -354l11 -30.5t16 -34.5q6 -11 15.5 -19l20.5 -18q11 -8 13 -15t2 -12q0 -21 -35 -21h-175q-27 0 -34 3q-14 5 -14 19q0 11 13 25z" />
    <glyph glyph-name="glyph234" horiz-adv-x="551" 
d="M350 153q0 87 -18 128q-13 27 -36 39.5t-49.5 13t-52 -9.5t-43.5 -29q-36 -39 -36 -108q0 -18 5.5 -40t17 -40.5t28 -31t39.5 -12.5q30 0 51 18.5t21 48.5q0 19 -12.5 35.5t-30.5 16.5q-27 0 -27 -21q0 -4 6 -12.5t6 -13.5q0 -17 -18 -17q-17 0 -28 17q-10 13 -10 32
q0 29 21 47t50 18q36 0 63 -27q33 -32 33 -82q0 -42 -24 -73q-44 -59 -131 -59q-44 0 -76.5 17t-54.5 45.5t-33 66.5t-11 80q0 71 23.5 121t62.5 80t89.5 41.5t103 6t103.5 -27t92 -57.5q51 -45 51 -71q0 -13 -14 -18q-31 -10 -40 -32q-5 -15 -5 -55v-51q0 -31 1.5 -41
t4.5 -20q5 -14 18 -23q7 -6 27 -14q15 -6 15 -19q0 -20 -28 -20h-125q-29 0 -29 22v131z" />
    <glyph glyph-name="afii10065" unicode="&#x430;" horiz-adv-x="453" 
d="M272 141v74q0 68 -18.5 106.5t-55.5 38.5q-26 0 -42.5 -11.5t-27 -30.5t-14.5 -43.5t-4 -51.5t4 -60t12 -53q21 -55 67 -55q18 0 31 16q11 16 11 33q0 16 -10 28t-25 12q-3 0 -8 -0.5t-8 -0.5q-15 0 -15 15q0 25 40 25q37 0 63 -42zM355 441q11 8 19 8q13 0 13 -23
q0 -1 -0.5 -11.5t-1 -25t-0.5 -30.5v-26v-163q0 -42 1.5 -67.5t3.5 -36.5q3 -14 21 -31q17 -17 17 -20q0 -15 -23 -15h-104q-29 0 -29 22v22q-38 -54 -94 -54q-45 0 -81 20t-60 62q-20 35 -28.5 76t-8.5 88q0 85 40 144q46 70 125 70q43 0 67.5 -8l42.5 -14t35 -5t45 18z
" />
    <glyph glyph-name="afii10066" unicode="&#x431;" horiz-adv-x="440" 
d="M165 438q-18 3 -35 9.5t-31.5 14t-25 15t-14.5 11.5q-38 36 -38 90q0 75 70 115q49 29 103 29q49 0 106 -20q36 -13 55 -13q3 0 9 0.5t9 0.5q17 0 26 -29q7 -20 7 -43q0 -56 -32 -93q-33 -38 -89 -38q-37 0 -63 20q-28 22 -28 58q0 32 21 32q7 0 15 -20q6 -15 25 -15
q36 0 36 38q0 26 -20 43t-47 17q-37 0 -60 -25t-23 -63q0 -37 22 -59.5t66 -45.5q38 -20 65 -45t41 -48q41 -62 41 -157q0 -103 -56 -170q-50 -57 -122 -57q-83 0 -135 73q-42 60 -42 132q0 84 41 161q22 42 36 42q11 0 11 -10q0 -5 -3 -12q-14 -44 -14 -84q0 -65 33 -117
q37 -61 98 -61q40 0 66 36q21 31 21 75q0 35 -18 65q-21 38 -57 38q-26 0 -26 -27q0 -3 1.5 -8.5t1.5 -8.5q0 -11 -14 -11q-31 0 -54 29q-22 28 -22 59q0 26 11.5 46t31.5 31z" />
    <glyph glyph-name="afii10067" unicode="&#x432;" horiz-adv-x="435" 
d="M364 93q0 -26 -9 -51q-11 -35 -31 -33q-8 0 -12.5 0.5t-8.5 0.5t-7 1q-6 1 -32 -7q-44 -14 -73 -14q-42 1 -77.5 19.5t-60.5 50.5t-39 75t-14 93q0 45 14 88t39.5 76t60.5 53t77 20q29 0 73 -14q26 -8 32 -7q3 1 7 1h8q5 0 13 1q20 2 31 -33q9 -26 9 -51q0 -82 -54 -135
q54 -53 54 -134zM255 329q0 30 -16 54t-48 24q-47 0 -74 -49q-13 -23 -16.5 -58t4.5 -67q33 45 90 45q22 0 43 -6q17 23 17 57zM103 142q6 -32 14 -45q25 -49 74 -49q32 0 48 24t16 54q0 17 -5.5 33.5t-16 30t-25 21.5t-31.5 8q-16 0 -27 -11.5t-11 -26.5q0 -29 22 -29
q5 0 18 7q4 3 10 3q13 0 13 -17q0 -15 -17 -24q-16 -8 -31 -8q-28 0 -51 29z" />
    <glyph glyph-name="afii10037" unicode="&#x423;" horiz-adv-x="699" 
d="M315 124q-7 -14 -9.5 -25t-2.5 -19t3 -16.5t13 -16.5q21 -20 21 -28q0 -19 -19 -19h-185q-19 0 -19 19q0 12 15 23q3 2 9 6.5t15 10.5q25 17 47.5 40t45.5 59l-170 406q-8 19 -24 33.5t-36 27.5q-14 9 -14 22q0 17 19 17q7 0 24 -6q48 -19 92 -19q41 0 93 20q15 5 22 5
q19 0 19 -18q0 -12 -18 -25q-21 -16 -23.5 -33t5.5 -40l81 -210l75 197q29 76 71.5 110.5t84.5 34.5q37 0 62 -22q42 -35 42 -97q0 -47 -24 -81q-34 -49 -83 -49q-29 0 -29 20q0 3 1 10t1 10q0 24 -27 24q-28 0 -47 -43z" />
    <glyph glyph-name="afii10040" unicode="&#x426;" horiz-adv-x="677" 
d="M474 44q-10 -2 -23.5 -7t-31.5 -13q-38 -19 -78.5 -28t-77.5 -9q-110 0 -190 56q-70 49 -70 78q0 12 19 18q31 9 42 32q5 17 5 53v230q0 39 -0.5 61.5t-1.5 28.5q-8 47 -46 72q-21 15 -21 28q0 18 18 18q3 0 20 -6q51 -19 96 -19q47 0 98 24q7 3 14 3q21 0 21 -19
q0 -14 -23 -29q-28 -19 -36 -44q-7 -27 -7 -118v-201q0 -85 10 -119q24 -80 102 -80q16 0 32.5 3.5t28.5 11.5q28 18 28 48q0 35 -31 35q-4 0 -11 -2t-11 -2q-11 0 -11 15q0 23 19 42q14 14 36 22v278q0 29 -2 39q-7 46 -46 72q-21 15 -21 28q0 18 17 18q4 0 21 -6
q51 -19 95 -19q49 0 99 24q7 3 14 3q21 0 21 -19q0 -13 -24 -29q-32 -22 -40 -74q-1 -5 -1.5 -27t-0.5 -61v-265q22 -23 35.5 -67t16.5 -92.5t-4.5 -93t-28.5 -69.5q-32 -39 -83 -39q-29 0 -52 17q-32 23 -32 57q0 14 8 28q7 16 22 16q4 0 16 -4.5t19 -4.5q20 0 28.5 11
t10 27.5t-1 35t-5.5 33.5z" />
    <glyph glyph-name="afii10145" unicode="&#x40f;" horiz-adv-x="677" 
d="M293 -10q-70 -4 -125 12t-95 44q-70 49 -70 78q0 12 19 18q31 9 42 32q5 17 5 53v227q0 39 -0.5 61.5t-1.5 28.5q-8 47 -46 72q-21 15 -21 28q0 18 18 18q3 0 20 -6q51 -19 96 -19q47 0 98 24q7 3 14 3q21 0 21 -19q0 -14 -23 -29q-28 -19 -36 -44q-7 -27 -7 -118v-198
q0 -85 10 -119q11 -35 32.5 -57t53.5 -22t53.5 22t32.5 57q10 34 10 119v249q0 29 -2 39q-7 46 -46 72q-21 15 -21 28q0 18 17 18q4 0 21 -6q51 -19 95 -19q49 0 99 24q7 3 14 3q21 0 21 -19q0 -13 -24 -29q-32 -22 -40 -74q-1 -5 -1.5 -27t-0.5 -61v-227q0 -36 5 -53
q11 -23 42 -32q19 -6 19 -18q0 -29 -70 -78q-61 -43 -137 -53q2 -10 3.5 -19t1.5 -18q0 -53 -30 -89q-32 -39 -83 -39q-29 0 -52 17q-32 23 -32 57q0 14 8 28q7 16 22 16q4 0 16 -4.5t19 -4.5q37 0 37 45q0 5 -1 8z" />
    <glyph glyph-name="afii10060" unicode="&#x40b;" horiz-adv-x="853" 
d="M763 152q0 -50 3 -63q7 -33 38 -46q26 -12 26 -23q0 -20 -27 -20h-212q-27 0 -27 20q0 11 18 20q38 17 45 44q4 12 4 68q0 63 -20.5 97t-54 45t-75.5 2t-85 -31v-124q0 -44 7 -63q10 -26 48 -36q26 -6 26 -22q0 -20 -28 -20h-226q-27 0 -27 20q0 12 27 24q32 14 38 48
q1 5 1.5 21t0.5 44v277q0 24 -0.5 55t-5.5 58.5t-18 46.5t-38 19q-19 0 -31 -11.5t-12 -31.5q0 -35 31 -35q4 0 11 2t11 2q11 0 11 -15q0 -23 -19 -42q-26 -26 -69 -26q-51 0 -89 32q-45 39 -45 98q0 21 7 42q9 30 23 30q5 0 13 -5q16 -11 32 -11q19 0 66 21q21 9 52 13
t68 4h137q37 0 69 -4.5t51 -12.5q46 -21 66 -21q16 0 32 11q8 5 13 5q14 0 23 -30q7 -21 7 -42q0 -59 -45 -98q-38 -32 -89 -32q-43 0 -69 26q-19 19 -19 42q0 15 11 15q4 0 11 -2t11 -2q31 0 31 35q0 20 -12 31.5t-31 11.5q-25 0 -38 -19t-18 -46.5t-5.5 -58.5t-0.5 -55
v-44q41 16 84 24.5t84 6.5t77 -15t63 -39t43 -66.5t16 -96.5v-52z" />
    <glyph glyph-name="afii10036" unicode="&#x422;" horiz-adv-x="704" 
d="M396 141q0 -44 7 -63q10 -26 48 -36q26 -6 26 -22q0 -20 -28 -20h-226q-27 0 -27 20q0 12 27 24q32 14 38 48q1 5 1.5 21t0.5 44v277q0 24 -0.5 55t-5.5 58.5t-18 46.5t-38 19q-19 0 -31 -11.5t-12 -31.5q0 -35 31 -35q4 0 11 2t11 2q11 0 11 -15q0 -23 -19 -42
q-26 -26 -69 -26q-51 0 -89 32q-45 39 -45 98q0 21 7 42q9 30 23 30q5 0 13 -5q16 -11 32 -11q19 0 66 21q21 9 52 13t68 4h137q37 0 69 -4.5t51 -12.5q46 -21 66 -21q16 0 32 11q8 5 13 5q14 0 23 -30q7 -21 7 -42q0 -59 -45 -98q-38 -32 -89 -32q-43 0 -69 26
q-19 19 -19 42q0 15 11 15q4 0 11 -2t11 -2q31 0 31 35q0 20 -12 31.5t-31 11.5q-25 0 -38 -19t-18 -46.5t-5.5 -58.5t-0.5 -55v-293z" />
    <glyph glyph-name="afii10042" unicode="&#x428;" horiz-adv-x="968" 
d="M839 192q34 -37 34 -88q0 -21 -7 -42q-9 -30 -23 -30q-5 0 -13 5q-16 11 -32 11q-20 0 -66 -21q-75 -37 -150 -37q-92 0 -164 40q-38 -20 -77.5 -30t-77.5 -10q-110 0 -190 56q-70 49 -70 78q0 12 19 18q29 9 40 32q5 17 5 53v227q0 39 -0.5 61.5t-1.5 28.5q-8 47 -46 72
q-21 15 -21 28q0 18 18 18q3 0 20 -6q51 -19 96 -19q47 0 98 24q7 3 14 3q21 0 21 -19q0 -14 -23 -29q-28 -19 -36 -44q-4 -14 -4.5 -43.5t-0.5 -74.5v-198q0 -85 10 -119q24 -80 102 -80q31 0 55 15q28 18 28 48q0 35 -31 35q-4 0 -11 -2t-11 -2q-11 0 -11 15q0 23 19 42
q14 14 36 22v275q0 29 -2 39q-7 46 -46 72q-21 15 -21 28q0 18 17 18q4 0 21 -6q51 -19 95 -19q49 0 99 24q7 3 14 3q21 0 21 -19q0 -13 -24 -29q-31 -21 -39 -74q-1 -5 -1.5 -27t-0.5 -61v-262q34 -37 34 -88v-13q29 -34 78 -34q31 0 55 15q28 18 28 48q0 35 -31 35
q-4 0 -11 -2t-11 -2q-11 0 -11 15q0 23 19 42q14 14 36 22v275q0 29 -2 39q-7 46 -46 72q-21 15 -21 28q0 18 17 18q4 0 21 -6q51 -19 95 -19q49 0 99 24q7 3 14 3q21 0 21 -19q0 -13 -24 -29q-31 -21 -39 -74q-1 -5 -1.5 -27t-0.5 -61v-262z" />
    <glyph glyph-name="afii10051" unicode="&#x402;" horiz-adv-x="902" 
d="M396 141q0 -44 7 -63q10 -26 48 -36q26 -6 26 -22q0 -20 -28 -20h-226q-27 0 -27 20q0 12 27 24q32 14 38 48q1 5 1.5 21t0.5 44v277q0 24 -0.5 55t-5.5 58.5t-18 46.5t-38 19q-19 0 -31 -11.5t-12 -31.5q0 -35 31 -35q4 0 11 2t11 2q11 0 11 -15q0 -23 -19 -42
q-26 -26 -69 -26q-51 0 -89 32q-45 39 -45 98q0 21 7 42q9 30 23 30q5 0 13 -5q16 -11 32 -11q19 0 66 21q21 9 52 13t68 4h137q37 0 69 -4.5t51 -12.5q46 -21 66 -21q16 0 32 11q8 5 13 5q14 0 23 -30q7 -21 7 -42q0 -59 -45 -98q-38 -32 -89 -32q-43 0 -69 26
q-19 19 -19 42q0 15 11 15q4 0 11 -2t11 -2q31 0 31 35q0 20 -12 31.5t-31 11.5q-25 0 -38 -19t-18 -46.5t-5.5 -58.5t-0.5 -55v-44q61 25 123 31.5t117 -7t98.5 -48t68.5 -92.5q12 -33 15 -90q1 -34 6 -46q2 -5 6.5 -10l10.5 -12q4 -3 6 -6t3 -5q9 -24 -33 -58
q-31 -23 -64 -37q-50 -20 -94.5 -20.5t-86.5 16.5q-67 28 -92 94q-17 41 -6 80q15 50 59 68q28 9 52 1q29 -8 38 -33q10 -23 -13 -32q-12 -5 -24 6q-20 18 -35 12q-16 -6 -20 -25q-3 -16 3 -31q11 -28 38.5 -38.5t56.5 0.5q18 7 30.5 20t19 29.5t6.5 34.5q0 19 -7 37
q-16 39 -48.5 54.5t-73 16t-83 -10.5t-77.5 -24v-124z" />
    <glyph glyph-name="afii10043" unicode="&#x429;" horiz-adv-x="968" 
d="M787 47q-10 -2 -23.5 -7t-31.5 -13q-75 -37 -150 -37q-92 0 -164 40q-38 -20 -77.5 -30t-77.5 -10q-110 0 -190 56q-70 49 -70 78q0 12 19 18q29 9 40 32q5 17 5 53v227q0 39 -0.5 61.5t-1.5 28.5q-8 47 -46 72q-21 15 -21 28q0 18 18 18q3 0 20 -6q51 -19 96 -19
q47 0 98 24q7 3 14 3q21 0 21 -19q0 -14 -23 -29q-28 -19 -36 -44q-4 -14 -4.5 -43.5t-0.5 -74.5v-198q0 -85 10 -119q24 -80 102 -80q31 0 55 15q28 18 28 48q0 35 -31 35q-4 0 -11 -2t-11 -2q-11 0 -11 15q0 23 19 42q14 14 36 22v275q0 29 -2 39q-7 46 -46 72
q-21 15 -21 28q0 18 17 18q4 0 21 -6q51 -19 95 -19q49 0 99 24q7 3 14 3q21 0 21 -19q0 -13 -24 -29q-31 -21 -39 -74q-1 -5 -1.5 -27t-0.5 -61v-262q34 -37 34 -88v-13q29 -34 78 -34q31 0 55 15q28 18 28 48q0 35 -31 35q-4 0 -11 -2t-11 -2q-11 0 -11 15q0 23 19 42
q14 14 36 22v275q0 29 -2 39q-7 46 -46 72q-21 15 -21 28q0 18 17 18q4 0 21 -6q51 -19 95 -19q49 0 99 24q7 3 14 3q21 0 21 -19q0 -13 -24 -29q-31 -21 -39 -74q-1 -5 -1.5 -27t-0.5 -61v-265q22 -23 35.5 -67t16.5 -92.5t-4.5 -93t-28.5 -69.5q-32 -39 -83 -39
q-29 0 -52 17q-32 23 -32 57q0 14 8 28q7 16 22 16q4 0 16 -4.5t19 -4.5q20 0 28 11.5t9.5 28.5t-1 36t-5.5 34z" />
    <glyph glyph-name="afii10081" unicode="&#x43f;" horiz-adv-x="509" 
d="M159 98q0 -49 27 -64q16 -10 16 -19q0 -15 -23 -15h-157q-22 0 -22 15q0 9 16 19q24 14 26 64v18v194q-5 24 -28 35q-14 8 -14 17q0 14 18 16q64 10 109 46q11 8 19 8h127q24 0 41 4t30.5 10.5t25 14.5t22.5 17q11 8 19 8q13 0 13 -23v-365q0 -48 27 -64q16 -10 16 -19
q0 -15 -23 -15h-156q-23 0 -23 15q0 9 16 19q25 13 27 64v18v263h-91q-26 0 -42 -18t-16 -43v-220z" />
    <glyph glyph-name="afii10074" unicode="&#x438;" horiz-adv-x="511" 
d="M306 330q-5 25 -27 35q-14 8 -14 17q0 14 18 16q62 10 109 46q11 8 19 8q13 0 13 -23v-331q0 -48 27 -64q16 -10 16 -19q0 -15 -23 -15h-156q-23 0 -23 15q0 9 16 19q27 14 27 64v130q-4 -15 -20.5 -35t-38.5 -38t-46 -30.5t-44 -12.5v-14q0 -49 27 -64q16 -10 16 -19
q0 -15 -23 -15h-157q-22 0 -22 15q0 9 16 19q24 14 26 64v18v165v49q-5 24 -28 35q-14 8 -14 17q0 14 18 16q64 10 109 46q11 8 19 8q13 0 13 -23v-226q18 0 44.5 7.5t51 23.5t40 40t11.5 56z" />
    <glyph glyph-name="afii10072" unicode="&#x436;" horiz-adv-x="754" 
d="M207 300q-11 27 -23.5 53.5t-27.5 47.5t-33.5 34.5t-43.5 13.5q-35 0 -57 -22.5t-22 -56.5q0 -33 21 -57.5t53 -24.5q16 0 16 14q-1 22 18 22q6 0 16 -7t20 -20t18 -31.5t11 -41.5q-50 -17 -71 -51q-8 -13 -33 -85q-13 -38 -41 -52q-16 -7 -16 -18q0 -18 23 -18h105
q31 0 38 37q22 126 75 140q24 6 24 20q0 9 -5.5 13.5l-15 12.5t-22 25t-27.5 52zM404 97q5 -51 27 -64q15 -9 15 -18q0 -15 -22 -15h-156q-22 0 -22 15q0 9 15 18q27 16 27 64v184q0 46 -5 61q-4 12 -24 23q-13 7 -13 17q0 13 17 16q65 10 109 45q10 9 19 9q13 0 13 -23
v-332zM484 300q11 27 23 53.5t27 47.5t34 34.5t44 13.5q35 0 57 -22.5t22 -56.5q0 -33 -21 -57.5t-53 -24.5q-16 0 -16 14q1 22 -18 22q-6 0 -16 -7t-20 -20t-18 -31.5t-11 -41.5q50 -17 71 -51q8 -13 33 -85q13 -38 41 -52q16 -7 16 -18q0 -18 -23 -18h-105q-31 0 -38 37
q-22 126 -75 140q-24 6 -24 20q0 9 5.5 13.5l15 12.5t22 25t27.5 52z" />
    <glyph glyph-name="afii10068" unicode="&#x433;" horiz-adv-x="438" 
d="M251 450q23 0 61 -11q11 -4 17 -4q5 0 20 5q8 2 9 2q17 0 29 -34q10 -27 10 -49q0 -21 -7.5 -40t-20 -33t-29 -22.5t-33.5 -8.5q-12 0 -25.5 4.5t-24.5 12.5t-18.5 19.5t-7.5 25.5q0 17 15 17q4 0 8 -2q18 -9 33 -2.5t15 28.5q0 15 -8.5 22.5t-21.5 11t-27 4t-25 0.5
q-26 0 -42 -18t-16 -43v-238q5 -51 27 -64q15 -9 15 -18q0 -15 -22 -15h-156q-22 0 -22 15q0 9 15 18q27 16 27 64v183q0 46 -5 61q-4 12 -24 23q-13 7 -13 16q0 14 17 17q66 11 109 45q11 8 19 8h102z" />
    <glyph glyph-name="afii10084" unicode="&#x442;" horiz-adv-x="562" 
d="M199 336q0 25 -16 43t-42 18q-16 0 -27.5 -11.5t-11.5 -27.5q0 -22 15 -28.5t33 2.5q4 2 8 2q15 0 15 -17q0 -14 -7.5 -25.5t-18.5 -19.5t-24.5 -12.5t-25.5 -4.5q-17 0 -33.5 8.5t-29 22.5t-20 33t-7.5 40q0 22 10 49q12 34 29 34q1 0 9 -2q15 -5 20 -5q6 0 17 4
q38 11 61 11h208q23 0 61 -11q11 -4 17 -4q5 0 20 5q8 2 9 2q17 0 29 -34q10 -27 10 -49q0 -21 -7.5 -40t-20 -33t-29 -22.5t-33.5 -8.5q-12 0 -25.5 4.5t-24.5 12.5t-18.5 19.5t-7.5 25.5q0 17 15 17q4 0 8 -2q18 -9 33 -2.5t15 28.5q0 16 -11.5 27.5t-27.5 11.5
q-26 0 -42 -18t-16 -43v-239q5 -51 27 -64q15 -9 15 -18q0 -15 -22 -15h-156q-22 0 -22 15q0 9 15 18q27 16 27 64v239z" />
    <glyph glyph-name="afii10193" unicode="&#x45f;" horiz-adv-x="493" 
d="M258 17q8 -32 -2.5 -61.5t-33 -52.5t-53.5 -36.5t-63 -13.5q-31 0 -53 13q-31 18 -31 50q0 29 27 46q22 15 52 15q48 0 48 -19q0 -3 -3 -6t-3 -7q0 -11 15 -11q14 0 19 18t-1 38q-47 0 -80 27q-40 34 -40 114v148q0 39 -2 49q-4 22 -28 35q-12 6 -12 16q0 14 17 17
q66 11 109 45q11 8 19 8q12 0 12 -23v-271q0 -77 54 -77q45 0 58 52q4 15 4 51v98q0 46 -5 61q-4 12 -24 23q-13 7 -13 16q0 14 17 17q66 11 109 45q11 8 19 8q13 0 13 -23v-329q0 -48 27 -64q15 -9 15 -18q0 -15 -22 -15h-107q-29 0 -29 22v21q-12 -18 -29 -26z" />
    <glyph glyph-name="afii10105" unicode="&#x458;" horiz-adv-x="271" 
d="M60 316q0 45 -1 48q-4 23 -28 36q-13 7 -13 16q0 14 17 17q66 11 109 45q11 8 19 8q12 0 12 -23v-445q0 -74 -25 -121q-37 -72 -124 -115q-25 -13 -39 -13t-14 14q0 6 9 14q78 73 78 231v288z" />
    <glyph glyph-name="afii10062" unicode="&#x40e;" horiz-adv-x="672" 
d="M438 816q12 0 12 -15q0 -26 -22 -51q-35 -38 -101 -38q-68 0 -101 38q-23 26 -23 51q0 15 13 15q5 0 10 -6q29 -29 102 -29q70 0 99 29q6 6 11 6zM315 124q-7 -14 -9.5 -25t-2.5 -19t3 -16.5t13 -16.5q21 -20 21 -28q0 -19 -19 -19h-185q-19 0 -19 19q0 12 15 23
q3 2 9 6.5t15 10.5q25 17 47.5 40t45.5 59l-170 406q-8 19 -24 33.5t-36 27.5q-14 9 -14 22q0 17 19 17q7 0 24 -6q48 -19 92 -19q41 0 93 20q15 5 22 5q19 0 19 -18q0 -12 -18 -25q-21 -16 -23.5 -33t5.5 -40l81 -210l75 197q29 76 71.5 110.5t84.5 34.5q37 0 62 -22
q42 -35 42 -97q0 -47 -24 -81q-34 -49 -83 -49q-29 0 -29 20q0 3 1 10t1 10q0 24 -27 24q-28 0 -47 -43z" />
    <glyph glyph-name="afii10110" unicode="&#x45e;" horiz-adv-x="572" 
d="M368 612q12 0 12 -15q0 -26 -22 -51q-35 -38 -101 -38q-68 0 -101 38q-23 26 -23 51q0 15 13 15q5 0 10 -6q29 -29 102 -29q70 0 99 29q6 6 11 6zM326 102q-2 -70 -11.5 -127.5t-32.5 -104.5q-14 -28 -31 -47.5t-37 -34.5q-29 -18 -60 -19q-21 1 -38 8t-28 25
q-8 14 -9.5 30.5t6.5 33.5q14 31 42 49q6 3 13 7t16 6q26 8 29 -3q2 1 3 -3t-1 -10l2 -4q4 -5 9 -5t14 5q17 10 28.5 39.5t20.5 77.5q-11 -4 -24 -6t-19 -2q-43 0 -43 31q1 5 4 16.5t2 16.5q2 11 -6 23l-95 192q-12 25 -45 42q-30 16 -30 21q0 12 23 21l14.5 7.5l20.5 10.5
q3 4 13.5 14t27.5 28q8 9 19 9q11 2 25 -27l118 -245h1q10 118 61 197q33 55 91 71q38 13 76 -11q32 -18 41.5 -51.5t-8.5 -65.5q-19 -31 -60 -37q-23 -3 -30 2q-8 3 -4 9q3 22 -5 24q-32 19 -64 -34q-18 -30 -28 -79t-11 -100z" />
    <glyph glyph-name="afii10054" unicode="&#x405;" horiz-adv-x="594" 
d="M268 680q45 0 119 -27q46 -17 64 -17q6 0 17.5 2t17.5 2q24 0 24 -25q0 -14 -28 -36q-46 -39 -71 -88q-12 -24 -30 -24q-16 0 -26 22q-29 72 -88 72q-29 0 -48.5 -18t-19.5 -46q0 -36 53 -60q7 -3 27.5 -9.5l55.5 -17.5q81 -24 117 -52q84 -60 84 -162q0 -103 -84 -161
q-74 -52 -181 -52q-99 0 -172 39q-92 48 -92 138q0 27 9.5 49.5t26.5 39t40 26t50 9.5q60 0 103 -43q33 -32 33 -59q0 -20 -18 -20q-6 0 -18 9q-26 22 -49 22q-48 0 -48 -49q0 -31 26 -54q38 -32 96 -32q55 0 95 31q42 34 42 88q0 60 -59 93q-16 8 -43.5 18.5t-68.5 21.5
q-90 26 -127 61q-47 45 -47 115q0 88 66 142q62 52 152 52z" />
    <glyph glyph-name="afii10102" unicode="&#x455;" horiz-adv-x="423" 
d="M182 449q28 0 77 -20q21 -9 34 -9q5 0 22 3q3 1 8 1q15 0 15 -17q0 -5 -17 -28q-18 -24 -22 -33t-7.5 -20.5t-5.5 -25.5q-3 -17 -16 -17q-10 0 -16 11q-10 21 -16 30q-23 32 -52 32q-15 0 -26 -11t-11 -26q0 -28 57 -47q70 -23 92 -37q58 -34 58 -103q0 -75 -67 -115
q-44 -27 -110 -27q-64 0 -110 27q-55 31 -55 90q0 41 29 65q20 16 51 16q43 0 64 -31q11 -17 11 -29t-11 -12q-4 0 -12 3t-12 3q-26 0 -26 -27q0 -21 25 -33q19 -10 42 -10q30 0 49.5 16.5t19.5 45.5q0 28 -27 45q-12 7 -51 21q-72 25 -97 50q-31 32 -31 82q0 61 42 99
q41 38 102 38z" />
    <glyph glyph-name="afii10103" unicode="&#x456;" horiz-adv-x="267" 
d="M115 599q25 0 42.5 -18t17.5 -43q0 -26 -17.5 -44t-43.5 -18t-43.5 18t-17.5 44t18 43.5t44 17.5zM36 0q-22 0 -22 15q0 9 15 18q27 16 27 64v182q0 46 -5 61q-4 12 -24 23q-13 7 -13 16q0 14 17 17q66 11 109 45q11 8 19 8q13 0 13 -23v-329q5 -51 27 -64q15 -9 15 -18
q0 -15 -22 -15h-156z" />
    <glyph glyph-name="afii10055" unicode="&#x406;" horiz-adv-x="372" 
d="M219 153q0 -56 4 -68q7 -29 45 -45q19 -7 19 -20q0 -20 -28 -20h-213q-27 0 -27 20q0 12 26 23q30 13 38 46q3 13 3 64v303q0 38 -0.5 60t-1.5 30q-7 46 -45 73q-22 15 -22 27q0 19 18 19q4 0 21 -6q51 -19 95 -19q47 0 99 23q7 4 14 4q21 0 21 -20q0 -12 -23 -29
q-33 -22 -41 -74q-1 -5 -1.5 -27t-0.5 -61v-303z" />
    <glyph glyph-name="afii10104" unicode="&#x457;" horiz-adv-x="295" 
d="M189 588q23 0 38.5 -16t15.5 -39t-15.5 -38.5t-38.5 -15.5t-39 15.5t-16 38.5t16 39t39 16zM40 588q22 0 38 -16t16 -39t-16 -38.5t-39 -15.5t-38.5 15.5t-15.5 38.5t16 39t39 16zM36 0q-22 0 -22 15q0 9 15 18q27 16 27 64v182q0 46 -5 61q-4 12 -24 23q-13 7 -13 16
q0 14 17 17q66 11 109 45q11 8 19 8q13 0 13 -23v-256v-73q5 -51 27 -64q15 -9 15 -18q0 -15 -22 -15h-156z" />
    <glyph glyph-name="afii10056" unicode="&#x407;" horiz-adv-x="372" 
d="M237 816q22 0 38 -16t16 -39t-16 -38.5t-39 -15.5t-39 15.5t-16 38.5t16.5 39t39.5 16zM67 816q23 0 38.5 -16t15.5 -39t-15.5 -38.5t-38.5 -15.5t-39 15.5t-16 38.5t16 39t39 16zM219 153q0 -56 4 -68q7 -29 45 -45q19 -7 19 -20q0 -20 -28 -20h-213q-27 0 -27 20
q0 12 26 23q30 13 38 46q3 13 3 64v303q0 38 -0.5 60t-1.5 30q-7 46 -45 73q-22 15 -22 27q0 19 18 19q4 0 21 -6q51 -19 95 -19q47 0 99 23q7 4 14 4q21 0 21 -20q0 -12 -23 -29q-33 -22 -41 -74q-1 -5 -1.5 -27t-0.5 -61v-303z" />
    <glyph glyph-name="afii10023" unicode="&#x401;" horiz-adv-x="637" 
d="M347 816q22 0 38 -16t16 -39t-16 -38.5t-39 -15.5t-39 15.5t-16 38.5t16.5 39t39.5 16zM177 816q23 0 38.5 -16t15.5 -39t-15.5 -38.5t-38.5 -15.5t-39 15.5t-16 38.5t16 39t39 16zM228 341q48 -2 62 -62q9 -40 27 -40q17 0 18 37q0 53 11 92q6 23 2.5 33.5t-14 12
t-26.5 -2t-34.5 -8t-38 -6.5t-37.5 3v11q0 91 13 127q25 69 98 69q31 0 54 -15q27 -17 27 -47q0 -35 -31 -35q-4 0 -11 2.5t-10 2.5q-11 0 -11 -15q0 -16 8 -28.5t20.5 -21t28 -13t30.5 -4.5q49 0 87 32q45 37 45 96q0 20 -7 41q-9 30 -23 30q-5 0 -12 -6q-14 -10 -32 -10
t-45 12q-98 45 -168 45q-108 0 -187 -55q-69 -50 -69 -77q0 -12 17 -17q31 -7 40 -31q6 -15 6 -54v-215q0 -39 -6 -54q-9 -24 -40 -31q-17 -5 -17 -17q0 -28 69 -77q79 -55 187 -55q70 0 168 45q27 12 45 12t32 -10q7 -6 12 -6q14 0 23 30q7 21 7 41q0 58 -45 96
q-38 32 -87 32q-43 0 -68 -25q-19 -19 -19 -42q0 -15 11 -15q3 0 10 2.5t11 2.5q31 0 31 -35q0 -31 -27 -47q-23 -15 -54 -15q-73 0 -98 69q-13 36 -13 127v89h30z" />
    <glyph glyph-name="afii10071" unicode="&#x451;" horiz-adv-x="451" 
d="M265 612q23 0 38.5 -16t15.5 -39t-15.5 -38.5t-38.5 -15.5t-39 15.5t-16 38.5t16 39t39 16zM116 612q22 0 38 -16t16 -39t-16 -38.5t-39 -15.5t-38.5 15.5t-15.5 38.5t16 39t39 16zM103 313q23 29 51 29q15 0 31 -8q17 -9 17 -24q0 -17 -13 -17q-6 0 -10 3q-13 7 -18 7
q-22 0 -22 -29q0 -15 11 -26.5t27 -11.5q35 0 59 33q19 25 19 60q0 33 -16 53q-16 25 -48 25q-49 0 -74 -49q-4 -6 -7 -17t-7 -28zM105 222q8 -48 26 -72q37 -51 94 -51q62 0 104 52q15 19 24 19q14 0 14 -19q0 -47 -42 -98q-53 -63 -134 -63q-59 0 -106 35q-44 33 -66 90
q-19 48 -19 104q0 109 61 179q55 67 130 67q29 0 73 -14q26 -8 32 -7q3 1 7 1h8q5 0 13 1q20 2 31 -33q9 -26 9 -51q0 -86 -61 -141q-49 -44 -108 -44q-57 0 -90 45z" />
    <glyph glyph-name="afii10053" unicode="&#x404;" horiz-adv-x="654" 
d="M534 77q-89 -84 -223 -84q-154 0 -238 113q-73 98 -73 232q0 139 80 234q89 104 214 104q58 0 129 -28q18 -7 31 -7t27 8.5t20 8.5q21 0 36 -42q11 -35 11 -60q0 -68 -47 -115q-48 -45 -117 -45q-52 0 -85 30q-27 25 -27 60q0 23 13 40q14 20 36 20q27 0 27 -21
q0 -6 -10 -13q-17 -12 -17 -27q0 -28 33 -28q23 0 38 18q12 16 12 40q0 42 -31 67q-29 24 -71 24q-54 0 -100 -40q-79 -68 -80 -200q58 9 70 63q9 40 27 40q17 0 17 -36q2 -54 12 -91q8 -31 33 -86q5 -12 5 -18q0 -20 -18 -20q-10 0 -21 14q-10 13 -16.5 22.5t-11.5 14.5
q-16 19 -35 28q-12 6 -59 8q13 -122 93 -168q41 -23 77 -23q46 0 80 28q37 30 37 74q0 47 -56 76q-27 13 -27 27q0 17 24 22q5 1 38 1q80 0 130 -32q61 -39 61 -115q0 -72 -48 -118z" />
    <glyph glyph-name="afii10101" unicode="&#x454;" horiz-adv-x="493" 
d="M12 149q-12 33 -12 81q0 51 16 93.5t44.5 73t69 46t89.5 12.5q6 -1 18.5 -2.5t32.5 -5.5l28.5 -3.5t22.5 -1.5q21 0 62 15q10 2 11 2q12 0 21 -23q7 -18 7 -35q0 -48 -33 -76q-23 -18 -53 -18q-13 0 -33 5q-23 8 -23 19q0 7 5 10q15 10 15 20q0 13 -15 21q-14 6 -25.5 8
t-28.5 2q-65 0 -87 -138q81 -5 113 36q7 3 13 3q15 0 19 -16q-7 -57 -49 -89l-101 29q-2 -25 -1.5 -45t2.5 -34q8 -45 34 -65t73 -20q26 0 56 11q37 13 37 37q0 25 -28 25q-30 0 -52 -21q-8 -7 -13 -7q-12 0 -12 14q0 20 23 48q33 36 86 36q37 0 59 -16q34 -25 34 -67
q0 -49 -63 -86q-56 -32 -133 -32q-85 0 -141 35.5t-88 118.5z" />
    <glyph glyph-name="afii10106" unicode="&#x459;" horiz-adv-x="596" 
d="M385 0q-38 0 -68.5 13t-54.5 35.5t-40.5 52t-24.5 62.5l-31 131l-28 -46q-20 -35 -30.5 -64.5t-11.5 -46.5q-2 -26 20 -26q10 0 16 13q6 14 12 14q20 0 32 -24q11 -21 10 -41q0 -18 -8 -33.5t-20.5 -26.5t-29 -17.5t-34.5 -6.5q-44 0 -73 35q-22 28 -21 64q2 34 22 73
q1 2 17 30.5t55 79.5q44 53 44 74q0 3 -2 9q-7 2 -23 9q-9 3 -6 14t45 31q5 2 15.5 9t27.5 20q32 23 36 23q6 0 14 -23l51 -194q17 25 47 39t63.5 15.5t65.5 -11.5t55 -42q24 -31 28.5 -73t-12.5 -80t-56 -64.5t-102 -26.5zM327 152q4 -17 7 -28t7 -17q25 -49 74 -49
q32 0 48 23t16 55q0 42 -21.5 67.5t-56.5 25.5q-16 0 -27 -11.5t-11 -26.5q0 -29 22 -29q5 0 18 7q4 3 10 3q13 0 13 -17q0 -15 -17 -24q-16 -8 -31 -8q-28 0 -51 29z" />
    <glyph glyph-name="afii10107" unicode="&#x45a;" horiz-adv-x="692" 
d="M424 152q4 -17 7 -28t7 -17q25 -49 74 -49q32 0 48 23t16 55q0 42 -21.5 67.5t-56.5 25.5q-16 0 -27 -11.5t-11 -26.5q0 -29 22 -29q5 0 18 7q4 3 10 3q13 0 13 -17q0 -15 -17 -24q-16 -8 -31 -8q-28 0 -51 29zM424 273q21 14 48 20t55 3t53.5 -15.5t43.5 -36.5
q24 -31 28.5 -73t-12.5 -80t-56 -64.5t-102 -26.5h-194q-23 0 -23 15q0 9 16 19q25 13 27 64v38q0 17 -5.5 33.5t-15 30t-23.5 21.5t-31 8q-16 0 -27 -11.5t-11 -26.5q0 -29 22 -29q5 0 18 7q4 3 10 3q13 0 13 -17q0 -15 -17 -24q-16 -8 -31 -8q-28 0 -51 29v-54
q0 -49 27 -64q16 -10 16 -19q0 -15 -23 -15h-157q-22 0 -22 15q0 9 16 19q24 14 26 64v232q-5 24 -28 35q-14 8 -14 17q0 14 18 16q64 10 109 46q11 8 19 8q13 0 13 -23v-186q33 45 92 45q11 0 28.5 -3t28.5 -11v17q0 13 -0.5 24t-1.5 15q-5 25 -27 35q-14 8 -14 17
q0 14 18 16q62 10 109 46q11 8 19 8q13 0 13 -23v-156z" />
    <glyph glyph-name="afii10108" unicode="&#x45b;" horiz-adv-x="488" 
d="M169 395q49 54 111 54q122 0 122 -144v-208q5 -51 27 -64q15 -9 15 -18q0 -15 -22 -15h-156q-22 0 -22 15q0 9 15 18q27 16 27 64v189q0 76 -54 76q-63 0 -63 -85v-107v-73q5 -51 27 -64q15 -9 15 -18q0 -15 -22 -15h-156q-22 0 -22 15q0 9 15 18q27 16 27 64v424
q0 46 -5 61q-4 12 -24 23q-13 7 -13 17q0 13 17 16q65 10 109 45q10 9 19 9h102q23 0 61 -11q11 -4 17 -4q5 0 20 5q8 2 9 2q17 0 29 -34q10 -27 10 -49q0 -21 -7.5 -40t-20 -33t-29 -22.5t-33.5 -8.5q-12 0 -25.5 4.5t-24.5 12.5t-18.5 19.5t-7.5 25.5q0 17 15 17q4 0 8 -2
q18 -9 33 -2.5t15 28.5q0 15 -10 23t-23.5 11t-27.5 3.5t-21 0.5q-26 0 -42 -18t-16 -43v-182z" />
    <glyph glyph-name="afii10099" unicode="&#x452;" horiz-adv-x="475" 
d="M169 395q49 54 111 54q122 0 122 -144v-287q0 -72 -26 -121q-37 -72 -124 -115q-25 -13 -39 -13t-14 14q0 6 9 14q78 73 78 231v258q0 76 -54 76q-63 0 -63 -85v-107v-73q5 -51 27 -64q15 -9 15 -18q0 -15 -22 -15h-156q-22 0 -22 15q0 9 15 18q27 16 27 64v424
q0 46 -5 61q-4 12 -24 23q-13 7 -13 17q0 13 17 16q65 10 109 45q10 9 19 9h102q23 0 61 -11q11 -4 17 -4q5 0 20 5q8 2 9 2q17 0 29 -34q10 -27 10 -49q0 -21 -7.5 -40t-20 -33t-29 -22.5t-33.5 -8.5q-12 0 -25.5 4.5t-24.5 12.5t-18.5 19.5t-7.5 25.5q0 17 15 17q4 0 8 -2
q18 -9 33 -2.5t15 28.5q0 15 -8.5 22.5t-21.5 11t-27 4t-25 0.5q-26 0 -42 -18t-16 -43v-182z" />
    <glyph glyph-name="afii10061" unicode="&#x40c;" horiz-adv-x="697" 
d="M419 816q23 0 23 -12q0 -8 -9 -18l-71 -88q-11 -11 -20 -11q-15 0 -15 12q0 2 0.5 5.5t1.5 9.5l16 81q4 21 29 21h45zM249 0q28 0 28 20q0 13 -19 20q-37 16 -46 45q-4 12 -4 68v119q0 67 43 67q42 0 61 -46l77 -184q13 -29 13 -38q0 -20 -28 -33q-15 -8 -15 -19
q0 -19 29 -19h224q26 0 26 18q0 15 -26 27q-44 20 -57 50l-73 175q-11 28 -11 36q0 10 6.5 23.5t6.5 17.5q0 25 -52 44q-62 24 -109 24h-13t-12 -1q14 23 36 55.5t47 61.5q15 17 31.5 25t29.5 8q14 0 23.5 -9.5t6.5 -23.5q-5 -12 -19 -16q-15 -5 -17 -13q-5 -18 18 -36
q32 -23 68 -23q26 0 51 14q53 32 53 99q0 30 -17 59q-35 59 -114 59q-21 0 -44 -6.5t-46 -19t-44 -31.5t-37 -44l-51.5 -80.5l-64.5 -102.5v67q0 38 0.5 60t1.5 27q7 51 39 74q27 18 27 31q0 19 -21 19q-8 0 -15 -3q-53 -24 -101 -24q-49 0 -101 24q-8 3 -15 3
q-21 0 -21 -19q0 -11 26 -31q30 -24 34 -46q8 -30 8 -115v-304q0 -56 -4 -68q-9 -29 -46 -45q-19 -7 -19 -20q0 -20 28 -20h220z" />
    <glyph glyph-name="afii10109" unicode="&#x45c;" horiz-adv-x="494" 
d="M305 612q23 0 23 -12q0 -8 -9 -18l-71 -88q-11 -11 -20 -11q-15 0 -15 12q0 2 0.5 5.5t1.5 9.5l16 81q4 21 29 21h45zM158 97q5 -51 27 -64q15 -9 15 -18q0 -15 -22 -15h-156q-22 0 -22 15q0 9 15 18q27 16 27 64v184q0 46 -5 61q-4 12 -24 23q-13 7 -13 17q0 13 17 16
q65 10 109 45q10 9 19 9q13 0 13 -23v-332zM238 300q11 27 23 53.5t27 47.5t34 34.5t44 13.5q35 0 57 -22.5t22 -56.5q0 -33 -21 -57.5t-53 -24.5q-16 0 -16 14q1 22 -18 22q-6 0 -16 -7t-20 -20t-18 -31.5t-11 -41.5q50 -17 71 -51q8 -13 33 -85q13 -38 41 -52
q16 -7 16 -18q0 -18 -23 -18h-105q-31 0 -38 37q-22 126 -75 140q-24 6 -24 20q0 9 5.5 13.5l15 12.5t22 25t27.5 52z" />
    <glyph glyph-name="afii10052" unicode="&#x403;" horiz-adv-x="591" 
d="M479 816q23 0 23 -12q0 -8 -9 -18l-71 -88q-11 -11 -20 -11q-15 0 -15 12q0 2 0.5 5.5t1.5 9.5l16 81q4 21 29 21h45zM201 141q0 -47 6 -63q10 -26 48 -36q26 -6 26 -22q0 -20 -28 -20h-226q-27 0 -27 20q0 12 27 24q32 14 38 48q1 5 1.5 21t0.5 44v289q0 36 -5 53
q-11 23 -40 32q-19 6 -19 18q0 29 70 78q80 56 190 56q75 0 150 -37q46 -21 66 -21q16 0 32 11q8 5 13 5q14 0 23 -30q7 -21 7 -42q0 -59 -45 -98q-38 -32 -89 -32q-43 0 -69 26q-19 19 -19 42q0 15 11 15q4 0 11 -2t11 -2q31 0 31 35q0 30 -28 48q-24 15 -55 15
q-78 0 -102 -80q-10 -34 -10 -119v-276v0z" />
    <glyph glyph-name="afii10100" unicode="&#x453;" horiz-adv-x="435" 
d="M251 450q23 0 61 -11q11 -4 17 -4q5 0 20 5q8 2 9 2q17 0 29 -34q10 -27 10 -49q0 -21 -7.5 -40t-20 -33t-29 -22.5t-33.5 -8.5q-12 0 -25.5 4.5t-24.5 12.5t-18.5 19.5t-7.5 25.5q0 17 15 17q4 0 8 -2q18 -9 33 -2.5t15 28.5q0 15 -8.5 22.5t-21.5 11t-27 4t-25 0.5
q-26 0 -42 -18t-16 -43v-238q5 -51 27 -64q15 -9 15 -18q0 -15 -22 -15h-156q-22 0 -22 15q0 9 15 18q27 16 27 64v183q0 46 -5 61q-4 12 -24 23q-13 7 -13 16q0 14 17 17q66 11 109 45q11 8 19 8h102zM275 612q23 0 23 -12q0 -8 -9 -18l-71 -88q-11 -11 -20 -11
q-15 0 -15 12q0 2 0.5 5.5t1.5 9.5l16 81q4 21 29 21h45z" />
    <glyph glyph-name="afii10050" unicode="&#x490;" horiz-adv-x="583" 
d="M381 683q6 0 10.5 3.5t4.5 11.5q0 10 -7.5 17.5t-23.5 7.5q-4 0 -11 -2t-11 -2q-11 0 -11 15q0 23 19 42q26 26 69 26q51 0 89 -32q45 -39 45 -98q0 -21 -7 -42q-9 -30 -23 -30q-5 0 -13 5q-16 11 -32 11h-166q-78 0 -102 -80q-10 -34 -10 -119v-276q0 -47 6 -63
q10 -26 48 -36q26 -6 26 -22q0 -20 -28 -20h-226q-27 0 -27 20q0 12 27 24q32 14 38 48q1 5 1.5 21t0.5 44v289q0 36 -5 53q-11 23 -40 32q-19 6 -19 18q0 29 70 78q80 56 190 56h118z" />
    <glyph glyph-name="afii10098" unicode="&#x491;" horiz-adv-x="424" 
d="M220 396q-26 0 -42 -18t-16 -43v-238q0 -25 8 -41t19 -23q15 -9 15 -18q0 -15 -22 -15h-156q-22 0 -22 15q0 9 15 18q27 16 27 64v183q0 46 -5 61q-4 12 -24 23q-13 7 -13 16q0 14 17 17q66 11 109 45q11 8 19 8h102q20 0 35.5 7t15.5 26q0 14 -15 19.5t-33 -3.5
q-4 -2 -8 -2q-15 0 -15 17q0 14 7.5 25.5t18.5 19.5t24.5 12.5t25.5 4.5q17 0 33.5 -8.5t29 -22.5t20 -33t7.5 -40q0 -22 -10 -49q-12 -34 -29 -34q-1 0 -9 2q-15 5 -20 5h-109z" />
    <glyph glyph-name="Euro" unicode="&#x20ac;" horiz-adv-x="641" 
d="M238 166q51 -65 135 -65q115 0 166 125q6 14 18 14q20 0 20 -36q0 -43 -17.5 -81.5t-48 -67.5t-72 -45.5t-87.5 -14.5q-140 0 -219 108q-11 14 -20.5 30t-17.5 33h-71v51h52q-6 19 -9 41h-63v52h57q-1 8 -1 16v17q0 210 150 299q60 35 124 36q35 0 89 -18q35 -11 46 -11
q8 0 26 8q8 4 14 4q26 0 42 -52q11 -39 11 -73q0 -42 -12 -80t-35.5 -66t-57.5 -44.5t-78 -16.5q-45 0 -76 24q-42 31 -42 79q0 27 17 49q18 24 45 24q25 0 25 -24q0 -12 -14 -20q-24 -12 -24 -29t16 -27q13 -9 30 -9q22 0 37.5 11t23 27.5t6.5 36t-11 36t-30 27.5t-51 11
q-74 0 -113 -73q-32 -59 -32 -139v-23h258v-52h-250q2 -11 5.5 -21t7.5 -20h237v-51h-206z" />
    <glyph glyph-name="quotedbl" unicode="&#x22;" horiz-adv-x="318" 
d="M211 427h-71v240h71v-240zM105 427h-71v240h71v-240z" />
    <glyph glyph-name="exclam" unicode="!" horiz-adv-x="318" 
d="M158 119q28 0 47 -19.5t19 -46.5q0 -28 -19.5 -47.5t-47.5 -19.5t-47 19.5t-19 47.5t19.5 47t47.5 19zM191 202q-3 -30 -6 -40q-8 -23 -28 -23t-28 23q-3 8 -6 40l-33 316q-2 25 -4 40t-4 21q-11 34 -33 48q-15 9 -15 21q0 19 18 19q3 0 21 -5q42 -14 84 -14q40 0 84 14
q17 5 21 5q18 0 18 -19q0 -11 -15 -21q-24 -15 -33 -48q-1 -6 -6 -43l-2 -18z" />
    </font>
</defs>
</svg>
