<?xml version="1.0" standalone="no"?>
<!DOCTYPE svg PUBLIC "-//W3C//DTD SVG 1.1//EN" "http://www.w3.org/Graphics/SVG/1.1/DTD/svg11.dtd" >
<svg>
<metadata>
Created by FontForge 20090622 at Wed Mar  5 04:56:52 2014
 By ffonts
1.2, Copyright &#194;&#169; Castcraft Software, Inc. 1990-1991.
</metadata>
<defs>
<font id="OPTIArtCraft-Bold" horiz-adv-x="679" >
  <font-face 
    font-family="OPTIArtCraft"
    font-weight="700"
    font-stretch="normal"
    units-per-em="1000"
    panose-1="0 0 0 0 0 0 0 0 0 0"
    ascent="768"
    descent="-232"
    x-height="467"
    cap-height="742"
    bbox="-100 -272.986 1278 963"
    underline-thickness="57"
    underline-position="-47"
    stemh="75"
    stemv="32"
    unicode-range="U+0020-U+FB02"
  />
<missing-glyph horiz-adv-x="280" 
 />
    <glyph glyph-name=".notdef" horiz-adv-x="280" 
 />
    <glyph glyph-name="space" unicode=" " horiz-adv-x="201" 
 />
    <glyph glyph-name="exclam" unicode="!" horiz-adv-x="227" 
d="M147 746c83 0 86 -68 75 -159l-35 -295c-8 -71 -14 -103 -40 -103c-27 0 -32 41 -39 102l-34 304c-8 68 -14 151 73 151zM148 152c39 0 73 -37 73 -81s-30 -80 -73 -80c-44 0 -72 36 -72 80s33 81 72 81z" />
    <glyph glyph-name="quotedbl" unicode="&#x22;" horiz-adv-x="337" 
d="M296 412h-29l-41 220c-8 43 -5 110 54 110c57 0 62 -64 54 -112zM144 412h-29l-41 220c-8 43 -4 110 55 110c56 0 61 -64 53 -112z" />
    <glyph glyph-name="numbersign" unicode="#" horiz-adv-x="792" 
d="M390 718h111l-74 -206h117l73 206h111l-73 -206h137l-34 -93h-136l-43 -121h136l-33 -94h-137l-72 -205h-112l74 205h-117l-73 -205h-111l73 205h-136l34 94h135l43 121h-135l33 93h136zM351 298h117l43 121h-117z" />
    <glyph glyph-name="dollar" unicode="$" horiz-adv-x="570" 
d="M368 671c74 -8 179 -37 179 -90c0 -35 -44 -111 -74 -111c-17 0 -26 8 -26 23c0 13 5 28 5 43c0 30 -40 66 -87 80c-6 1 -10 0 -10 -8v-155c0 -12 4 -16 14 -21c18 -8 46 -23 46 -23c79 -39 155 -80 155 -166c0 -109 -89 -181 -199 -201c-12 -2 -16 -7 -16 -17v-106
c0 -9 -4 -14 -12 -14h-26c-7 0 -11 5 -11 13v101c0 11 -6 16 -19 17c-86 4 -216 47 -216 104c0 46 49 118 85 118c16 0 26 -13 23 -32c-9 -68 43 -133 112 -143c10 -2 15 5 15 14v194c0 10 -5 17 -15 22c-12 6 -30 14 -30 14c-70 33 -154 76 -154 160c0 72 76 161 188 181
c9 2 11 7 11 15v56c0 8 4 13 11 13h26c8 0 12 -5 12 -14v-52c0 -7 3 -13 13 -15zM369 95c42 18 72 59 72 106c0 38 -39 60 -73 75c-7 3 -13 0 -13 -8v-166c0 -7 8 -10 14 -7zM297 618c-36 -12 -67 -46 -66 -79c0 -28 34 -54 63 -70c7 -5 12 -2 12 7v134c0 7 -4 10 -9 8z" />
    <glyph glyph-name="percent" unicode="%" horiz-adv-x="1007" 
d="M292 793c122 0 222 -82 222 -200c0 -121 -100 -200 -222 -200c-121 0 -221 75 -221 200s100 200 221 200zM276 746c-47 0 -78 -58 -69 -153c10 -96 55 -152 102 -152s79 60 69 152c-9 90 -55 153 -102 153zM697 793h103l-420 -795h-103zM786 399c121 0 221 -83 221 -200
c0 -122 -100 -200 -221 -200c-122 0 -222 74 -222 200c0 124 100 200 222 200zM769 351c-47 0 -79 -57 -69 -152c10 -96 55 -153 102 -153c48 0 79 60 69 153c-10 89 -54 152 -102 152z" />
    <glyph glyph-name="ampersand" unicode="&#x26;" horiz-adv-x="842" 
d="M604 233c-24 0 -28 -13 -47 -13c-15 0 -29 16 -29 41c0 38 26 69 79 69c78 0 122 -67 122 -121c0 -119 -146 -211 -324 -211c-177 0 -334 101 -334 243c0 100 71 158 166 211c19 11 20 20 6 33c-51 48 -79 67 -79 116c0 86 54 165 239 165c117 0 159 -45 159 -97
c0 -38 -29 -80 -81 -80c-24 0 -43 13 -43 31c0 20 14 28 14 44c0 21 -27 49 -74 49c-51 0 -86 -37 -86 -98c0 -76 65 -94 116 -101c25 -3 44 -16 44 -33c0 -32 -45 -27 -62 -30c-99 -15 -133 -86 -133 -154c0 -112 95 -218 207 -218c103 0 173 66 173 121
c0 22 -18 33 -33 33zM842 535c0 -77 -96 -122 -182 -145l-34 -9c-82 -22 -144 -64 -144 -116c0 -22 10 -33 10 -52c0 -9 -9 -13 -21 -13c-35 0 -75 51 -75 110c0 96 98 142 211 176l43 13c68 21 104 41 104 96c0 18 7 25 23 25c35 0 65 -43 65 -85z" />
    <glyph glyph-name="quoteright" unicode="&#x2019;" horiz-adv-x="211" 
d="M145 742c47 0 66 -43 66 -110c0 -78 -57 -194 -101 -194c-17 0 -29 8 -29 26c0 16 47 57 47 87c0 46 -57 31 -57 103c0 49 24 88 74 88z" />
    <glyph glyph-name="parenleft" unicode="(" horiz-adv-x="460" 
d="M428 750c19 0 32 -5 32 -21c0 -15 -11 -27 -42 -41c-143 -63 -206 -245 -206 -463c0 -275 97 -369 228 -451c24 -15 12 -47 -15 -40c-95 25 -356 93 -356 489c0 343 209 527 359 527z" />
    <glyph glyph-name="parenright" unicode=")" horiz-adv-x="472" 
d="M104 768c153 0 368 -187 368 -539c0 -406 -267 -475 -365 -501c-28 -7 -40 25 -15 41c134 84 233 180 233 461c0 224 -64 410 -211 475c-32 14 -43 26 -43 43c0 15 13 20 33 20z" />
    <glyph glyph-name="asterisk" unicode="*" horiz-adv-x="385" 
d="M230 572l37 -105h118l-94 -75l33 -116l-93 69l-98 -70l34 115l-96 77h118z" />
    <glyph glyph-name="plus" unicode="+" horiz-adv-x="693" 
d="M302 616h162v-229h229v-159h-229v-228h-162v228h-231v159h231v229z" />
    <glyph glyph-name="comma" unicode="," horiz-adv-x="211" 
d="M145 151c47 0 66 -42 66 -109c0 -78 -57 -194 -101 -194c-17 0 -29 8 -29 26c0 16 47 57 47 87c0 46 -57 31 -57 103c0 49 24 87 74 87z" />
    <glyph glyph-name="hyphen" unicode="-" horiz-adv-x="447" 
d="M447 373v-131h-376v131h376z" />
    <glyph glyph-name="period" unicode="." horiz-adv-x="219" 
d="M145 153c40 0 74 -38 74 -83s-31 -82 -74 -82c-46 0 -74 37 -74 82s34 83 74 83z" />
    <glyph glyph-name="slash" unicode="/" horiz-adv-x="553" 
d="M450 742h103l-379 -763h-103z" />
    <glyph glyph-name="zero" unicode="0" 
d="M371 766c170 0 270 -173 270 -385s-104 -385 -270 -385c-170 0 -270 173 -270 385s96 385 270 385zM325 683c-78 0 -100 -135 -75 -302s91 -302 166 -302c74 0 100 135 75 302c-26 167 -90 302 -166 302z" />
    <glyph glyph-name="one" unicode="1" 
d="M443 154c1 -70 39 -96 73 -108c21 -8 35 -13 35 -27c0 -17 -11 -20 -33 -19c0 0 -95 10 -148 10c-48 0 -149 -10 -149 -10c-21 -1 -33 2 -33 19c0 14 15 20 35 27c34 13 73 37 74 108c0 0 4 136 4 224c0 82 -4 211 -4 211c-1 61 -56 65 -90 74c-26 7 -24 26 -2 37
c24 13 115 42 163 42c59 0 76 -16 75 -89c0 0 -4 -164 -4 -269c0 -89 4 -230 4 -230z" />
    <glyph glyph-name="two" unicode="2" 
d="M334 134c24 -7 64 -12 104 -12c56 0 116 7 144 29c21 16 35 51 62 51c14 0 29 -13 29 -31c0 -28 -46 -191 -103 -191c-24 0 -91 20 -146 20h-210c-63 0 -96 -1 -103 18c-8 20 25 44 65 84l23 23c106 106 230 265 230 390c0 63 -29 133 -108 133c-58 0 -110 -34 -110 -80
c0 -20 6 -31 6 -53c0 -16 -16 -29 -38 -29c-30 0 -68 27 -68 81c0 98 97 184 257 184c145 0 246 -66 246 -193c0 -105 -98 -217 -195 -311l-87 -84c-18 -18 -18 -24 2 -29z" />
    <glyph glyph-name="three" unicode="3" 
d="M506 419c83 -20 155 -58 155 -166c0 -133 -152 -259 -359 -259c-92 0 -198 38 -198 119c0 28 21 50 50 50c55 0 39 -97 143 -97c83 0 181 92 181 195c0 87 -43 137 -144 137c-18 0 -35 7 -35 21c0 10 7 23 40 32c62 18 122 41 122 124c0 43 -28 103 -104 103
c-47 0 -99 -29 -99 -95c0 -18 -17 -32 -30 -32c-23 0 -49 14 -49 51c0 74 101 155 225 155c108 0 224 -58 224 -162c0 -78 -53 -126 -124 -155c-14 -6 -12 -18 2 -21z" />
    <glyph glyph-name="four" unicode="4" 
d="M211 308c46 3 125 -1 172 -5c21 -2 26 10 26 20v225c0 19 -11 28 -28 15c-63 -46 -156 -187 -182 -241c-4 -9 -1 -15 12 -14zM555 154c0 -70 39 -96 73 -108c21 -8 35 -13 35 -27c0 -17 -11 -20 -33 -19c0 0 -94 10 -148 10c-47 0 -148 -10 -148 -10c-22 -1 -33 2 -33 19
c0 14 14 19 35 27c34 12 73 39 73 108c0 43 -1 46 -35 56c-28 9 -117 15 -161 15c-50 0 -80 -11 -111 -11c-19 0 -34 9 -34 24c0 16 25 64 57 107l214 292c61 83 74 112 184 112c69 0 103 -16 103 -32c0 -15 -28 -21 -39 -30c-26 -23 -32 -74 -32 -124v-199
c0 -62 11 -74 32 -74c20 0 41 10 56 10c18 0 33 -17 33 -30c0 -50 -49 -57 -86 -65c-35 -7 -35 -11 -35 -51z" />
    <glyph glyph-name="five" unicode="5" 
d="M613 739c14 0 31 -7 31 -27c0 -21 -15 -51 -23 -66c-32 -63 -68 -57 -132 -57h-106c-47 0 -87 -38 -93 -81c0 -20 19 -26 32 -26c21 0 44 5 81 5c118 0 224 -75 224 -193c0 -141 -126 -298 -366 -298c-90 0 -164 33 -164 85c0 20 16 44 38 44c39 0 27 -63 125 -63
c114 0 190 107 191 233c1 88 -53 125 -119 125c-65 0 -79 -36 -107 -36c-26 0 -26 29 -12 107l19 108c17 98 11 123 81 122c40 0 111 -10 160 -8c64 2 102 26 140 26z" />
    <glyph glyph-name="six" unicode="6" 
d="M487 764c21 0 32 -8 32 -21s-11 -19 -39 -29c-153 -52 -230 -169 -230 -323c0 -176 82 -328 188 -328c58 0 93 41 93 112c0 102 -70 204 -139 204c-25 0 -50 -7 -71 -7c-17 0 -31 9 -31 23c0 37 66 78 142 78c152 0 230 -110 230 -224c0 -130 -114 -253 -284 -253
c-196 0 -281 148 -281 302c0 278 258 466 390 466z" />
    <glyph glyph-name="seven" unicode="7" 
d="M316 733h203c69 0 104 0 112 -15c8 -14 5 -24 -9 -48c-84 -144 -214 -424 -214 -628c0 -29 -9 -42 -27 -42c-22 0 -46 6 -69 6c-29 0 -84 -13 -105 -13c-14 0 -29 6 -29 28c0 69 243 455 293 537c14 23 15 40 -10 50c-15 6 -60 11 -93 11c-79 0 -153 -5 -187 -45
c-22 -27 -30 -39 -46 -39c-18 0 -28 12 -28 44c0 25 29 187 91 187c24 0 60 -33 118 -33z" />
    <glyph glyph-name="eight" unicode="8" 
d="M536 424c73 -68 119 -127 119 -198c0 -117 -102 -232 -267 -232c-172 0 -288 86 -288 231c0 71 28 124 119 190c8 5 10 13 1 22c-45 43 -72 87 -72 129c0 100 71 196 234 196c136 0 241 -71 241 -177c0 -69 -39 -113 -87 -138c-12 -6 -11 -12 0 -23zM440 493
c33 0 51 55 51 87c0 71 -66 119 -125 119c-58 0 -93 -32 -93 -67c0 -62 138 -139 167 -139zM400 64c70 0 118 62 118 107c0 72 -158 190 -204 190c-37 0 -72 -64 -72 -136c0 -103 78 -161 158 -161z" />
    <glyph glyph-name="nine" unicode="9" 
d="M211 -5c-20 0 -32 8 -32 21s13 20 39 29c165 57 259 154 259 356c0 176 -73 286 -153 286c-58 0 -93 -44 -93 -131c0 -102 61 -191 130 -191c26 0 28 3 49 3c19 0 32 -8 32 -23c0 -36 -43 -68 -119 -68c-162 0 -230 110 -230 224c0 112 105 248 264 248
c196 0 286 -127 286 -297c0 -278 -252 -457 -432 -457z" />
    <glyph glyph-name="colon" unicode=":" horiz-adv-x="219" 
d="M145 153c40 0 74 -38 74 -83s-31 -82 -74 -82c-46 0 -74 37 -74 82s34 83 74 83zM145 402c40 0 74 -38 74 -84c0 -45 -31 -82 -74 -82c-46 0 -74 37 -74 82c0 46 34 84 74 84z" />
    <glyph glyph-name="semicolon" unicode=";" horiz-adv-x="219" 
d="M145 402c40 0 74 -38 74 -84c0 -45 -31 -82 -74 -82c-46 0 -74 37 -74 82c0 46 34 84 74 84zM145 151c47 0 66 -42 66 -109c0 -78 -57 -194 -101 -194c-17 0 -29 8 -29 26c0 16 47 57 47 87c0 46 -57 31 -57 103c0 49 24 87 74 87z" />
    <glyph glyph-name="less" unicode="&#x3c;" horiz-adv-x="521" 
d="M69 359l452 168v-119l-290 -103l290 -104v-121l-452 168v111z" />
    <glyph glyph-name="equal" unicode="=" horiz-adv-x="815" 
d="M815 520v-160h-744v160h744zM815 254v-159h-744v159h744z" />
    <glyph glyph-name="greater" unicode="&#x3e;" horiz-adv-x="535" 
d="M535 369v-115l-464 -172v124l298 106l-298 106v123z" />
    <glyph glyph-name="question" unicode="?" horiz-adv-x="409" 
d="M221 764c97 0 188 -51 188 -148c0 -70 -45 -151 -89 -214l-23 -33c-35 -50 -60 -81 -60 -100c0 -11 10 -31 10 -50c0 -17 -10 -32 -32 -32c-27 0 -56 28 -56 70c0 38 17 81 32 117l27 65c14 33 43 109 43 165c0 49 -34 76 -67 76c-28 0 -44 -27 -44 -48
c0 -18 -7 -36 -34 -36c-24 0 -45 27 -45 56c0 52 51 112 150 112zM208 157c40 0 74 -39 74 -84s-31 -82 -74 -82c-46 0 -74 37 -74 82s34 84 74 84z" />
    <glyph glyph-name="at" unicode="@" horiz-adv-x="972" 
d="M609 169c-47 -74 -101 -98 -161 -97c-41 0 -101 20 -135 76c-38 62 -22 167 9 228c44 85 121 145 200 151c33 3 93 -6 123 -47c5 -7 10 -17 16 -30l19 60h133l-65 -225c-6 -22 -37 -111 -16 -134c12 -10 26 -15 49 -10c56 11 89 64 110 117c36 88 43 201 -21 291
c-74 105 -231 130 -315 125c-119 -6 -237 -58 -324 -213c-62 -111 -68 -268 -8 -381c66 -122 182 -171 289 -178c123 -9 230 21 351 94l28 -40c-187 -119 -405 -157 -592 -62v-1c-130 66 -216 195 -227 338c-10 132 33 291 192 405c146 104 368 117 511 55v0
c107 -47 180 -145 195 -258c11 -83 -13 -236 -108 -311c-51 -41 -128 -63 -185 -42c-40 15 -60 42 -68 89zM434 205c-1 -27 3 -46 25 -60c18 -12 42 -9 60 0c63 32 104 193 108 236c2 24 -1 52 -23 69c-16 13 -43 13 -57 7c-71 -28 -112 -215 -113 -252z" />
    <glyph glyph-name="A" unicode="A" horiz-adv-x="836" 
d="M403 521l-63 -156c-11 -27 -7 -38 20 -38h112c27 0 34 11 23 36l-67 154c-12 27 -16 27 -25 4zM583 106c0 40 -16 106 -38 125c-17 12 -50 23 -84 23h-106c-81 0 -97 -66 -97 -123c0 -77 79 -74 79 -106c0 -17 -12 -27 -33 -25c0 0 -50 10 -103 10
c-48 0 -112 -10 -112 -10c-22 -2 -33 8 -33 25c0 34 67 32 111 131l210 470c16 35 30 68 38 99c6 24 24 38 43 38c40 0 61 -48 83 -98l221 -505c30 -68 42 -90 70 -110c10 -7 20 -13 20 -27c0 -17 -12 -25 -33 -23c0 0 -75 10 -129 10c-47 0 -129 -10 -129 -10
c-21 -2 -33 8 -33 25c0 34 55 26 55 81z" />
    <glyph glyph-name="B" unicode="B" horiz-adv-x="754" 
d="M317 570v-398c0 -98 32 -117 104 -117c84 0 146 62 146 151c0 136 -108 155 -199 172c-19 4 -28 13 -28 28c0 16 10 29 31 30c104 4 149 41 149 122c0 84 -66 129 -135 129c-56 0 -68 -59 -68 -117zM148 587c0 106 -77 96 -77 130c0 16 11 27 33 25c0 0 81 -11 129 -11
c59 0 102 11 170 11c238 0 296 -98 296 -179c0 -92 -81 -127 -129 -155c85 -38 184 -76 184 -202c0 -123 -105 -207 -294 -207c-49 0 -168 11 -227 11c-48 0 -129 -10 -129 -10c-22 -2 -33 8 -33 25c0 34 77 23 77 129v433z" />
    <glyph glyph-name="C" unicode="C" horiz-adv-x="802" 
d="M460 768c142 0 309 -38 309 -151c0 -58 -21 -119 -60 -119c-32 0 -42 25 -53 72c-23 93 -107 134 -185 134c-127 0 -206 -124 -206 -310c0 -196 98 -331 256 -331c91 0 202 63 202 160c0 25 8 47 34 47s45 -23 45 -68c0 -159 -173 -228 -313 -228
c-219 0 -418 155 -418 401c0 239 193 393 389 393z" />
    <glyph glyph-name="D" unicode="D" horiz-adv-x="843" 
d="M317 591v-423c0 -88 28 -113 93 -113c191 0 251 192 251 310c0 132 -74 322 -266 322c-50 0 -78 -28 -78 -96zM148 587c0 106 -77 96 -77 130c0 16 11 27 33 25c0 0 81 -11 129 -11c47 0 146 11 208 11c299 0 402 -209 402 -378c0 -241 -203 -365 -415 -365
c-60 0 -127 11 -195 11c-48 0 -129 -10 -129 -10c-22 -2 -33 8 -33 25c0 34 77 23 77 129v433z" />
    <glyph glyph-name="E" unicode="E" horiz-adv-x="762" 
d="M376 345c-49 0 -59 -22 -59 -94v-102c0 -66 37 -94 118 -94c126 0 214 52 254 124c12 22 20 47 42 47c21 0 31 -25 31 -64c0 -71 -34 -181 -107 -181c-77 0 -318 29 -422 29c-48 0 -129 -10 -129 -10c-22 -2 -33 8 -33 25c0 34 77 23 77 129v433c0 106 -77 96 -77 130
c0 16 11 27 33 25c0 0 81 -11 129 -11c68 0 138 11 238 11c116 0 223 -19 223 -81s-26 -128 -62 -128c-23 0 -38 14 -38 35c0 86 -114 119 -192 119c-68 0 -85 -46 -85 -101v-91c0 -62 6 -78 59 -78h99c65 0 88 18 103 52c5 12 13 25 31 25c19 0 32 -12 31 -33
c0 0 -5 -26 -5 -80c0 -47 5 -80 5 -80c1 -21 -12 -33 -31 -33c-18 0 -25 13 -31 26c-18 31 -41 51 -103 51h-99z" />
    <glyph glyph-name="F" unicode="F" horiz-adv-x="674" 
d="M376 321c-49 0 -59 -21 -59 -93v-74c0 -106 77 -95 77 -129c0 -17 -11 -27 -33 -25c0 0 -75 10 -128 10c-48 0 -129 -10 -129 -10c-22 -2 -33 8 -33 25c0 34 77 23 77 129v433c0 106 -77 96 -77 130c0 16 11 27 33 25c0 0 81 -11 129 -11c68 0 138 11 238 11
c116 0 223 -19 223 -81s-26 -128 -62 -128c-23 0 -38 14 -38 35c0 86 -114 119 -192 119c-68 0 -85 -46 -85 -101v-114c0 -63 6 -79 59 -79h99c65 0 88 18 103 52c5 12 13 26 31 26c19 0 32 -13 31 -33c0 0 -5 -27 -5 -81c0 -47 5 -80 5 -80c1 -21 -12 -33 -31 -33
c-18 0 -24 13 -31 26c-17 32 -41 51 -103 51h-99z" />
    <glyph glyph-name="G" unicode="G" horiz-adv-x="891" 
d="M843 165c9 -27 8 -43 -18 -63c-104 -80 -196 -129 -336 -129c-219 0 -418 155 -418 401c0 239 193 394 389 394c142 0 309 -38 309 -151c0 -58 -21 -119 -60 -119c-32 0 -42 25 -53 72c-23 93 -107 134 -185 134c-127 0 -206 -125 -206 -311c0 -196 98 -331 256 -331
c91 0 141 70 141 152c0 60 -19 83 -72 83c-19 0 -36 10 -36 34c0 26 23 43 92 43c21 0 102 -9 142 -9c26 0 48 4 65 4c20 0 38 -9 38 -30c0 -48 -58 -6 -58 -125c0 -20 4 -31 10 -49z" />
    <glyph glyph-name="H" unicode="H" horiz-adv-x="903" 
d="M317 587v-63c0 -105 0 -107 170 -107c167 0 170 -1 170 107v63c0 106 -77 96 -77 130c0 16 11 27 33 25c0 0 81 -11 129 -11c53 0 128 11 128 11c22 2 33 -9 33 -25c0 -34 -77 -24 -77 -130v-433c0 -106 77 -95 77 -129c0 -17 -11 -27 -33 -25c0 0 -75 10 -128 10
c-48 0 -129 -10 -129 -10c-22 -2 -33 8 -33 25c0 34 77 23 77 129v89c0 106 -1 107 -170 107c-170 0 -170 -1 -170 -107v-89c0 -106 77 -95 77 -129c0 -17 -11 -27 -33 -25c0 0 -75 10 -128 10c-48 0 -129 -10 -129 -10c-22 -2 -33 8 -33 25c0 34 77 23 77 129v433
c0 106 -77 96 -77 130c0 16 11 27 33 25c0 0 81 -11 129 -11c53 0 128 11 128 11c22 2 33 -9 33 -25c0 -34 -77 -24 -77 -130z" />
    <glyph glyph-name="I" unicode="I" horiz-adv-x="394" 
d="M317 154c0 -106 77 -95 77 -129c0 -17 -11 -27 -33 -25c0 0 -75 10 -128 10c-48 0 -129 -10 -129 -10c-22 -2 -33 8 -33 25c0 34 77 23 77 129v433c0 106 -77 96 -77 130c0 16 11 27 33 25c0 0 81 -11 129 -11c53 0 128 11 128 11c22 2 33 -9 33 -25
c0 -34 -77 -24 -77 -130v-433z" />
    <glyph glyph-name="J" unicode="J" horiz-adv-x="394" 
d="M318 105c0 -175 -68 -336 -250 -336c-82 0 -168 37 -168 107c0 71 74 104 108 104c20 0 36 -11 36 -28c0 -29 -18 -35 -18 -64c0 -28 22 -40 47 -40c53 0 76 68 76 232v506c0 106 -78 96 -78 130c0 16 11 28 33 26c0 0 81 -12 130 -12c52 0 129 12 129 12
c20 2 31 -10 31 -26c0 -34 -76 -24 -76 -130v-481z" />
    <glyph glyph-name="K" unicode="K" horiz-adv-x="855" 
d="M838 51c13 -4 20 -11 20 -26c0 -17 -11 -25 -33 -25h-123c-98 0 -108 1 -162 81c-21 31 -32 45 -53 72c-92 118 -128 169 -150 169c-13 0 -20 -9 -20 -21v-147c0 -106 77 -95 77 -129c0 -17 -11 -27 -33 -25c0 0 -75 10 -128 10c-48 0 -129 -10 -129 -10
c-22 -2 -33 8 -33 25c0 34 77 23 77 129v433c0 106 -77 96 -77 130c0 16 11 27 33 25c0 0 81 -11 129 -11c53 0 128 11 128 11c22 2 33 -9 33 -25c0 -34 -77 -24 -77 -130v-153c0 -19 10 -24 27 -10l218 188c42 37 42 64 -10 79c-14 4 -28 10 -28 26s12 27 33 25
c0 0 82 -11 129 -11c53 0 129 11 129 11c21 2 33 -9 33 -25s-8 -24 -20 -27c-29 -8 -74 -26 -141 -81l-193 -158c-17 -14 -17 -22 -6 -36l213 -279c41 -54 105 -76 137 -85z" />
    <glyph glyph-name="L" unicode="L" horiz-adv-x="721" 
d="M317 149c0 -66 37 -94 118 -94c126 0 193 52 233 124c13 22 20 47 43 47c20 0 31 -25 31 -64c0 -71 -34 -181 -108 -181c-77 0 -297 29 -401 29c-48 0 -129 -10 -129 -10c-22 -2 -33 8 -33 25c0 34 77 23 77 129v433c0 106 -77 96 -77 130c0 16 11 27 33 25
c0 0 81 -11 129 -11c53 0 128 11 128 11c22 2 33 -9 33 -25c0 -34 -77 -24 -77 -130v-438z" />
    <glyph glyph-name="M" unicode="M" horiz-adv-x="985" 
d="M726 676c30 64 35 66 141 66c33 0 56 -2 85 -7c18 -3 33 -7 33 -24c0 -34 -78 -24 -78 -130v-427c0 -106 78 -95 78 -129c0 -17 -12 -27 -33 -25c0 0 -76 10 -129 10c-48 0 -129 -10 -129 -10c-21 -2 -33 8 -33 25c0 34 77 23 77 129v285c0 21 -14 33 -28 6
c0 0 -62 -107 -94 -178c-24 -53 -56 -137 -56 -137c-16 -40 -27 -99 -63 -99c-38 0 -53 51 -79 99c0 0 -101 201 -156 288c-5 7 -13 18 -19 18c-7 0 -10 -9 -10 -25v-257c0 -106 77 -95 77 -129c0 -17 -11 -28 -33 -25c0 0 -46 10 -86 10c-39 0 -87 -10 -87 -10
c-22 -3 -33 8 -33 25c0 34 77 23 77 129v393c0 64 -30 135 -88 135c-12 0 -22 -2 -30 -2c-12 0 -27 9 -27 23c0 40 70 52 165 52c94 0 123 -66 166 -141l168 -291c25 -44 40 -40 60 2z" />
    <glyph glyph-name="N" unicode="N" horiz-adv-x="853" 
d="M335 615l313 -313c8 -8 25 -19 31 -19c10 0 12 8 12 40v264c0 106 -77 96 -77 130c0 16 11 28 33 25c0 0 48 -11 86 -11c40 0 87 11 87 11c21 3 33 -9 33 -25c0 -34 -78 -24 -78 -130v-513c0 -19 15 -106 -31 -106c-21 0 -30 20 -52 46c-16 20 -39 43 -67 71l-345 354
c-38 38 -47 33 -47 -27v-258c0 -106 77 -95 77 -129c0 -17 -11 -28 -33 -25c0 0 -46 10 -86 10c-39 0 -87 -10 -87 -10c-22 -3 -33 8 -33 25c0 34 77 23 77 129v393c0 64 -39 135 -98 135c-11 0 -21 -2 -29 -2c-13 0 -27 9 -27 23c0 35 87 52 125 52c94 0 155 -79 216 -140z
" />
    <glyph glyph-name="O" unicode="O" horiz-adv-x="882" 
d="M476 750c222 0 406 -174 406 -389c0 -214 -165 -387 -406 -387c-224 0 -407 173 -407 387c0 215 163 389 407 389zM422 676c-136 0 -202 -141 -173 -315c29 -173 154 -313 279 -313c134 0 201 140 173 313c-29 174 -153 315 -279 315z" />
    <glyph glyph-name="P" unicode="P" horiz-adv-x="728" 
d="M434 742c98 0 294 -53 294 -233c0 -173 -135 -241 -253 -241c-72 0 -124 12 -124 43c0 18 17 25 37 25c128 0 161 87 161 194c0 97 -57 157 -141 157c-74 0 -91 -40 -91 -99v-434c0 -106 77 -95 77 -129c0 -17 -11 -27 -33 -25c0 0 -75 10 -128 10
c-48 0 -129 -10 -129 -10c-22 -2 -33 8 -33 25c0 34 77 23 77 129v433c0 106 -77 96 -77 130c0 16 11 27 33 25c0 0 81 -11 129 -11c67 0 145 11 201 11z" />
    <glyph glyph-name="Q" unicode="Q" horiz-adv-x="903" 
d="M529 49c-24 28 -55 59 -111 84c-28 13 -43 12 -43 31c0 28 42 31 70 31c75 0 165 -52 218 -94c54 57 75 156 56 270c-29 177 -158 321 -286 321c-139 0 -207 -144 -178 -321c29 -172 150 -312 274 -322zM725 40c58 -64 106 -126 175 -134c22 -3 43 -4 43 -28
c0 -23 -51 -52 -99 -52c-53 0 -111 26 -160 66c-24 19 -62 61 -94 93c-32 -8 -67 -12 -103 -12c-229 0 -416 178 -416 398c0 219 167 397 416 397c229 0 416 -178 416 -397c0 -138 -67 -260 -178 -331z" />
    <glyph glyph-name="R" unicode="R" horiz-adv-x="788" 
d="M399 378c77 0 160 54 160 157c0 99 -86 152 -173 152c-38 0 -69 -36 -69 -96v-119c0 -69 21 -94 82 -94zM317 154c0 -106 77 -95 77 -129c0 -17 -11 -27 -33 -25c0 0 -75 10 -128 10c-48 0 -129 -10 -129 -10c-22 -2 -33 8 -33 25c0 34 77 23 77 129v433
c0 106 -77 96 -77 130c0 16 11 27 33 25c0 0 81 -11 129 -11c55 0 144 11 217 11c180 0 293 -85 293 -207c0 -99 -68 -167 -172 -188c-27 -6 -33 -23 -17 -46c48 -71 179 -224 262 -311c23 -25 6 -46 -13 -46c-91 0 -347 218 -453 350c-16 20 -33 17 -33 -11v-129z" />
    <glyph glyph-name="S" unicode="S" horiz-adv-x="694" 
d="M410 768c89 0 256 -40 256 -114c0 -44 -55 -139 -92 -139c-21 0 -33 10 -33 30c0 14 7 34 7 52c0 49 -86 109 -161 109c-61 0 -117 -54 -116 -106c1 -49 87 -92 116 -106l114 -55c100 -48 193 -100 193 -207c0 -165 -161 -259 -337 -259c-110 0 -286 56 -286 130
c0 58 62 147 106 147c20 0 32 -16 29 -41c-13 -93 67 -178 165 -178c92 0 162 67 162 147c0 60 -75 87 -119 108l-106 51c-88 42 -192 95 -192 200c0 102 121 231 294 231z" />
    <glyph glyph-name="T" unicode="T" horiz-adv-x="825" 
d="M528 154c0 -106 78 -95 78 -129c0 -17 -12 -27 -33 -25c0 0 -76 10 -129 10c-48 0 -129 -10 -129 -10c-21 -2 -33 8 -33 25c0 34 77 23 77 129v435c0 63 -14 98 -62 98c-63 0 -126 -32 -167 -122c-9 -20 -20 -29 -34 -29c-33 0 -40 31 -40 63c0 38 28 166 78 166
c43 0 69 -23 119 -23h432c63 0 71 6 117 6c29 0 38 -19 38 -48c0 -50 -49 -175 -102 -175c-21 0 -44 16 -38 48c4 21 19 37 -1 63c-25 32 -55 51 -93 51c-65 0 -78 -28 -78 -98v-435z" />
    <glyph glyph-name="U" unicode="U" horiz-adv-x="884" 
d="M806 343c0 -137 -25 -370 -326 -370c-261 0 -332 152 -332 361v253c0 106 -77 96 -77 130c0 16 11 27 33 25c0 0 81 -11 129 -11c53 0 128 11 128 11c22 2 33 -9 33 -25c0 -34 -77 -24 -77 -130v-229c0 -167 40 -311 190 -311c142 0 215 90 215 279v261
c0 106 -77 96 -77 130c0 16 11 28 33 25c0 0 48 -11 86 -11c40 0 87 11 87 11c21 3 33 -9 33 -25c0 -34 -78 -24 -78 -130v-244z" />
    <glyph glyph-name="V" unicode="V" horiz-adv-x="836" 
d="M333 557l146 -332c12 -27 17 -27 26 -5l132 335c26 67 16 101 -25 124c-20 11 -41 18 -41 38c0 16 11 27 33 25c0 0 49 -11 102 -11c48 0 113 11 113 11c21 2 33 -9 33 -25s-13 -23 -34 -32c-27 -11 -51 -39 -78 -99l-210 -471c-16 -35 -27 -68 -38 -99
c-7 -22 -23 -38 -43 -38c-40 0 -61 49 -82 98l-222 506c-29 67 -35 87 -61 104c-15 10 -28 11 -28 31c0 16 11 27 33 25c0 0 75 -11 128 -11c48 0 129 11 129 11c22 2 33 -9 33 -25s-12 -17 -28 -27c-41 -27 -45 -72 -18 -133z" />
    <glyph glyph-name="W" unicode="W" horiz-adv-x="1257" 
d="M632 346l-102 -231c-15 -35 -28 -69 -38 -99c-7 -22 -23 -38 -43 -38c-40 0 -61 49 -82 98l-222 506c-29 67 -35 87 -61 104c-15 10 -28 11 -28 31c0 16 11 27 33 25c0 0 75 -11 128 -11c48 0 129 11 129 11c22 2 33 -9 33 -25s-12 -17 -28 -27c-41 -27 -45 -72 -18 -133
l146 -332c12 -27 17 -27 26 -5l95 242c8 20 9 25 0 45l-34 75c-35 78 -61 89 -90 104c-17 8 -29 11 -29 31c0 16 11 27 33 25c0 0 86 -11 141 -11c66 0 168 11 168 11c22 1 33 -9 33 -25s-15 -26 -34 -32c-59 -17 -62 -65 -34 -128l146 -332c12 -27 17 -27 26 -5l133 335
c27 67 15 101 -26 124c-20 11 -41 18 -41 38c0 16 11 27 33 25c0 0 49 -11 103 -11c47 0 112 11 112 11c22 2 33 -9 33 -25s-12 -23 -34 -32c-27 -11 -50 -39 -77 -99l-210 -471c-16 -35 -28 -67 -39 -99c-7 -22 -23 -38 -43 -38c-40 0 -61 49 -82 98l-119 272
c-9 20 -26 23 -37 -2z" />
    <glyph glyph-name="X" unicode="X" horiz-adv-x="805" 
d="M524 402l174 -248c45 -64 67 -87 95 -103c14 -8 28 -13 28 -26c0 -17 -12 -27 -33 -25c0 0 -82 10 -129 10c-53 0 -129 -10 -129 -10c-21 -2 -33 8 -33 25c0 10 4 17 12 22c35 23 31 45 -12 107l-73 104c-14 21 -24 23 -37 4l-75 -108c-43 -61 -23 -86 18 -107
c8 -4 11 -12 11 -22c0 -17 -11 -27 -33 -25c0 0 -52 10 -105 10c-47 0 -114 -10 -114 -10c-22 -2 -33 8 -33 25c0 13 11 22 27 26c44 13 94 51 131 103l122 172c15 21 16 35 2 54l-146 207c-51 73 -66 89 -95 103c-15 7 -28 13 -28 27c0 16 11 27 33 25c0 0 81 -11 129 -11
c53 0 128 11 128 11c22 2 33 -9 33 -25c0 -11 -3 -18 -11 -23c-35 -23 -33 -46 11 -107l45 -63c13 -18 25 -19 39 1l44 62c44 62 23 87 -17 107c-9 4 -12 12 -12 23c0 16 12 27 33 25c0 0 52 -11 105 -11c48 0 115 11 115 11c21 2 33 -9 33 -25c0 -14 -12 -23 -28 -27
c-44 -12 -94 -50 -131 -103l-90 -127c-18 -25 -16 -41 -4 -58z" />
    <glyph glyph-name="Y" unicode="Y" horiz-adv-x="880" 
d="M664 587c47 61 47 95 -20 103c-15 2 -34 14 -34 27c0 16 11 27 33 25c0 0 51 -11 105 -11c47 0 114 11 114 11c22 2 33 -9 33 -25c0 -12 -12 -20 -28 -27c-43 -20 -61 -47 -105 -103l-99 -128c-77 -100 -82 -101 -82 -225v-80c0 -106 77 -95 77 -129
c0 -17 -11 -27 -33 -25c0 0 -75 10 -129 10c-47 0 -128 -10 -128 -10c-22 -2 -33 8 -33 25c0 34 77 23 77 129v63c0 81 -4 75 -70 159l-164 211c-31 40 -65 94 -95 103c-16 5 -27 13 -27 27c0 16 11 27 33 25c0 0 81 -11 128 -11c54 0 129 11 129 11c22 2 33 -9 33 -25
c0 -11 -3 -18 -11 -23c-35 -23 -37 -48 11 -107l130 -159c14 -17 17 -17 31 0z" />
    <glyph glyph-name="Z" unicode="Z" horiz-adv-x="771" 
d="M150 762c34 0 66 -25 140 -25c62 0 179 5 272 5c135 0 136 -26 88 -109l-242 -415c-14 -23 -52 -83 -52 -115c0 -26 45 -37 98 -37c74 0 183 13 233 68c25 28 36 78 74 78c18 0 31 -9 31 -47c0 -94 -34 -189 -100 -189c-32 0 -52 13 -83 17c-72 9 -134 10 -208 10
c-75 0 -71 -3 -191 -3c-40 0 -87 -8 -102 20c-14 27 29 78 53 118l284 484c22 38 34 55 -41 55c-53 0 -200 -1 -247 -67c-15 -21 -24 -67 -56 -67c-22 0 -40 16 -40 44c0 15 7 45 13 66c13 43 26 109 76 109z" />
    <glyph glyph-name="bracketleft" unicode="[" horiz-adv-x="292" 
d="M189 678v-770h103v-46h-223v862h223v-46h-103z" />
    <glyph glyph-name="backslash" unicode="\" horiz-adv-x="553" 
d="M174 742l379 -763h-103l-379 763h103z" />
    <glyph glyph-name="bracketright" unicode="]" horiz-adv-x="300" 
d="M176 694h-105v48h229v-883h-229v47h105v788z" />
    <glyph glyph-name="asciicircum" unicode="^" horiz-adv-x="331" 
d="M173 647h54c22 0 36 -9 50 -28l48 -65c16 -21 -9 -43 -36 -29c-34 18 -54 46 -87 46c-21 0 -56 -24 -92 -43c-22 -12 -54 3 -35 30l45 63c15 21 26 26 53 26z" />
    <glyph glyph-name="underscore" unicode="_" horiz-adv-x="548" 
d="M558 -189h-568v65h568v-65z" />
    <glyph glyph-name="quoteleft" unicode="&#x2018;" horiz-adv-x="211" 
d="M137 438c-46 0 -66 42 -66 109c0 78 57 195 101 195c17 0 29 -9 29 -27c0 -16 -47 -57 -47 -87c0 -46 57 -31 57 -103c0 -49 -24 -87 -74 -87z" />
    <glyph glyph-name="a" unicode="a" horiz-adv-x="556" 
d="M357 35c-44 -28 -93 -47 -137 -47c-63 -1 -142 41 -142 122c0 94 85 148 184 148c39 0 63 -13 63 -30c0 -12 -11 -18 -24 -22c-37 -11 -80 -26 -80 -75c0 -43 27 -69 61 -69c39 0 79 28 79 172c0 177 -60 196 -116 196c-28 0 -67 -6 -67 -39c0 -24 24 -33 24 -50
c0 -21 -29 -40 -61 -40c-28 -3 -70 12 -70 56c0 67 99 131 228 131c66 0 151 -11 185 -47c23 -24 18 -62 18 -121v-102c0 -80 2 -120 27 -130c16 -7 29 -8 29 -27c0 -11 -7 -20 -26 -30c-22 -12 -75 -31 -111 -31c-27 0 -43 10 -64 35z" />
    <glyph glyph-name="b" unicode="b" horiz-adv-x="649" 
d="M282 255c0 -118 17 -208 82 -208c77 0 117 115 117 196c0 93 -40 183 -108 183c-71 0 -91 -100 -91 -171zM104 0c-22 0 -33 8 -33 25c0 34 77 23 77 129v435c0 62 -11 86 -45 95c-26 7 -24 26 -2 37c24 12 73 21 120 21c60 0 76 -16 76 -89v-178c0 -13 6 -15 17 -11
c40 16 78 24 116 24c110 0 219 -107 219 -247c0 -93 -76 -253 -235 -253c-40 0 -83 9 -126 24c-4 1 -6 2 -9 -1c-7 -8 -12 -11 -31 -11h-144z" />
    <glyph glyph-name="c" unicode="c" horiz-adv-x="556" 
d="M346 488c90 0 186 -50 186 -129c0 -46 -52 -79 -103 -79c-25 0 -41 15 -41 24c0 17 6 34 6 52c0 30 -21 62 -58 62c-44 0 -101 -45 -101 -133c0 -118 55 -217 151 -217c52 0 100 29 136 50c9 6 22 5 28 -5c7 -10 7 -21 -1 -34c-34 -56 -130 -91 -198 -91
c-152 0 -280 92 -280 240c0 152 110 260 275 260z" />
    <glyph glyph-name="d" unicode="d" horiz-adv-x="634" 
d="M235 240c0 -102 49 -191 115 -191c64 0 86 70 86 215c0 130 -25 164 -78 164c-85 0 -123 -105 -123 -188zM576 204c0 -60 3 -99 25 -112c11 -7 33 -4 33 -24c0 -7 -3 -18 -18 -30c-22 -18 -86 -39 -122 -39c-23 0 -36 8 -53 26c-3 4 -8 7 -15 3c-19 -14 -86 -40 -141 -40
c-137 0 -214 135 -214 237c0 141 105 263 268 263c50 0 88 -11 88 -11v112c0 62 -11 86 -45 95c-26 7 -24 26 -2 37c24 12 73 21 121 21c59 0 75 -16 75 -89v-449z" />
    <glyph glyph-name="e" unicode="e" horiz-adv-x="557" 
d="M336 488c126 0 221 -93 221 -194c0 -34 -11 -52 -63 -52h-198c-34 0 -54 2 -54 -31c0 -47 43 -141 147 -141c48 0 88 24 117 41c11 6 26 6 35 -4c9 -12 1 -33 -9 -45c-36 -40 -111 -74 -182 -74c-178 0 -279 118 -279 237c0 138 107 263 265 263zM247 341
c1 -30 25 -40 88 -40c58 0 66 16 66 41c0 42 -33 82 -70 82c-51 0 -85 -52 -84 -83z" />
    <glyph glyph-name="f" unicode="f" horiz-adv-x="374" 
d="M148 374c0 21 -4 25 -28 25c-33 0 -39 6 -37 33c2 29 9 27 33 27c27 0 32 2 32 25v33c0 145 98 225 192 225c50 0 114 -44 114 -92c0 -44 -42 -77 -84 -77c-21 0 -33 7 -33 22c0 18 10 42 10 60c0 12 -9 24 -23 24c-23 0 -27 -45 -27 -127c0 -74 -1 -93 34 -93h56
c24 0 29 -7 23 -33c-5 -21 -10 -27 -26 -27h-62c-28 0 -25 -13 -25 -28v-217c0 -106 77 -95 77 -129c0 -17 -11 -27 -33 -25c0 0 -68 10 -122 10c-47 0 -115 -10 -115 -10c-22 -2 -33 8 -33 25c0 34 77 23 77 129v220z" />
    <glyph glyph-name="g" unicode="g" horiz-adv-x="618" 
d="M602 558c-26 10 -56 26 -84 26c-29 0 -64 -23 -64 -58c0 -67 109 -90 109 -188c0 -120 -126 -162 -226 -162c-75 0 -116 -5 -116 -32c0 -15 18 -25 47 -25c30 0 83 7 137 7c135 0 232 -60 232 -162c0 -117 -142 -187 -316 -187c-183 0 -293 63 -293 148
c0 69 44 100 102 131c6 3 8 7 0 14c-20 17 -32 34 -32 54c0 37 21 54 54 75c6 3 8 10 -3 17c-43 39 -59 64 -59 106c0 128 111 154 204 168c30 5 22 17 24 29c11 83 76 123 163 123c70 0 124 -33 143 -61c12 -18 4 -32 -22 -23zM252 343c0 -48 24 -120 80 -120
c49 0 66 60 66 112c0 49 -28 109 -75 109c-56 0 -71 -61 -71 -101zM203 -48c0 -65 51 -100 135 -100c81 0 132 37 132 80c0 66 -129 101 -202 101c-19 0 -25 -2 -32 -7c-22 -19 -33 -54 -33 -74z" />
    <glyph glyph-name="h" unicode="h" horiz-adv-x="662" 
d="M297 154c0 -106 77 -95 77 -129c0 -17 -11 -27 -33 -25c0 0 -68 10 -122 10c-47 0 -115 -10 -115 -10c-22 -2 -33 8 -33 25c0 34 77 23 77 129v435c0 62 -11 86 -45 95c-26 7 -24 26 -2 37c24 12 73 21 120 21c60 0 76 -16 76 -89v-206c0 -17 8 -23 22 -14
c41 24 98 55 154 55c95 0 143 -71 143 -149c0 -44 -5 -150 -5 -193c0 -37 9 -64 44 -95c8 -7 10 -22 1 -26c-30 -15 -75 -25 -114 -25c-79 0 -94 41 -94 118c0 49 13 123 13 177c0 49 -15 105 -78 105c-76 0 -86 -96 -86 -180v-66z" />
    <glyph glyph-name="i" unicode="i" horiz-adv-x="365" 
d="M212 710c43 0 77 -23 77 -68c0 -46 -28 -112 -73 -112c-44 0 -75 68 -75 107c0 42 20 73 71 73zM289 150c0 -103 76 -92 76 -126c0 -16 -11 -26 -32 -24c0 0 -66 10 -119 10c-46 0 -112 -10 -112 -10c-22 -2 -33 8 -33 24c0 34 76 23 76 126v165c0 61 -11 84 -44 93
c-26 7 -24 25 -2 36c23 11 71 20 117 20c55 0 78 -15 78 -73c0 -28 -5 -54 -5 -93v-148z" />
    <glyph glyph-name="j" unicode="j" horiz-adv-x="355" 
d="M207 727c44 0 79 -24 79 -70s-30 -113 -75 -113s-77 69 -77 109c0 42 20 74 73 74zM138 323c0 62 -11 86 -45 95c-26 7 -24 25 -2 37c23 12 73 21 120 21c57 0 79 -16 79 -75c0 -29 -4 -56 -4 -96v-243c0 -128 -40 -269 -218 -269c-58 0 -100 32 -100 79
c0 33 31 68 75 68c26 0 40 -14 40 -32c0 -20 -6 -25 -6 -40c0 -11 7 -20 17 -20c25 0 44 32 44 126v349z" />
    <glyph glyph-name="k" unicode="k" horiz-adv-x="704" 
d="M527 356c-33 -26 -75 -60 -94 -78c-6 -5 -6 -9 0 -14c119 -119 209 -190 254 -222c25 -18 21 -42 3 -42c-16 0 -58 3 -95 3c-32 0 -69 -3 -82 -3c-26 0 -38 6 -63 33l-134 141c-11 11 -19 3 -19 -9c0 -106 77 -106 77 -140c0 -17 -11 -27 -33 -25c0 0 -68 10 -122 10
c-47 0 -115 -10 -115 -10c-22 -2 -33 8 -33 25c0 34 77 23 77 129v435c0 62 -11 86 -45 95c-26 7 -24 26 -2 37c24 12 73 21 120 21c60 0 76 -16 76 -89v-388c0 -11 6 -13 14 -7c46 37 92 78 92 78c44 37 36 58 6 72c-8 4 -16 11 -16 20c0 17 12 27 33 25c0 0 50 -10 97 -10
c54 0 122 10 122 10c21 2 33 -8 33 -25c0 -34 -84 -17 -151 -72z" />
    <glyph glyph-name="l" unicode="l" horiz-adv-x="374" 
d="M297 154c0 -106 77 -95 77 -129c0 -17 -11 -27 -33 -25c0 0 -68 10 -122 10c-47 0 -115 -10 -115 -10c-22 -2 -33 8 -33 25c0 34 77 23 77 129v435c0 62 -11 86 -45 95c-26 7 -24 26 -2 37c24 12 73 21 120 21c60 0 76 -16 76 -89v-499z" />
    <glyph glyph-name="m" unicode="m" horiz-adv-x="975" 
d="M611 213v-67c0 -38 9 -64 44 -95c8 -7 10 -22 1 -26c-30 -15 -75 -25 -114 -25c-79 0 -94 41 -94 118c0 49 13 123 13 177c0 49 -15 105 -78 105c-76 0 -86 -96 -86 -180v-66c0 -106 77 -95 77 -129c0 -17 -11 -27 -33 -25c0 0 -68 10 -122 10c-47 0 -115 -10 -115 -10
c-22 -2 -33 8 -33 25c0 34 77 23 77 129v169c0 62 -11 86 -45 95c-26 7 -24 26 -2 37c24 13 73 21 120 21c52 0 67 -14 67 -42c0 -19 10 -24 23 -14c34 25 106 68 162 68c58 0 98 -27 120 -65c6 -11 17 -11 31 -3c41 24 106 68 162 68c96 0 143 -71 143 -149
c0 -44 -5 -150 -5 -193c0 -37 9 -64 44 -95c8 -7 10 -22 1 -26c-30 -15 -75 -25 -114 -25c-78 0 -94 41 -94 118c0 49 13 123 13 177c0 49 -15 105 -78 105c-50 0 -85 -66 -85 -187z" />
    <glyph glyph-name="n" unicode="n" horiz-adv-x="662" 
d="M297 154c0 -106 77 -95 77 -129c0 -17 -11 -27 -33 -25c0 0 -68 10 -122 10c-47 0 -115 -10 -115 -10c-22 -2 -33 8 -33 25c0 34 77 23 77 129v169c0 62 -11 86 -45 95c-26 7 -24 26 -2 37c24 13 73 21 120 21c50 0 67 -5 67 -40c0 -16 9 -23 23 -15c41 24 106 67 162 67
c95 0 143 -70 143 -148c0 -44 -5 -159 -5 -202c0 -37 9 -64 44 -95c8 -7 10 -22 1 -27c-30 -14 -75 -24 -114 -24c-79 0 -94 41 -94 118c0 49 13 132 13 186c0 49 -15 105 -78 105c-76 0 -86 -96 -86 -180v-67z" />
    <glyph glyph-name="o" unicode="o" horiz-adv-x="625" 
d="M348 488c153 0 277 -103 277 -250c0 -151 -124 -250 -277 -250c-152 0 -277 93 -277 250c0 155 125 250 277 250zM327 428c-59 0 -98 -72 -86 -190c12 -120 68 -191 128 -191c59 0 99 76 86 191c-12 112 -68 190 -128 190z" />
    <glyph glyph-name="p" unicode="p" horiz-adv-x="640" 
d="M286 244c0 -152 44 -193 83 -193c78 0 106 123 106 191c0 105 -54 171 -111 171c-56 0 -78 -46 -78 -169zM295 438c31 14 66 39 133 39c89 0 212 -75 212 -235c0 -148 -108 -254 -235 -254c-39 0 -72 11 -91 21c-18 9 -25 2 -25 -17v-100c0 -72 -15 -87 -73 -87
c-54 0 -94 -2 -117 10c-22 11 -24 30 2 37c33 9 44 32 44 91v373c0 61 -11 83 -44 92c-26 7 -24 25 -2 36c23 11 71 20 117 20c35 0 55 2 65 -20c2 -4 8 -8 14 -6z" />
    <glyph glyph-name="q" unicode="q" horiz-adv-x="642" 
d="M424 448c5 -2 12 3 14 7c11 22 31 21 67 21c47 0 96 -8 120 -21c22 -11 24 -30 -2 -37c-34 -9 -45 -32 -45 -94v-382c0 -61 11 -84 45 -94c26 -7 24 -26 2 -37c-24 -13 -65 -11 -120 -11c-60 0 -76 16 -76 89v103c0 19 -6 27 -25 17c-19 -9 -53 -21 -93 -21
c-131 0 -240 108 -240 260c0 164 126 240 216 240c68 0 104 -25 137 -40zM433 250c0 126 -22 173 -80 173s-113 -68 -113 -175c0 -70 28 -195 108 -195c40 0 85 41 85 197z" />
    <glyph glyph-name="r" unicode="r" horiz-adv-x="520" 
d="M148 323c0 62 -11 86 -45 95c-26 7 -24 26 -2 37c24 13 73 21 120 21c51 0 69 -14 74 -51c1 -10 8 -13 17 -8c49 27 84 59 131 59c50 0 104 -36 104 -99c0 -67 -56 -109 -106 -109c-25 0 -41 12 -41 31c0 11 11 11 11 35c0 17 -16 40 -41 40c-46 0 -73 -58 -73 -135v-85
c0 -106 77 -95 77 -129c0 -17 -11 -27 -33 -25c0 0 -68 10 -122 10c-47 0 -115 -10 -115 -10c-22 -2 -33 8 -33 25c0 34 77 23 77 129v169z" />
    <glyph glyph-name="s" unicode="s" horiz-adv-x="497" 
d="M287 488c47 0 125 -15 151 -46c11 -13 18 -38 18 -60c0 -28 -14 -51 -36 -51c-20 0 -26 13 -34 33c-11 27 -37 63 -91 63c-26 0 -49 -12 -49 -38c0 -19 54 -50 86 -68l23 -13c70 -39 142 -86 142 -159c0 -89 -90 -161 -214 -161c-83 0 -212 34 -212 92
c0 18 40 100 79 100c18 0 25 -16 25 -33c0 -54 35 -105 107 -105c40 0 75 28 75 60c0 35 -54 58 -93 81l-32 19c-58 34 -125 66 -125 137c0 82 78 149 180 149z" />
    <glyph glyph-name="t" unicode="t" horiz-adv-x="439" 
d="M297 166c0 -96 42 -103 124 -103c20 0 26 -22 11 -34c-19 -16 -77 -41 -166 -41c-94 0 -118 28 -118 150v207c0 62 4 60 -50 68c-15 2 -34 5 -34 21c0 11 7 18 24 24c78 28 131 102 162 157c5 10 13 13 24 13c16 0 26 -16 26 -37c0 -27 -3 -50 -3 -82c0 -42 4 -50 34 -50
h82c24 0 30 -5 23 -33c-5 -23 -11 -27 -26 -27h-88c-28 0 -25 -13 -25 -28v-205z" />
    <glyph glyph-name="u" unicode="u" horiz-adv-x="676" 
d="M299 180c0 -49 15 -105 78 -105c76 0 86 96 86 179v69c0 62 -11 86 -45 95c-26 7 -24 26 -2 37c24 13 73 21 121 21c59 0 75 -16 75 -89v-235c0 -61 11 -84 45 -94c26 -7 24 -26 2 -37c-24 -13 -73 -21 -120 -21c-50 0 -67 5 -67 40c0 16 -9 23 -23 15
c-41 -24 -106 -67 -162 -67c-95 0 -143 70 -143 148c0 44 5 187 5 187c2 62 -11 86 -45 95c-26 7 -24 26 -2 37c24 13 80 21 128 21c59 0 75 -16 75 -89c0 -48 -6 -153 -6 -207z" />
    <glyph glyph-name="v" unicode="v" horiz-adv-x="657" 
d="M453 88c-23 -46 -32 -100 -73 -100s-77 65 -102 108l-127 218c-31 54 -45 95 -70 107c-16 8 -25 12 -25 26c0 15 11 21 33 19c0 0 68 -11 115 -11c53 0 106 11 106 11c23 2 33 -6 33 -17c0 -16 -13 -22 -22 -28c-15 -10 -22 -35 -1 -84c27 -62 65 -128 91 -156
c5 -5 14 -7 22 0c19 14 45 92 69 157c18 50 0 74 -16 84c-8 6 -32 12 -32 28c0 14 10 18 33 17c0 0 25 -5 78 -5c48 0 75 5 75 5c21 1 33 -4 33 -19c0 -14 -12 -18 -20 -21c-24 -10 -40 -20 -86 -112z" />
    <glyph glyph-name="w" unicode="w" horiz-adv-x="956" 
d="M609 466c22 2 33 -6 33 -17c0 -16 -14 -22 -22 -28c-15 -10 -20 -44 -1 -84c28 -61 63 -131 91 -156c5 -5 14 -7 21 0c20 14 46 92 70 157c19 50 0 74 -15 84c-8 6 -32 12 -32 28c0 14 10 18 33 17c0 0 25 -5 78 -5c47 0 74 5 74 5c22 1 33 -4 33 -19
c0 -14 -11 -18 -19 -21c-24 -10 -40 -20 -86 -112l-115 -227c-23 -46 -32 -100 -73 -100c-42 0 -77 65 -102 108l-64 110l-60 -118c-23 -46 -32 -100 -73 -100s-77 65 -102 108l-127 218c-24 42 -45 95 -70 107c-16 8 -25 12 -25 26c0 15 11 21 33 19c0 0 68 -11 115 -11
c53 0 106 11 106 11c23 2 33 -6 33 -17c0 -16 -13 -22 -22 -28c-15 -10 -22 -35 -1 -84c27 -62 64 -133 91 -156c5 -5 14 -7 22 0c12 8 27 46 44 88l-25 45c-28 50 -44 73 -59 97c-12 21 -34 18 -34 36c0 15 12 21 33 19c0 0 69 -11 113 -11c36 0 104 11 104 11z" />
    <glyph glyph-name="x" unicode="x" horiz-adv-x="644" 
d="M440 256l80 -107c35 -47 66 -82 95 -96c27 -14 39 -20 39 -33c0 -16 -11 -21 -32 -19c0 0 -68 10 -114 10c-52 0 -113 -10 -113 -10c-22 -2 -32 10 -32 22c0 11 4 16 8 20c14 13 12 26 -15 64l-26 37c-5 5 -9 5 -13 1l-43 -44c-23 -23 -25 -48 -9 -58c8 -6 30 -11 30 -28
c0 -14 -9 -17 -31 -16c0 0 -25 4 -78 4c-47 0 -73 -4 -73 -4c-21 -1 -31 3 -31 19c0 14 10 17 18 20c24 10 42 18 114 92l64 66c5 5 5 9 1 15l-79 105c-37 49 -69 88 -99 100c-25 11 -34 18 -34 32s11 20 31 18c0 0 67 -11 114 -11c53 0 112 12 112 12c22 2 32 -11 32 -21
c0 -11 -4 -17 -8 -21c-13 -13 -14 -30 15 -68l27 -35c3 -4 5 -4 10 0l42 43c26 27 25 48 9 58c-8 6 -31 12 -31 28c0 13 10 17 32 16c0 0 25 -5 76 -5c47 0 73 5 73 5c22 2 33 -4 33 -18s-11 -17 -19 -21c-24 -10 -75 -53 -114 -93l-60 -61c-5 -6 -5 -10 -1 -18z" />
    <glyph glyph-name="y" unicode="y" horiz-adv-x="651" 
d="M402 -27c-46 -98 -105 -179 -208 -179c-54 0 -101 24 -101 73c0 45 53 85 101 85c24 0 34 -9 34 -18c0 -17 -17 -19 -17 -39c0 -9 15 -19 26 -19c31 0 89 66 89 98c0 19 -12 38 -32 73l-155 267c-31 54 -45 95 -70 107c-16 8 -26 12 -26 26c0 15 12 21 33 19
c0 0 68 -11 116 -11c53 0 106 11 106 11c22 2 33 -6 33 -17c0 -16 -14 -22 -22 -28c-15 -10 -23 -35 -1 -84c27 -62 87 -164 87 -164c15 -28 23 -27 37 -5c27 45 43 111 65 170c17 47 0 74 -15 84c-8 6 -32 12 -32 28c0 14 10 18 33 17c0 0 25 -5 78 -5c48 0 74 5 74 5
c22 1 33 -4 33 -19c0 -14 -12 -15 -19 -21c-34 -22 -49 -34 -86 -112z" />
    <glyph glyph-name="z" unicode="z" horiz-adv-x="589" 
d="M353 49c40 0 98 9 148 68c22 27 34 56 52 56c26 0 36 -36 36 -69c0 -53 -31 -119 -67 -119c-32 0 -44 15 -136 15h-218c-71 0 -90 -3 -98 16c-8 21 20 47 65 108l188 252c17 23 15 31 4 34c-15 5 -30 6 -44 6c-47 1 -85 -25 -139 -71c-16 -14 -25 -20 -36 -20
c-17 0 -18 19 -18 36c0 43 27 120 74 120c24 0 74 -14 191 -14c49 0 105 2 134 2c27 0 56 -5 63 -20c9 -20 -43 -81 -60 -104l-170 -235c-40 -55 -26 -61 31 -61z" />
    <glyph glyph-name="braceleft" unicode="{" horiz-adv-x="507" 
d="M507 742v-49c-33 -3 -60 -10 -83 -22c-81 -41 -73 -94 -73 -151v-52c0 -169 -67 -195 -216 -222c47 -6 115 -16 159 -50c59 -45 57 -123 57 -164v-50c0 -111 27 -166 156 -180v-48c-69 4 -118 8 -172 35c-93 48 -95 111 -95 195v66c0 126 -57 154 -169 167v56
c48 8 82 14 118 40c51 37 53 94 53 137v62c0 66 -3 113 45 162c52 54 182 66 220 68z" />
    <glyph glyph-name="bar" unicode="|" horiz-adv-x="147" 
d="M147 -141h-76v883h76v-883z" />
    <glyph glyph-name="braceright" unicode="}" horiz-adv-x="507" 
d="M71 742c38 -2 167 -15 219 -68c48 -50 46 -96 46 -162v-62c0 -43 2 -100 52 -137c36 -26 70 -32 119 -40v-56c-113 -13 -169 -41 -169 -167v-66c0 -84 -2 -148 -95 -195c-55 -28 -103 -31 -172 -35v48c129 14 156 69 156 180v50c0 41 -2 119 57 164c44 34 111 44 159 50
c-149 27 -216 53 -216 222v52c0 57 8 109 -74 151c-22 11 -49 19 -82 22v49z" />
    <glyph glyph-name="asciitilde" unicode="~" horiz-adv-x="371" 
d="M176 643c40 0 79 -32 108 -32c18 0 55 24 64 24c10 0 23 -10 23 -21c0 -36 -62 -90 -118 -90c-45 0 -73 27 -104 27c-17 0 -35 -20 -53 -20c-13 0 -27 10 -27 28c0 32 54 84 107 84z" />
    <glyph glyph-name="exclamdown" unicode="&#xa1;" horiz-adv-x="610" 
d="M149 72c-11 16 -18 28 -18 43c0 25 14 43 42 65c6 5 6 9 0 15c-51 40 -71 69 -71 116c0 160 189 122 189 214c0 62 -62 88 -110 88c-23 0 -47 -6 -59 -11c-14 -5 -26 9 -14 24c15 17 55 39 111 39c46 0 198 -14 198 -149c0 -45 -4 -43 33 -61c65 -30 105 -81 105 -136
c0 -99 -88 -160 -256 -160c-24 0 -42 -6 -42 -25c0 -21 19 -35 48 -35c31 0 64 12 137 12c84 0 178 -28 178 -116c0 -126 -179 -218 -381 -218c-132 0 -211 55 -211 128c0 69 50 111 120 153c6 4 5 8 1 14zM256 332c0 -56 29 -126 76 -126c52 0 70 63 70 105
c0 66 -46 113 -77 113c-45 0 -69 -56 -69 -92zM183 -74c0 -56 34 -88 108 -88c110 0 176 69 176 128c0 53 -52 77 -111 77c-90 0 -173 -44 -173 -117z" />
    <glyph glyph-name="cent" unicode="&#xa2;" horiz-adv-x="530" 
d="M278 145c-118 20 -207 102 -207 222c0 128 83 224 210 244c11 2 13 5 13 14v56c0 7 4 12 11 12h26c8 0 12 -5 12 -13v-52c0 -8 4 -13 15 -14c78 -9 151 -55 151 -122c0 -44 -50 -75 -98 -75c-25 0 -39 13 -39 23c0 16 6 32 6 49c0 19 -8 37 -23 48c-6 4 -12 0 -12 -9
v-289c0 -21 7 -24 27 -24c49 0 94 28 129 49c11 6 22 2 29 -12c3 -4 5 -13 -4 -25c-28 -48 -102 -80 -163 -87c-16 -2 -18 -5 -18 -17v-83c0 -8 -4 -13 -12 -13h-26c-7 0 -11 5 -11 12v89c0 11 -4 15 -16 17zM281 535c-30 -19 -54 -57 -54 -113c0 -66 19 -119 50 -162
c8 -11 17 -8 17 5v263c0 9 -7 11 -13 7z" />
    <glyph glyph-name="sterling" unicode="&#xa3;" horiz-adv-x="702" 
d="M376 484h132c27 0 36 -7 31 -31c-5 -27 -14 -34 -41 -34h-82c-24 0 -25 -9 -20 -25c14 -41 19 -92 9 -159c-2 -12 2 -18 7 -22c34 -24 135 -39 152 -39c44 1 59 7 90 37c6 6 11 19 27 19c14 0 21 -15 21 -35c0 -56 -60 -184 -149 -184c-57 0 -147 62 -186 90
c-13 9 -17 4 -25 -6c-46 -57 -97 -89 -150 -89c-51 0 -122 42 -124 110c-2 82 75 137 173 137c14 0 18 7 12 23c-13 32 -53 105 -53 105c-16 32 -14 38 -48 38c-30 0 -57 -2 -64 9c-4 4 -6 13 2 30c6 15 8 26 23 26h26c9 0 14 7 11 20s-6 33 -6 47c0 145 119 226 298 226
c115 0 198 -60 198 -117c0 -52 -67 -117 -109 -117c-14 0 -22 9 -22 22c0 15 5 28 5 47c0 52 -75 112 -144 112c-38 0 -93 -20 -93 -71c0 -43 47 -120 70 -152c10 -14 13 -17 29 -17zM217 169c-44 0 -74 -31 -74 -54c0 -33 19 -53 51 -53c37 0 67 36 74 76c2 6 -1 13 -7 18
c-14 9 -27 13 -44 13z" />
    <glyph glyph-name="fraction" unicode="&#x2044;" horiz-adv-x="880" 
d="M664 587c47 61 47 95 -20 103c-15 2 -34 14 -34 27c0 16 11 27 33 25c0 0 51 -11 105 -11c47 0 114 11 114 11c22 2 33 -9 33 -25c0 -12 -12 -20 -28 -27c-43 -20 -61 -47 -105 -103l-99 -128c-77 -100 -82 -101 -82 -225v-80c0 -106 77 -95 77 -129
c0 -17 -11 -27 -33 -25c0 0 -75 10 -129 10c-47 0 -128 -10 -128 -10c-22 -2 -33 8 -33 25c0 34 77 23 77 129v63c0 81 -4 75 -70 159l-164 211c-31 40 -65 94 -95 103c-16 5 -27 13 -27 27c0 16 11 27 33 25c0 0 81 -11 128 -11c54 0 129 11 129 11c22 2 33 -9 33 -25
c0 -11 -3 -18 -11 -23c-35 -23 -37 -48 11 -107l130 -159c14 -17 17 -17 31 0zM588 932c28 0 51 -32 51 -70s-23 -69 -51 -69s-50 31 -50 69s22 70 50 70zM409 932c28 0 50 -32 50 -70s-22 -69 -50 -69s-51 31 -51 69s23 70 51 70z" />
    <glyph glyph-name="florin" unicode="&#x192;" horiz-adv-x="358" 
d="M286 154c0 -106 78 -95 78 -129c0 -17 -12 -27 -33 -25c0 0 -68 10 -122 10c-47 0 -115 -10 -115 -10c-22 -2 -33 8 -33 25c0 34 77 23 77 129v220c0 21 -4 25 -28 25c-34 0 -39 6 -37 33c2 29 8 27 33 27c27 0 32 9 32 25c0 127 78 261 273 261c102 0 183 -50 183 -133
c0 -60 -57 -107 -110 -107c-23 0 -46 8 -46 24c0 31 29 28 29 75c0 42 -31 85 -88 85c-82 0 -93 -71 -93 -174c0 -51 2 -56 34 -56h57c23 0 28 -9 23 -33c-5 -20 -10 -27 -26 -27h-62c-29 0 -26 -13 -26 -28v-217z" />
    <glyph glyph-name="section" unicode="&#xa7;" horiz-adv-x="438" 
d="M310 742c70 0 128 -58 128 -128s-58 -128 -128 -128h-111c-70 0 -128 58 -128 128s58 128 128 128h111zM310 727h-111c-62 0 -112 -51 -112 -113s50 -113 112 -113h111c62 0 112 51 112 113s-50 113 -112 113zM135 675h94v-24h-34v-92h-29v91h-31v25zM244 675h33l24 -75
l24 75h33v-116h-23v61l-25 -61h-22l-22 61v-61h-22v116z" />
    <glyph glyph-name="currency" unicode="&#xa4;" horiz-adv-x="515" 
d="M298 533l217 -168h-446z" />
    <glyph glyph-name="quotesingle" unicode="'" horiz-adv-x="206" 
d="M142 724c45 0 64 -41 64 -107c0 -76 -56 -190 -99 -190c-16 0 -28 9 -28 26c0 16 46 56 46 85c0 45 -56 29 -56 101c0 48 24 85 73 85z" />
    <glyph glyph-name="quotedblleft" unicode="&#x201c;" horiz-adv-x="381" 
d="M307 438c-46 0 -66 42 -66 109c0 78 57 195 101 195c17 0 29 -9 29 -27c0 -16 -47 -57 -47 -87c0 -46 57 -31 57 -103c0 -49 -24 -87 -74 -87zM137 438c-46 0 -66 42 -66 109c0 78 57 195 101 195c17 0 29 -9 29 -27c0 -16 -47 -57 -47 -87c0 -46 57 -31 57 -103
c0 -49 -24 -87 -74 -87z" />
    <glyph glyph-name="guillemotleft" unicode="&#xab;" horiz-adv-x="461" 
d="M199 503c14 6 54 5 66 -2c9 -8 11 -14 10 -23c-2 -15 -80 -118 -82 -137c-4 -29 76 -104 90 -132c6 -13 7 -23 2 -28c-7 -10 -29 -11 -55 -11c-34 1 -54 28 -82 59c-14 16 -66 76 -72 84c-10 19 -9 34 3 56c2 4 102 125 120 134zM372 503c14 6 54 5 66 -2
c9 -8 11 -14 10 -23c-2 -15 -80 -118 -82 -137c-3 -29 76 -104 90 -132c7 -13 7 -23 2 -28c-7 -10 -29 -11 -55 -11c-34 1 -54 28 -82 59c-14 16 -66 76 -72 84c-10 19 -9 34 3 56c2 4 102 125 120 134z" />
    <glyph glyph-name="guilsinglleft" unicode="&#x2039;" horiz-adv-x="515" 
d="M298 365l-229 168h446z" />
    <glyph glyph-name="guilsinglright" unicode="&#x203a;" horiz-adv-x="244" 
d="M71 380l173 222v-456z" />
    <glyph glyph-name="fi" unicode="&#xfb01;" horiz-adv-x="244" 
d="M244 380l-173 -234v456z" />
    <glyph glyph-name="fl" unicode="&#xfb02;" horiz-adv-x="370" 
d="M220 535c83 0 150 -67 150 -150c0 -82 -67 -149 -150 -149c-82 0 -149 67 -149 149c0 83 67 150 149 150z" />
    <glyph glyph-name="endash" unicode="&#x2013;" horiz-adv-x="777" 
d="M71 419h706v-82h-706v82z" />
    <glyph glyph-name="daggerdbl" unicode="&#x2021;" horiz-adv-x="388" 
d="M230 542c87 0 158 -71 158 -159c0 -87 -71 -157 -158 -157c-88 0 -159 70 -159 157c0 88 71 159 159 159zM230 526c-79 0 -143 -65 -143 -143s64 -142 143 -142c78 0 143 64 143 142s-65 143 -143 143z" />
    <glyph glyph-name="periodcentered" unicode="&#xb7;" horiz-adv-x="273" 
d="M157 -46c18 6 40 11 59 11c28 -1 57 -14 57 -50c0 -62 -71 -103 -151 -103c-15 0 -23 0 -32 3c-14 4 -11 23 5 25c46 6 96 13 96 51c0 15 -13 28 -34 28c-26 0 -44 -14 -60 -25c-15 -10 -34 10 -22 24c22 28 47 62 68 94c11 17 41 0 31 -15c-7 -10 -25 -33 -28 -38
s3 -7 11 -5z" />
    <glyph glyph-name="bullet" unicode="&#x2022;" horiz-adv-x="230" 
d="M150 460c44 0 80 -36 80 -79s-36 -78 -80 -78c-43 0 -79 35 -79 78s36 79 79 79z" />
    <glyph glyph-name="quotesinglbase" unicode="&#x201a;" horiz-adv-x="364" 
d="M71 558h293v-297h-293v297z" />
    <glyph glyph-name="quotedblright" unicode="&#x201d;" horiz-adv-x="372" 
d="M142 724c45 0 64 -41 64 -107c0 -76 -56 -190 -99 -190c-16 0 -28 9 -28 26c0 16 46 56 46 85c0 45 -56 29 -56 101c0 48 24 85 73 85zM308 724c45 0 64 -41 64 -107c0 -76 -56 -190 -99 -190c-17 0 -28 9 -28 26c0 16 45 56 45 85c0 45 -55 29 -55 101c0 48 23 85 73 85
z" />
    <glyph glyph-name="guillemotright" unicode="&#xbb;" horiz-adv-x="473" 
d="M340 515c18 -8 120 -133 122 -137c13 -23 14 -38 3 -57c-6 -9 -58 -70 -74 -87c-27 -31 -48 -59 -83 -60c-27 0 -50 1 -57 11c-5 6 -5 16 2 29c15 29 96 105 93 135c-2 21 -82 126 -84 140c-1 10 1 17 11 24c11 7 52 8 67 2zM163 515c18 -8 120 -133 122 -137
c13 -23 14 -38 3 -57c-6 -9 -58 -70 -74 -87c-28 -31 -48 -59 -83 -60c-27 0 -50 1 -57 11c-5 6 -5 16 2 29c15 29 96 105 93 135c-2 21 -82 126 -85 140c-1 10 1 17 12 24s52 8 67 2z" />
    <glyph glyph-name="grave" unicode="`" horiz-adv-x="214" 
d="M175 646l36 -95c12 -32 -29 -35 -50 -11l-77 89c-23 26 -18 40 12 40h40c26 0 31 -2 39 -23z" />
    <glyph glyph-name="acute" unicode="&#xb4;" horiz-adv-x="214" 
d="M108 646c8 21 14 23 39 23h40c30 0 35 -13 12 -40l-76 -89c-21 -24 -63 -20 -51 11z" />
    <glyph glyph-name="circumflex" unicode="&#x2c6;" horiz-adv-x="339" 
d="M177 919h55c23 0 38 -10 52 -29l50 -67c15 -21 -10 -43 -37 -29c-35 19 -56 46 -90 46c-22 0 -57 -23 -94 -43c-23 -12 -56 3 -36 30l47 65c15 20 25 27 53 27z" />
    <glyph glyph-name="tilde" unicode="&#x2dc;" horiz-adv-x="380" 
d="M180 913c41 0 82 -31 111 -31c18 0 56 24 65 24c12 0 24 -10 24 -21c0 -37 -64 -92 -120 -92c-47 0 -76 27 -107 27c-18 0 -36 -20 -55 -20c-13 0 -27 9 -27 28c0 33 55 85 109 85z" />
    <glyph glyph-name="dieresis" unicode="&#xa8;" horiz-adv-x="343" 
d="M294 660c26 0 49 -31 49 -68s-23 -68 -49 -68c-27 0 -50 31 -50 68s23 68 50 68zM118 660c28 0 50 -31 50 -68s-22 -68 -50 -68c-26 0 -49 31 -49 68s23 68 49 68z" />
    <glyph glyph-name="ring" unicode="&#x2da;" horiz-adv-x="236" 
d="M152 690c47 0 84 -37 84 -83s-37 -83 -84 -83c-46 0 -83 37 -83 83s37 83 83 83zM152 647c-20 0 -40 -19 -40 -40s20 -40 40 -40c22 0 41 19 41 40s-19 40 -41 40z" />
    <glyph glyph-name="emdash" unicode="&#x2014;" horiz-adv-x="904" 
d="M71 419h833v-82h-833v82z" />
    <glyph glyph-name="AE" unicode="&#xc6;" horiz-adv-x="1256" 
d="M639 653l-138 -204c-18 -27 -18 -37 13 -37h118c28 0 31 9 31 35v202c0 30 -9 27 -24 4zM991 417c65 0 88 18 103 52c5 12 13 25 31 25c19 0 32 -12 31 -33c0 0 -5 -26 -5 -80c0 -47 5 -80 5 -80c1 -21 -12 -33 -31 -33c-18 0 -25 13 -31 26c-18 31 -41 51 -103 51h-99
c-49 0 -59 -22 -59 -94v-102c0 -66 37 -94 118 -94c126 0 214 52 254 124c12 22 20 47 42 47c21 0 31 -25 31 -64c0 -71 -34 -181 -107 -181c-77 0 -318 29 -422 29c-48 0 -129 -10 -129 -10c-22 -2 -33 8 -33 25c0 34 77 23 77 129v131c0 56 -4 57 -56 57h-116
c-65 0 -74 -4 -100 -48l-88 -148c-29 -48 -16 -70 30 -91c12 -7 22 -21 19 -33c-4 -18 -18 -24 -40 -22c0 0 -46 10 -100 10c-47 0 -115 -10 -115 -10c-22 -2 -30 8 -26 25c7 34 73 33 140 131l307 449c38 56 6 77 -26 96c-21 12 -16 42 8 41c0 0 200 -11 248 -11
c68 0 138 11 238 11c116 0 223 -19 223 -81s-26 -128 -62 -128c-23 0 -38 14 -38 35c0 86 -114 119 -192 119c-68 0 -85 -46 -85 -101v-91c0 -62 6 -78 59 -78h99z" />
    <glyph glyph-name="ordfeminine" unicode="&#xaa;" horiz-adv-x="365" 
d="M365 536v-294h-294v294h294zM83 254h269v269h-269v-269z" />
    <glyph glyph-name="Oslash" unicode="&#xd8;" horiz-adv-x="903" 
d="M669 516l-325 -352c55 -70 127 -115 198 -115c137 0 207 145 177 322c-9 52 -26 101 -50 145zM302 230l325 351c-54 68 -124 111 -194 111c-139 0 -208 -144 -178 -321c9 -51 25 -99 47 -141zM182 100c-69 71 -111 167 -111 271c0 219 167 397 416 397
c91 0 175 -28 243 -75l70 75h103l-114 -123c71 -71 114 -168 114 -274c0 -220 -169 -398 -416 -398c-92 0 -177 29 -247 78l-66 -72h-103z" />
    <glyph glyph-name="OE" unicode="&#x152;" horiz-adv-x="1236" 
d="M622 117v445c0 97 -109 130 -189 130c-139 0 -208 -144 -178 -321c29 -177 158 -322 287 -322c34 0 80 25 80 68zM850 345c-49 0 -59 -22 -59 -94v-102c0 -66 37 -94 117 -94c127 0 215 52 255 124c12 22 19 47 42 47c21 0 31 -25 31 -64c0 -71 -34 -181 -107 -181
c-78 0 -318 29 -423 29c-72 0 -129 -37 -219 -37c-229 0 -416 178 -416 398c0 219 167 397 416 397c98 0 156 -37 219 -37c68 0 138 11 238 11c117 0 224 -19 224 -81s-26 -128 -62 -128c-24 0 -38 14 -38 35c0 86 -114 119 -193 119c-68 0 -84 -46 -84 -101v-91
c0 -62 6 -78 59 -78h99c64 0 87 18 102 52c5 12 14 25 31 25c20 0 32 -12 31 -33c0 0 -4 -26 -4 -80c0 -47 4 -80 4 -80c1 -21 -11 -33 -31 -33c-17 0 -24 13 -31 26c-17 31 -41 51 -102 51h-99z" />
    <glyph glyph-name="ae" unicode="&#xe6;" horiz-adv-x="824" 
d="M514 341c1 -30 25 -40 87 -40c59 0 66 16 66 41c0 42 -33 82 -70 82c-50 0 -84 -52 -83 -83zM402 69c-42 -46 -101 -81 -182 -81c-63 0 -142 41 -142 122c0 94 85 148 184 148c39 0 63 -13 63 -30c0 -12 -11 -18 -24 -22c-37 -11 -80 -26 -80 -75c0 -43 27 -69 61 -69
c39 0 79 28 79 172c0 177 -60 196 -116 196c-28 0 -67 -6 -67 -39c0 -24 24 -33 24 -50c0 -21 -29 -40 -61 -40c-28 -3 -70 12 -70 56c0 67 99 131 228 131c57 0 129 -8 170 -35c38 22 83 35 133 35c127 0 222 -93 222 -194c0 -34 -11 -52 -63 -52h-199c-34 0 -53 2 -53 -31
c0 -47 43 -141 147 -141c47 0 88 25 116 41c12 7 27 6 35 -4c10 -12 2 -34 -8 -45c-35 -41 -111 -74 -182 -74c-95 0 -167 33 -215 81z" />
    <glyph glyph-name="dotlessi" unicode="&#x131;" horiz-adv-x="374" 
d="M297 154c0 -106 77 -95 77 -129c0 -17 -11 -27 -33 -25c0 0 -68 10 -122 10c-47 0 -115 -10 -115 -10c-22 -2 -33 8 -33 25c0 34 77 23 77 129v169c0 62 -11 86 -45 95c-26 7 -24 26 -2 37c24 13 73 21 120 21c57 0 80 -16 80 -75c0 -29 -4 -56 -4 -96v-151z" />
    <glyph glyph-name="oslash" unicode="&#xf8;" horiz-adv-x="625" 
d="M447 286l-164 -183c24 -36 55 -56 86 -56c59 0 99 76 86 191c-2 17 -5 33 -8 48zM250 182l164 185c-23 39 -55 61 -87 61c-59 0 -98 -72 -86 -190c2 -20 5 -39 9 -56zM144 62c-45 43 -73 102 -73 176c0 155 125 250 277 250c53 0 102 -12 143 -34l31 34h103l-71 -80
c44 -43 71 -102 71 -170c0 -151 -124 -250 -277 -250c-51 0 -99 10 -140 30l-34 -39h-103z" />
    <glyph glyph-name="oe" unicode="&#x153;" horiz-adv-x="910" 
d="M600 341c1 -30 25 -40 88 -40c59 0 66 16 66 41c0 42 -33 82 -70 82c-51 0 -85 -52 -84 -83zM523 40c-47 -34 -108 -52 -175 -52c-152 0 -277 93 -277 250c0 155 125 250 277 250c67 0 129 -19 177 -54c43 34 100 54 164 54c127 0 221 -93 221 -194
c0 -34 -11 -52 -62 -52h-199c-34 0 -54 2 -54 -31c0 -47 44 -141 148 -141c47 0 87 24 116 41c11 6 27 6 35 -4c9 -12 2 -34 -8 -45c-35 -41 -112 -74 -183 -74c-74 0 -133 20 -180 52zM327 428c-59 0 -98 -72 -86 -190c12 -120 68 -191 128 -191c59 0 99 76 86 191
c-12 112 -68 190 -128 190z" />
    <glyph glyph-name="germandbls" unicode="&#xdf;" horiz-adv-x="657" 
d="M87 46c39 17 48 27 48 90v233c0 34 -4 38 -28 38c-20 0 -27 6 -27 33c0 20 9 30 21 30h17c20 0 26 11 26 46c0 76 60 223 258 223c106 0 179 -50 179 -106c0 -82 -131 -140 -131 -197c0 -76 207 -185 207 -304c0 -87 -61 -144 -172 -144c-84 0 -174 32 -174 86
c0 27 28 78 58 78c26 0 31 -15 35 -34c7 -35 14 -70 57 -70c25 0 54 19 54 49c0 71 -190 167 -190 250c0 65 128 182 128 263c0 36 -31 76 -68 76c-65 0 -93 -90 -93 -200v-401c0 -71 -14 -89 -55 -87l-154 8c-18 1 -16 32 4 40z" />
    <glyph glyph-name="logicalnot" unicode="&#xac;" horiz-adv-x="152" 
d="M71 742h81v-831h-81v831z" />
    <glyph glyph-name="trademark" unicode="&#x2122;" horiz-adv-x="340" 
d="M71 742h111v-26h-41v-112h-33v112h-37v26zM243 742l31 -92l30 92h36v-138h-24v94l-32 -94h-24l-30 89v-89h-26v138h39z" />
    <glyph glyph-name="degree" unicode="&#xb0;" horiz-adv-x="223" 
d="M71 476h152v-150h-152v150z" />
    <glyph glyph-name="registered" unicode="&#xae;" horiz-adv-x="279" 
d="M138 695h39c31 0 51 -5 51 -34c0 -22 -23 -30 -35 -31l33 -52h-18l-34 51h-21v-48h-15v114zM156 646h18c30 0 36 3 36 15c0 14 -5 19 -32 19h-22v-34zM175 742c58 0 104 -47 104 -105c0 -57 -46 -104 -104 -104s-104 47 -104 104c0 58 46 105 104 105zM175 723
c-46 0 -85 -39 -85 -86c0 -46 39 -85 85 -85s86 39 86 85c0 47 -40 86 -86 86z" />
    <glyph glyph-name="copyright" unicode="&#xa9;" horiz-adv-x="275" 
d="M226 669h-20c-8 14 -19 19 -34 19c-13 0 -37 -17 -37 -48c0 -20 12 -46 40 -46c17 0 25 12 31 23h19c-8 -17 -24 -38 -48 -38c-34 0 -66 22 -66 61c0 31 27 62 63 62c33 0 47 -17 52 -33zM173 742c56 0 102 -47 102 -102c0 -56 -46 -101 -102 -101s-102 45 -102 101
c0 55 46 102 102 102zM173 727c-48 0 -88 -39 -88 -87c0 -49 40 -87 88 -87s88 38 88 87c0 48 -40 87 -88 87z" />
    <glyph glyph-name="Aacute" unicode="&#xc1;" horiz-adv-x="836" 
d="M403 521l-63 -156c-11 -27 -7 -38 20 -38h112c27 0 34 11 23 36l-67 154c-12 27 -16 27 -25 4zM583 106c0 40 -16 106 -38 125c-17 12 -50 23 -84 23h-106c-81 0 -97 -66 -97 -123c0 -77 79 -74 79 -106c0 -17 -12 -27 -33 -25c0 0 -50 10 -103 10
c-48 0 -112 -10 -112 -10c-22 -2 -33 8 -33 25c0 34 67 32 111 131l210 470c16 35 30 68 38 99c6 24 24 38 43 38c40 0 61 -48 83 -98l221 -505c30 -68 42 -90 70 -110c10 -7 20 -13 20 -27c0 -17 -12 -25 -33 -23c0 0 -75 10 -129 10c-47 0 -129 -10 -129 -10
c-21 -2 -33 8 -33 25c0 34 55 26 55 81zM446 917c8 21 13 23 40 23h41c30 0 36 -14 12 -41l-79 -92c-21 -24 -63 -21 -51 12z" />
    <glyph glyph-name="Acircumflex" unicode="&#xc2;" horiz-adv-x="836" 
d="M403 521l-63 -156c-11 -27 -7 -38 20 -38h112c27 0 34 11 23 36l-67 154c-12 27 -16 27 -25 4zM583 106c0 40 -16 106 -38 125c-17 12 -50 23 -84 23h-106c-81 0 -97 -66 -97 -123c0 -77 79 -74 79 -106c0 -17 -12 -27 -33 -25c0 0 -50 10 -103 10
c-48 0 -112 -10 -112 -10c-22 -2 -33 8 -33 25c0 34 67 32 111 131l210 470c16 35 30 68 38 99c6 24 24 38 43 38c40 0 61 -48 83 -98l221 -505c30 -68 42 -90 70 -110c10 -7 20 -13 20 -27c0 -17 -12 -25 -33 -23c0 0 -75 10 -129 10c-47 0 -129 -10 -129 -10
c-21 -2 -33 8 -33 25c0 34 55 26 55 81zM438 919h54c24 0 39 -9 53 -29l49 -67c16 -21 -9 -44 -37 -29c-35 18 -55 46 -89 46c-22 0 -57 -23 -94 -43c-24 -12 -56 2 -36 30l46 65c15 21 26 27 54 27z" />
    <glyph glyph-name="Adieresis" unicode="&#xc4;" horiz-adv-x="836" 
d="M403 521l-63 -156c-11 -27 -7 -38 20 -38h112c27 0 34 11 23 36l-67 154c-12 27 -16 27 -25 4zM583 106c0 40 -16 106 -38 125c-17 12 -50 23 -84 23h-106c-81 0 -97 -66 -97 -123c0 -77 79 -74 79 -106c0 -17 -12 -27 -33 -25c0 0 -50 10 -103 10
c-48 0 -112 -10 -112 -10c-22 -2 -33 8 -33 25c0 34 67 32 111 131l210 470c16 35 30 68 38 99c6 24 24 38 43 38c40 0 61 -48 83 -98l221 -505c30 -68 42 -90 70 -110c10 -7 20 -13 20 -27c0 -17 -12 -25 -33 -23c0 0 -75 10 -129 10c-47 0 -129 -10 -129 -10
c-21 -2 -33 8 -33 25c0 34 55 26 55 81zM546 932c28 0 50 -32 50 -70s-22 -69 -50 -69s-51 31 -51 69s23 70 51 70zM367 932c27 0 50 -32 50 -70s-23 -69 -50 -69c-28 0 -51 31 -51 69s23 70 51 70z" />
    <glyph glyph-name="Agrave" unicode="&#xc0;" horiz-adv-x="836" 
d="M403 521l-63 -156c-11 -27 -7 -38 20 -38h112c27 0 34 11 23 36l-67 154c-12 27 -16 27 -25 4zM583 106c0 40 -16 106 -38 125c-17 12 -50 23 -84 23h-106c-81 0 -97 -66 -97 -123c0 -77 79 -74 79 -106c0 -17 -12 -27 -33 -25c0 0 -50 10 -103 10
c-48 0 -112 -10 -112 -10c-22 -2 -33 8 -33 25c0 34 67 32 111 131l210 470c16 35 30 68 38 99c6 24 24 38 43 38c40 0 61 -48 83 -98l221 -505c30 -68 42 -90 70 -110c10 -7 20 -13 20 -27c0 -17 -12 -25 -33 -23c0 0 -75 10 -129 10c-47 0 -129 -10 -129 -10
c-21 -2 -33 8 -33 25c0 34 55 26 55 81zM491 917l37 -98c12 -33 -30 -36 -51 -12l-78 92c-24 28 -19 41 11 41h41c27 0 32 -2 40 -23z" />
    <glyph glyph-name="Aring" unicode="&#xc5;" horiz-adv-x="836" 
d="M403 521l-63 -156c-11 -27 -7 -38 20 -38h112c27 0 34 11 23 36l-67 154c-12 27 -16 27 -25 4zM583 106c0 40 -16 106 -38 125c-17 12 -50 23 -84 23h-106c-81 0 -97 -66 -97 -123c0 -77 79 -74 79 -106c0 -17 -12 -27 -33 -25c0 0 -50 10 -103 10
c-48 0 -112 -10 -112 -10c-22 -2 -33 8 -33 25c0 34 67 32 111 131l210 470c16 35 30 68 38 99c6 24 24 38 43 38c40 0 61 -48 83 -98l221 -505c30 -68 42 -90 70 -110c10 -7 20 -13 20 -27c0 -17 -12 -25 -33 -23c0 0 -75 10 -129 10c-47 0 -129 -10 -129 -10
c-21 -2 -33 8 -33 25c0 34 55 26 55 81zM458 963c48 0 86 -38 86 -86c0 -46 -39 -84 -86 -84c-46 0 -85 38 -85 84c0 48 38 86 85 86zM458 919c-21 0 -41 -20 -41 -42c0 -21 20 -40 41 -40c22 0 41 19 41 40c0 22 -19 42 -41 42z" />
    <glyph glyph-name="Atilde" unicode="&#xc3;" horiz-adv-x="836" 
d="M403 521l-63 -156c-11 -27 -7 -38 20 -38h112c27 0 34 11 23 36l-67 154c-12 27 -16 27 -25 4zM583 106c0 40 -16 106 -38 125c-17 12 -50 23 -84 23h-106c-81 0 -97 -66 -97 -123c0 -77 79 -74 79 -106c0 -17 -12 -27 -33 -25c0 0 -50 10 -103 10
c-48 0 -112 -10 -112 -10c-22 -2 -33 8 -33 25c0 34 67 32 111 131l210 470c16 35 30 68 38 99c6 24 24 38 43 38c40 0 61 -48 83 -98l221 -505c30 -68 42 -90 70 -110c10 -7 20 -13 20 -27c0 -17 -12 -25 -33 -23c0 0 -75 10 -129 10c-47 0 -129 -10 -129 -10
c-21 -2 -33 8 -33 25c0 34 55 26 55 81zM433 913c41 0 81 -31 111 -31c17 0 55 24 65 24c11 0 23 -10 23 -21c0 -37 -64 -92 -120 -92c-47 0 -75 27 -106 27c-19 0 -36 -20 -56 -20c-12 0 -27 9 -27 28c0 33 55 85 110 85z" />
    <glyph glyph-name="Ccedilla" unicode="&#xc7;" horiz-adv-x="802" 
d="M407 -19c-184 34 -336 179 -336 394c0 239 193 393 389 393c142 0 309 -38 309 -151c0 -58 -21 -119 -60 -119c-32 0 -42 25 -53 72c-23 93 -107 134 -185 134c-127 0 -206 -124 -206 -310c0 -196 98 -331 256 -331c91 0 202 63 202 160c0 25 8 47 34 47s45 -23 45 -68
c0 -159 -173 -228 -313 -228c-15 0 -30 1 -44 2c-8 -10 -19 -23 -21 -27c-3 -6 3 -8 11 -6c18 7 40 12 59 12c28 -1 57 -15 57 -51c0 -62 -71 -103 -151 -103c-15 0 -23 0 -32 3c-14 4 -11 24 5 26c46 5 96 12 96 51c0 15 -13 27 -34 27c-26 0 -44 -13 -60 -24
c-15 -11 -33 9 -22 23c18 22 36 49 54 74z" />
    <glyph glyph-name="Eacute" unicode="&#xc9;" horiz-adv-x="762" 
d="M376 345c-49 0 -59 -22 -59 -94v-102c0 -66 37 -94 118 -94c126 0 214 52 254 124c12 22 20 47 42 47c21 0 31 -25 31 -64c0 -71 -34 -181 -107 -181c-77 0 -318 29 -422 29c-48 0 -129 -10 -129 -10c-22 -2 -33 8 -33 25c0 34 77 23 77 129v433c0 106 -77 96 -77 130
c0 16 11 27 33 25c0 0 81 -11 129 -11c68 0 138 11 238 11c116 0 223 -19 223 -81s-26 -128 -62 -128c-23 0 -38 14 -38 35c0 86 -114 119 -192 119c-68 0 -85 -46 -85 -101v-91c0 -62 6 -78 59 -78h99c65 0 88 18 103 52c5 12 13 25 31 25c19 0 32 -12 31 -33
c0 0 -5 -26 -5 -80c0 -47 5 -80 5 -80c1 -21 -12 -33 -31 -33c-18 0 -25 13 -31 26c-18 31 -41 51 -103 51h-99zM369 917c8 21 13 23 40 23h41c30 0 35 -13 11 -41l-78 -92c-21 -25 -63 -21 -51 12z" />
    <glyph glyph-name="Ecircumflex" unicode="&#xca;" horiz-adv-x="762" 
d="M376 345c-49 0 -59 -22 -59 -94v-102c0 -66 37 -94 118 -94c126 0 214 52 254 124c12 22 20 47 42 47c21 0 31 -25 31 -64c0 -71 -34 -181 -107 -181c-77 0 -318 29 -422 29c-48 0 -129 -10 -129 -10c-22 -2 -33 8 -33 25c0 34 77 23 77 129v433c0 106 -77 96 -77 130
c0 16 11 27 33 25c0 0 81 -11 129 -11c68 0 138 11 238 11c116 0 223 -19 223 -81s-26 -128 -62 -128c-23 0 -38 14 -38 35c0 86 -114 119 -192 119c-68 0 -85 -46 -85 -101v-91c0 -62 6 -78 59 -78h99c65 0 88 18 103 52c5 12 13 25 31 25c19 0 32 -12 31 -33
c0 0 -5 -26 -5 -80c0 -47 5 -80 5 -80c1 -21 -12 -33 -31 -33c-18 0 -25 13 -31 26c-18 31 -41 51 -103 51h-99zM352 919h55c23 0 38 -10 52 -29l50 -67c15 -21 -10 -43 -37 -29c-35 19 -56 46 -90 46c-22 0 -57 -23 -94 -43c-23 -12 -56 3 -36 30l47 65c15 20 25 27 53 27z
" />
    <glyph glyph-name="Edieresis" unicode="&#xcb;" horiz-adv-x="762" 
d="M376 345c-49 0 -59 -22 -59 -94v-102c0 -66 37 -94 118 -94c126 0 214 52 254 124c12 22 20 47 42 47c21 0 31 -25 31 -64c0 -71 -34 -181 -107 -181c-77 0 -318 29 -422 29c-48 0 -129 -10 -129 -10c-22 -2 -33 8 -33 25c0 34 77 23 77 129v433c0 106 -77 96 -77 130
c0 16 11 27 33 25c0 0 81 -11 129 -11c68 0 138 11 238 11c116 0 223 -19 223 -81s-26 -128 -62 -128c-23 0 -38 14 -38 35c0 86 -114 119 -192 119c-68 0 -85 -46 -85 -101v-91c0 -62 6 -78 59 -78h99c65 0 88 18 103 52c5 12 13 25 31 25c19 0 32 -12 31 -33
c0 0 -5 -26 -5 -80c0 -47 5 -80 5 -80c1 -21 -12 -33 -31 -33c-18 0 -25 13 -31 26c-18 31 -41 51 -103 51h-99zM470 932c27 0 50 -32 50 -70s-23 -69 -50 -69c-28 0 -51 31 -51 69s23 70 51 70zM290 932c28 0 51 -32 51 -70s-23 -69 -51 -69c-27 0 -50 31 -50 69
s23 70 50 70z" />
    <glyph glyph-name="Egrave" unicode="&#xc8;" horiz-adv-x="762" 
d="M376 345c-49 0 -59 -22 -59 -94v-102c0 -66 37 -94 118 -94c126 0 214 52 254 124c12 22 20 47 42 47c21 0 31 -25 31 -64c0 -71 -34 -181 -107 -181c-77 0 -318 29 -422 29c-48 0 -129 -10 -129 -10c-22 -2 -33 8 -33 25c0 34 77 23 77 129v433c0 106 -77 96 -77 130
c0 16 11 27 33 25c0 0 81 -11 129 -11c68 0 138 11 238 11c116 0 223 -19 223 -81s-26 -128 -62 -128c-23 0 -38 14 -38 35c0 86 -114 119 -192 119c-68 0 -85 -46 -85 -101v-91c0 -62 6 -78 59 -78h99c65 0 88 18 103 52c5 12 13 25 31 25c19 0 32 -12 31 -33
c0 0 -5 -26 -5 -80c0 -47 5 -80 5 -80c1 -21 -12 -33 -31 -33c-18 0 -25 13 -31 26c-18 31 -41 51 -103 51h-99zM398 917l37 -98c12 -32 -31 -37 -52 -12l-78 92c-24 28 -19 41 11 41h41c27 0 33 -2 41 -23z" />
    <glyph glyph-name="Iacute" unicode="&#xcd;" horiz-adv-x="394" 
d="M317 154c0 -106 77 -95 77 -129c0 -17 -11 -27 -33 -25c0 0 -75 10 -128 10c-48 0 -129 -10 -129 -10c-22 -2 -33 8 -33 25c0 34 77 23 77 129v433c0 106 -77 96 -77 130c0 16 11 27 33 25c0 0 81 -11 129 -11c53 0 128 11 128 11c22 2 33 -9 33 -25
c0 -34 -77 -24 -77 -130v-433zM235 917c8 21 13 23 40 23h41c30 0 35 -13 11 -41l-78 -92c-21 -24 -63 -21 -51 12z" />
    <glyph glyph-name="Icircumflex" unicode="&#xce;" horiz-adv-x="394" 
d="M317 154c0 -106 77 -95 77 -129c0 -17 -11 -27 -33 -25c0 0 -75 10 -128 10c-48 0 -129 -10 -129 -10c-22 -2 -33 8 -33 25c0 34 77 23 77 129v433c0 106 -77 96 -77 130c0 16 11 27 33 25c0 0 81 -11 129 -11c53 0 128 11 128 11c22 2 33 -9 33 -25
c0 -34 -77 -24 -77 -130v-433zM213 919h55c23 0 38 -10 52 -29l50 -67c15 -21 -10 -43 -37 -29c-35 19 -56 46 -90 46c-22 0 -57 -23 -94 -43c-23 -12 -56 3 -36 30l47 65c15 20 25 27 53 27z" />
    <glyph glyph-name="Idieresis" unicode="&#xcf;" horiz-adv-x="394" 
d="M317 154c0 -106 77 -95 77 -129c0 -17 -11 -27 -33 -25c0 0 -75 10 -128 10c-48 0 -129 -10 -129 -10c-22 -2 -33 8 -33 25c0 34 77 23 77 129v433c0 106 -77 96 -77 130c0 16 11 27 33 25c0 0 81 -11 129 -11c53 0 128 11 128 11c22 2 33 -9 33 -25
c0 -34 -77 -24 -77 -130v-433zM315 932c28 0 51 -32 51 -70s-23 -69 -51 -69s-50 31 -50 69s22 70 50 70zM136 932c28 0 50 -32 50 -70s-22 -69 -50 -69s-51 31 -51 69s23 70 51 70z" />
    <glyph glyph-name="Igrave" unicode="&#xcc;" horiz-adv-x="394" 
d="M317 154c0 -106 77 -95 77 -129c0 -17 -11 -27 -33 -25c0 0 -75 10 -128 10c-48 0 -129 -10 -129 -10c-22 -2 -33 8 -33 25c0 34 77 23 77 129v433c0 106 -77 96 -77 130c0 16 11 27 33 25c0 0 81 -11 129 -11c53 0 128 11 128 11c22 2 33 -9 33 -25
c0 -34 -77 -24 -77 -130v-433zM274 917l37 -98c12 -32 -30 -36 -51 -12l-79 92c-24 27 -18 41 12 41h41c27 0 32 -2 40 -23z" />
    <glyph glyph-name="Ntilde" unicode="&#xd1;" horiz-adv-x="853" 
d="M335 615l313 -313c8 -8 25 -19 31 -19c10 0 12 8 12 40v264c0 106 -77 96 -77 130c0 16 11 28 33 25c0 0 48 -11 86 -11c40 0 87 11 87 11c21 3 33 -9 33 -25c0 -34 -78 -24 -78 -130v-513c0 -19 15 -106 -31 -106c-21 0 -30 20 -52 46c-16 20 -39 43 -67 71l-345 354
c-38 38 -47 33 -47 -27v-258c0 -106 77 -95 77 -129c0 -17 -11 -28 -33 -25c0 0 -46 10 -86 10c-39 0 -87 -10 -87 -10c-22 -3 -33 8 -33 25c0 34 77 23 77 129v393c0 64 -39 135 -98 135c-11 0 -21 -2 -29 -2c-13 0 -27 9 -27 23c0 35 87 52 125 52c94 0 155 -79 216 -140z
M407 913c41 0 81 -31 111 -31c18 0 56 24 65 24c11 0 24 -10 24 -21c0 -37 -64 -92 -121 -92c-46 0 -75 27 -106 27c-19 0 -36 -20 -56 -20c-12 0 -26 9 -26 28c0 33 54 85 109 85z" />
    <glyph glyph-name="Oacute" unicode="&#xd3;" horiz-adv-x="903" 
d="M487 768c229 0 416 -178 416 -397c0 -220 -169 -398 -416 -398c-229 0 -416 178 -416 398c0 219 167 397 416 397zM433 692c-139 0 -208 -144 -178 -321c29 -177 158 -322 287 -322c137 0 207 145 177 322s-158 321 -286 321zM461 927c8 22 14 24 41 24h41
c30 0 35 -14 11 -42l-78 -91c-22 -25 -64 -21 -52 11z" />
    <glyph glyph-name="Ocircumflex" unicode="&#xd4;" horiz-adv-x="903" 
d="M487 768c229 0 416 -178 416 -397c0 -220 -169 -398 -416 -398c-229 0 -416 178 -416 398c0 219 167 397 416 397zM433 692c-139 0 -208 -144 -178 -321c29 -177 158 -322 287 -322c137 0 207 145 177 322s-158 321 -286 321zM458 929h55c24 0 37 -9 52 -29l50 -67
c15 -20 -9 -44 -37 -29c-35 18 -56 47 -90 47c-21 0 -56 -24 -94 -44c-23 -12 -56 3 -36 30l47 65c15 21 25 27 53 27z" />
    <glyph glyph-name="Odieresis" unicode="&#xd6;" horiz-adv-x="903" 
d="M487 768c229 0 416 -178 416 -397c0 -220 -169 -398 -416 -398c-229 0 -416 178 -416 398c0 219 167 397 416 397zM433 692c-139 0 -208 -144 -178 -321c29 -177 158 -322 287 -322c137 0 207 145 177 322s-158 321 -286 321zM575 942c27 0 50 -32 50 -70
s-23 -69 -50 -69c-28 0 -51 31 -51 69s23 70 51 70zM395 942c28 0 51 -32 51 -70s-23 -69 -51 -69c-27 0 -50 31 -50 69s23 70 50 70z" />
    <glyph glyph-name="Ograve" unicode="&#xd2;" horiz-adv-x="903" 
d="M487 768c229 0 416 -178 416 -397c0 -220 -169 -398 -416 -398c-229 0 -416 178 -416 398c0 219 167 397 416 397zM433 692c-139 0 -208 -144 -178 -321c29 -177 158 -322 287 -322c137 0 207 145 177 322s-158 321 -286 321zM517 927l37 -98c12 -32 -30 -36 -51 -11
l-79 91c-24 27 -18 42 12 42h41c27 0 32 -2 40 -24z" />
    <glyph glyph-name="Otilde" unicode="&#xd5;" horiz-adv-x="903" 
d="M487 768c229 0 416 -178 416 -397c0 -220 -169 -398 -416 -398c-229 0 -416 178 -416 398c0 219 167 397 416 397zM433 692c-139 0 -208 -144 -178 -321c29 -177 158 -322 287 -322c137 0 207 145 177 322s-158 321 -286 321zM458 924c41 0 82 -32 112 -32
c17 0 55 25 64 25c12 0 24 -11 24 -22c0 -37 -64 -92 -120 -92c-47 0 -76 27 -106 27c-19 0 -37 -19 -56 -19c-12 0 -27 9 -27 27c0 33 55 86 109 86z" />
    <glyph glyph-name="Uacute" unicode="&#xda;" horiz-adv-x="884" 
d="M806 343c0 -137 -25 -370 -326 -370c-261 0 -332 152 -332 361v253c0 106 -77 96 -77 130c0 16 11 27 33 25c0 0 81 -11 129 -11c53 0 128 11 128 11c22 2 33 -9 33 -25c0 -34 -77 -24 -77 -130v-229c0 -167 40 -311 190 -311c142 0 215 90 215 279v261
c0 106 -77 96 -77 130c0 16 11 28 33 25c0 0 48 -11 86 -11c40 0 87 11 87 11c21 3 33 -9 33 -25c0 -34 -78 -24 -78 -130v-244zM503 917c8 21 13 23 40 23h41c30 0 35 -13 11 -41l-78 -92c-21 -25 -64 -20 -52 12z" />
    <glyph glyph-name="Ucircumflex" unicode="&#xdb;" horiz-adv-x="884" 
d="M806 343c0 -137 -25 -370 -326 -370c-261 0 -332 152 -332 361v253c0 106 -77 96 -77 130c0 16 11 27 33 25c0 0 81 -11 129 -11c53 0 128 11 128 11c22 2 33 -9 33 -25c0 -34 -77 -24 -77 -130v-229c0 -167 40 -311 190 -311c142 0 215 90 215 279v261
c0 106 -77 96 -77 130c0 16 11 28 33 25c0 0 48 -11 86 -11c40 0 87 11 87 11c21 3 33 -9 33 -25c0 -34 -78 -24 -78 -130v-244zM465 919h55c24 0 39 -9 53 -29l49 -67c15 -21 -9 -44 -37 -29c-35 18 -56 46 -90 46c-21 0 -56 -23 -93 -43c-24 -12 -56 2 -36 30l46 65
c14 20 26 27 53 27z" />
    <glyph glyph-name="Udieresis" unicode="&#xdc;" horiz-adv-x="884" 
d="M806 343c0 -137 -25 -370 -326 -370c-261 0 -332 152 -332 361v253c0 106 -77 96 -77 130c0 16 11 27 33 25c0 0 81 -11 129 -11c53 0 128 11 128 11c22 2 33 -9 33 -25c0 -34 -77 -24 -77 -130v-229c0 -167 40 -311 190 -311c142 0 215 90 215 279v261
c0 106 -77 96 -77 130c0 16 11 28 33 25c0 0 48 -11 86 -11c40 0 87 11 87 11c21 3 33 -9 33 -25c0 -34 -78 -24 -78 -130v-244zM602 932c28 0 51 -32 51 -70s-23 -69 -51 -69c-27 0 -50 31 -50 69s23 70 50 70zM423 932c28 0 51 -32 51 -70s-23 -69 -51 -69s-50 31 -50 69
s22 70 50 70z" />
    <glyph glyph-name="Ugrave" unicode="&#xd9;" horiz-adv-x="884" 
d="M806 343c0 -137 -25 -370 -326 -370c-261 0 -332 152 -332 361v253c0 106 -77 96 -77 130c0 16 11 27 33 25c0 0 81 -11 129 -11c53 0 128 11 128 11c22 2 33 -9 33 -25c0 -34 -77 -24 -77 -130v-229c0 -167 40 -311 190 -311c142 0 215 90 215 279v261
c0 106 -77 96 -77 130c0 16 11 28 33 25c0 0 48 -11 86 -11c40 0 87 11 87 11c21 3 33 -9 33 -25c0 -34 -78 -24 -78 -130v-244zM517 917l37 -98c12 -32 -30 -36 -51 -12l-79 92c-24 27 -18 41 12 41h41c27 0 32 -2 40 -23z" />
    <glyph glyph-name="Ydieresis" unicode="&#x178;" horiz-adv-x="880" 
d="M664 587c47 61 47 95 -20 103c-15 2 -34 14 -34 27c0 16 11 27 33 25c0 0 51 -11 105 -11c47 0 114 11 114 11c22 2 33 -9 33 -25c0 -12 -12 -20 -28 -27c-43 -20 -61 -47 -105 -103l-99 -128c-77 -100 -82 -101 -82 -225v-80c0 -106 77 -95 77 -129
c0 -17 -11 -27 -33 -25c0 0 -75 10 -129 10c-47 0 -128 -10 -128 -10c-22 -2 -33 8 -33 25c0 34 77 23 77 129v63c0 81 -4 75 -70 159l-164 211c-31 40 -65 94 -95 103c-16 5 -27 13 -27 27c0 16 11 27 33 25c0 0 81 -11 128 -11c54 0 129 11 129 11c22 2 33 -9 33 -25
c0 -11 -3 -18 -11 -23c-35 -23 -37 -48 11 -107l130 -159c14 -17 17 -17 31 0zM487 917c8 21 14 23 40 23h41c30 0 36 -13 12 -41l-78 -92c-21 -25 -64 -20 -52 12z" />
    <glyph glyph-name="aacute" unicode="&#xe1;" horiz-adv-x="556" 
d="M357 35c-44 -28 -93 -47 -137 -47c-63 -1 -142 41 -142 122c0 94 85 148 184 148c39 0 63 -13 63 -30c0 -12 -11 -18 -24 -22c-37 -11 -80 -26 -80 -75c0 -43 27 -69 61 -69c39 0 79 28 79 172c0 177 -60 196 -116 196c-28 0 -67 -6 -67 -39c0 -24 24 -33 24 -50
c0 -21 -29 -40 -61 -40c-28 -3 -70 12 -70 56c0 67 99 131 228 131c66 0 151 -11 185 -47c23 -24 18 -62 18 -121v-102c0 -80 2 -120 27 -130c16 -7 29 -8 29 -27c0 -11 -7 -20 -26 -30c-22 -12 -75 -31 -111 -31c-27 0 -43 10 -64 35zM307 663c8 22 13 24 40 24h41
c30 0 36 -14 12 -41l-79 -92c-21 -25 -63 -22 -51 11z" />
    <glyph glyph-name="acircumflex" unicode="&#xe2;" horiz-adv-x="556" 
d="M357 35c-44 -28 -93 -47 -137 -47c-63 -1 -142 41 -142 122c0 94 85 148 184 148c39 0 63 -13 63 -30c0 -12 -11 -18 -24 -22c-37 -11 -80 -26 -80 -75c0 -43 27 -69 61 -69c39 0 79 28 79 172c0 177 -60 196 -116 196c-28 0 -67 -6 -67 -39c0 -24 24 -33 24 -50
c0 -21 -29 -40 -61 -40c-28 -3 -70 12 -70 56c0 67 99 131 228 131c66 0 151 -11 185 -47c23 -24 18 -62 18 -121v-102c0 -80 2 -120 27 -130c16 -7 29 -8 29 -27c0 -11 -7 -20 -26 -30c-22 -12 -75 -31 -111 -31c-27 0 -43 10 -64 35zM270 663h54c24 0 39 -9 53 -29l49 -67
c15 -21 -9 -43 -37 -28c-35 18 -55 46 -89 46c-22 0 -57 -24 -94 -43c-24 -13 -56 2 -36 30l46 64c15 21 26 27 54 27z" />
    <glyph glyph-name="adieresis" unicode="&#xe4;" horiz-adv-x="556" 
d="M357 35c-44 -28 -93 -47 -137 -47c-63 -1 -142 41 -142 122c0 94 85 148 184 148c39 0 63 -13 63 -30c0 -12 -11 -18 -24 -22c-37 -11 -80 -26 -80 -75c0 -43 27 -69 61 -69c39 0 79 28 79 172c0 177 -60 196 -116 196c-28 0 -67 -6 -67 -39c0 -24 24 -33 24 -50
c0 -21 -29 -40 -61 -40c-28 -3 -70 12 -70 56c0 67 99 131 228 131c66 0 151 -11 185 -47c23 -24 18 -62 18 -121v-102c0 -80 2 -120 27 -130c16 -7 29 -8 29 -27c0 -11 -7 -20 -26 -30c-22 -12 -75 -31 -111 -31c-27 0 -43 10 -64 35zM404 677c28 0 50 -32 50 -70
c0 -39 -22 -69 -50 -69s-51 30 -51 69c0 38 23 70 51 70zM225 677c27 0 50 -32 50 -70c0 -39 -23 -69 -50 -69c-28 0 -51 30 -51 69c0 38 23 70 51 70z" />
    <glyph glyph-name="agrave" unicode="&#xe0;" horiz-adv-x="556" 
d="M357 35c-44 -28 -93 -47 -137 -47c-63 -1 -142 41 -142 122c0 94 85 148 184 148c39 0 63 -13 63 -30c0 -12 -11 -18 -24 -22c-37 -11 -80 -26 -80 -75c0 -43 27 -69 61 -69c39 0 79 28 79 172c0 177 -60 196 -116 196c-28 0 -67 -6 -67 -39c0 -24 24 -33 24 -50
c0 -21 -29 -40 -61 -40c-28 -3 -70 12 -70 56c0 67 99 131 228 131c66 0 151 -11 185 -47c23 -24 18 -62 18 -121v-102c0 -80 2 -120 27 -130c16 -7 29 -8 29 -27c0 -11 -7 -20 -26 -30c-22 -12 -75 -31 -111 -31c-27 0 -43 10 -64 35zM309 663l37 -98
c12 -32 -30 -36 -51 -11l-79 92c-24 27 -18 41 12 41h41c27 0 32 -2 40 -24z" />
    <glyph glyph-name="aring" unicode="&#xe5;" horiz-adv-x="556" 
d="M357 35c-44 -28 -93 -47 -137 -47c-63 -1 -142 41 -142 122c0 94 85 148 184 148c39 0 63 -13 63 -30c0 -12 -11 -18 -24 -22c-37 -11 -80 -26 -80 -75c0 -43 27 -69 61 -69c39 0 79 28 79 172c0 177 -60 196 -116 196c-28 0 -67 -6 -67 -39c0 -24 24 -33 24 -50
c0 -21 -29 -40 -61 -40c-28 -3 -70 12 -70 56c0 67 99 131 228 131c66 0 151 -11 185 -47c23 -24 18 -62 18 -121v-102c0 -80 2 -120 27 -130c16 -7 29 -8 29 -27c0 -11 -7 -20 -26 -30c-22 -12 -75 -31 -111 -31c-27 0 -43 10 -64 35zM300 708c47 0 85 -39 85 -86
s-38 -84 -85 -84c-48 0 -86 37 -86 84s38 86 86 86zM300 663c-22 0 -42 -19 -42 -41s20 -40 42 -40c21 0 41 18 41 40s-20 41 -41 41z" />
    <glyph glyph-name="atilde" unicode="&#xe3;" horiz-adv-x="556" 
d="M357 35c-44 -28 -93 -47 -137 -47c-63 -1 -142 41 -142 122c0 94 85 148 184 148c39 0 63 -13 63 -30c0 -12 -11 -18 -24 -22c-37 -11 -80 -26 -80 -75c0 -43 27 -69 61 -69c39 0 79 28 79 172c0 177 -60 196 -116 196c-28 0 -67 -6 -67 -39c0 -24 24 -33 24 -50
c0 -21 -29 -40 -61 -40c-28 -3 -70 12 -70 56c0 67 99 131 228 131c66 0 151 -11 185 -47c23 -24 18 -62 18 -121v-102c0 -80 2 -120 27 -130c16 -7 29 -8 29 -27c0 -11 -7 -20 -26 -30c-22 -12 -75 -31 -111 -31c-27 0 -43 10 -64 35zM277 658c41 0 81 -32 111 -32
c18 0 56 25 65 25c11 0 24 -10 24 -22c0 -37 -64 -91 -121 -91c-46 0 -75 26 -106 26c-18 0 -36 -19 -55 -19c-13 0 -27 9 -27 28c0 33 54 85 109 85z" />
    <glyph glyph-name="ccedilla" unicode="&#xe7;" horiz-adv-x="556" 
d="M299 -8c-128 17 -228 105 -228 236c0 152 110 260 275 260c90 0 186 -50 186 -129c0 -46 -52 -79 -103 -79c-25 0 -41 15 -41 24c0 17 6 34 6 52c0 30 -21 62 -58 62c-44 0 -101 -45 -101 -133c0 -118 55 -217 151 -217c52 0 100 29 136 50c9 6 22 5 28 -5
c7 -10 7 -21 -1 -34c-34 -56 -130 -91 -198 -91h-13c-8 -11 -20 -25 -22 -29c-3 -5 3 -7 10 -5c19 6 41 11 60 11c28 -1 57 -14 57 -50c0 -62 -71 -103 -152 -103c-14 0 -22 0 -31 3c-14 4 -11 23 5 25c46 6 95 13 95 51c0 15 -12 28 -34 28c-25 0 -43 -14 -59 -25
c-15 -10 -34 10 -22 24c17 22 36 48 54 74z" />
    <glyph glyph-name="eacute" unicode="&#xe9;" horiz-adv-x="557" 
d="M336 488c126 0 221 -93 221 -194c0 -34 -11 -52 -63 -52h-198c-34 0 -54 2 -54 -31c0 -47 43 -141 147 -141c48 0 88 24 117 41c11 6 26 6 35 -4c9 -12 1 -33 -9 -45c-36 -40 -111 -74 -182 -74c-178 0 -279 118 -279 237c0 138 107 263 265 263zM247 341
c1 -30 25 -40 88 -40c58 0 66 16 66 41c0 42 -33 82 -70 82c-51 0 -85 -52 -84 -83zM327 663c8 22 14 24 41 24h41c30 0 35 -13 11 -41l-78 -92c-22 -25 -64 -21 -52 11z" />
    <glyph glyph-name="ecircumflex" unicode="&#xea;" horiz-adv-x="557" 
d="M336 488c126 0 221 -93 221 -194c0 -34 -11 -52 -63 -52h-198c-34 0 -54 2 -54 -31c0 -47 43 -141 147 -141c48 0 88 24 117 41c11 6 26 6 35 -4c9 -12 1 -33 -9 -45c-36 -40 -111 -74 -182 -74c-178 0 -279 118 -279 237c0 138 107 263 265 263zM247 341
c1 -30 25 -40 88 -40c58 0 66 16 66 41c0 42 -33 82 -70 82c-51 0 -85 -52 -84 -83zM307 663h54c24 0 39 -9 53 -29l49 -67c15 -21 -9 -43 -37 -28c-35 18 -55 46 -89 46c-22 0 -57 -24 -94 -43c-24 -13 -56 2 -36 30l46 64c15 21 26 27 54 27z" />
    <glyph glyph-name="edieresis" unicode="&#xeb;" horiz-adv-x="557" 
d="M336 488c126 0 221 -93 221 -194c0 -34 -11 -52 -63 -52h-198c-34 0 -54 2 -54 -31c0 -47 43 -141 147 -141c48 0 88 24 117 41c11 6 26 6 35 -4c9 -12 1 -33 -9 -45c-36 -40 -111 -74 -182 -74c-178 0 -279 118 -279 237c0 138 107 263 265 263zM247 341
c1 -30 25 -40 88 -40c58 0 66 16 66 41c0 42 -33 82 -70 82c-51 0 -85 -52 -84 -83zM424 677c28 0 51 -32 51 -70c0 -39 -23 -69 -51 -69s-50 30 -50 69c0 38 22 70 50 70zM245 677c28 0 51 -32 51 -70c0 -39 -23 -69 -51 -69s-50 30 -50 69c0 38 22 70 50 70z" />
    <glyph glyph-name="egrave" unicode="&#xe8;" horiz-adv-x="557" 
d="M336 488c126 0 221 -93 221 -194c0 -34 -11 -52 -63 -52h-198c-34 0 -54 2 -54 -31c0 -47 43 -141 147 -141c48 0 88 24 117 41c11 6 26 6 35 -4c9 -12 1 -33 -9 -45c-36 -40 -111 -74 -182 -74c-178 0 -279 118 -279 237c0 138 107 263 265 263zM247 341
c1 -30 25 -40 88 -40c58 0 66 16 66 41c0 42 -33 82 -70 82c-51 0 -85 -52 -84 -83zM350 663l37 -98c12 -33 -30 -36 -51 -11l-79 92c-24 27 -18 41 12 41h41c27 0 32 -2 40 -24z" />
    <glyph glyph-name="iacute" unicode="&#xed;" horiz-adv-x="374" 
d="M297 154c0 -106 77 -95 77 -129c0 -17 -11 -27 -33 -25c0 0 -68 10 -122 10c-47 0 -115 -10 -115 -10c-22 -2 -33 8 -33 25c0 34 77 23 77 129v169c0 62 -11 86 -45 95c-26 7 -24 26 -2 37c24 13 73 21 120 21c57 0 80 -16 80 -75c0 -29 -4 -56 -4 -96v-151zM183 663
c8 22 14 24 40 24h42c30 0 35 -13 11 -41l-78 -92c-22 -25 -64 -21 -52 11z" />
    <glyph glyph-name="icircumflex" unicode="&#xee;" horiz-adv-x="374" 
d="M297 154c0 -106 77 -95 77 -129c0 -17 -11 -27 -33 -25c0 0 -68 10 -122 10c-47 0 -115 -10 -115 -10c-22 -2 -33 8 -33 25c0 34 77 23 77 129v169c0 62 -11 86 -45 95c-26 7 -24 26 -2 37c24 13 73 21 120 21c57 0 80 -16 80 -75c0 -29 -4 -56 -4 -96v-151zM172 663h55
c23 0 37 -9 52 -29l50 -67c15 -20 -10 -43 -38 -28c-35 18 -55 46 -89 46c-22 0 -57 -24 -94 -43c-24 -13 -56 3 -36 30l46 64c15 21 26 27 54 27z" />
    <glyph glyph-name="idieresis" unicode="&#xef;" horiz-adv-x="374" 
d="M297 154c0 -106 77 -95 77 -129c0 -17 -11 -27 -33 -25c0 0 -68 10 -122 10c-47 0 -115 -10 -115 -10c-22 -2 -33 8 -33 25c0 34 77 23 77 129v169c0 62 -11 86 -45 95c-26 7 -24 26 -2 37c24 13 73 21 120 21c57 0 80 -16 80 -75c0 -29 -4 -56 -4 -96v-151zM290 677
c28 0 51 -32 51 -70c0 -39 -23 -69 -51 -69c-27 0 -50 30 -50 69c0 38 23 70 50 70zM111 677c28 0 51 -32 51 -70c0 -39 -23 -69 -51 -69s-50 30 -50 69c0 38 22 70 50 70z" />
    <glyph glyph-name="igrave" unicode="&#xec;" horiz-adv-x="374" 
d="M297 154c0 -106 77 -95 77 -129c0 -17 -11 -27 -33 -25c0 0 -68 10 -122 10c-47 0 -115 -10 -115 -10c-22 -2 -33 8 -33 25c0 34 77 23 77 129v169c0 62 -11 86 -45 95c-26 7 -24 26 -2 37c24 13 73 21 120 21c57 0 80 -16 80 -75c0 -29 -4 -56 -4 -96v-151zM211 663
l37 -98c12 -33 -30 -36 -51 -11l-79 92c-24 27 -18 41 12 41h41c27 0 32 -2 40 -24z" />
    <glyph glyph-name="ntilde" unicode="&#xf1;" horiz-adv-x="662" 
d="M297 154c0 -106 77 -95 77 -129c0 -17 -11 -27 -33 -25c0 0 -68 10 -122 10c-47 0 -115 -10 -115 -10c-22 -2 -33 8 -33 25c0 34 77 23 77 129v169c0 62 -11 86 -45 95c-26 7 -24 26 -2 37c24 13 73 21 120 21c50 0 67 -5 67 -40c0 -16 9 -23 23 -15c41 24 106 67 162 67
c95 0 143 -70 143 -148c0 -44 -5 -159 -5 -202c0 -37 9 -64 44 -95c8 -7 10 -22 1 -27c-30 -14 -75 -24 -114 -24c-79 0 -94 41 -94 118c0 49 13 132 13 186c0 49 -15 105 -78 105c-76 0 -86 -96 -86 -180v-67zM329 658c41 0 81 -32 111 -32c17 0 55 25 65 25
c11 0 23 -10 23 -22c0 -37 -64 -91 -120 -91c-47 0 -75 26 -106 26c-19 0 -36 -19 -56 -19c-12 0 -27 9 -27 28c0 33 55 85 110 85z" />
    <glyph glyph-name="oacute" unicode="&#xf3;" horiz-adv-x="625" 
d="M348 488c153 0 277 -103 277 -250c0 -151 -124 -250 -277 -250c-152 0 -277 93 -277 250c0 155 125 250 277 250zM327 428c-59 0 -98 -72 -86 -190c12 -120 68 -191 128 -191c59 0 99 76 86 191c-12 112 -68 190 -128 190zM338 663c8 22 13 24 40 24h41
c30 0 35 -13 11 -41l-78 -92c-21 -25 -63 -22 -51 11z" />
    <glyph glyph-name="ocircumflex" unicode="&#xf4;" horiz-adv-x="625" 
d="M348 488c153 0 277 -103 277 -250c0 -151 -124 -250 -277 -250c-152 0 -277 93 -277 250c0 155 125 250 277 250zM327 428c-59 0 -98 -72 -86 -190c12 -120 68 -191 128 -191c59 0 99 76 86 191c-12 112 -68 190 -128 190zM318 663h55c23 0 37 -9 52 -29l50 -67
c15 -20 -10 -43 -37 -28c-35 18 -56 46 -90 46c-22 0 -57 -23 -94 -43c-23 -12 -56 3 -36 30l47 64c15 21 25 27 53 27z" />
    <glyph glyph-name="odieresis" unicode="&#xf6;" horiz-adv-x="625" 
d="M348 488c153 0 277 -103 277 -250c0 -151 -124 -250 -277 -250c-152 0 -277 93 -277 250c0 155 125 250 277 250zM327 428c-59 0 -98 -72 -86 -190c12 -120 68 -191 128 -191c59 0 99 76 86 191c-12 112 -68 190 -128 190zM443 677c28 0 50 -32 50 -70
c0 -39 -22 -69 -50 -69s-51 30 -51 69c0 38 23 70 51 70zM264 677c27 0 50 -32 50 -70c0 -39 -23 -69 -50 -69c-28 0 -51 30 -51 69c0 38 23 70 51 70z" />
    <glyph glyph-name="ograve" unicode="&#xf2;" horiz-adv-x="625" 
d="M348 488c153 0 277 -103 277 -250c0 -151 -124 -250 -277 -250c-152 0 -277 93 -277 250c0 155 125 250 277 250zM327 428c-59 0 -98 -72 -86 -190c12 -120 68 -191 128 -191c59 0 99 76 86 191c-12 112 -68 190 -128 190zM371 663l37 -98c12 -32 -30 -36 -52 -11l-78 92
c-24 28 -18 41 11 41h42c26 0 32 -2 40 -24z" />
    <glyph glyph-name="otilde" unicode="&#xf5;" horiz-adv-x="625" 
d="M348 488c153 0 277 -103 277 -250c0 -151 -124 -250 -277 -250c-152 0 -277 93 -277 250c0 155 125 250 277 250zM327 428c-59 0 -98 -72 -86 -190c12 -120 68 -191 128 -191c59 0 99 76 86 191c-12 112 -68 190 -128 190zM329 658c41 0 81 -32 111 -32c17 0 55 25 65 25
c11 0 23 -10 23 -22c0 -37 -64 -91 -120 -91c-47 0 -75 26 -106 26c-19 0 -36 -19 -56 -19c-12 0 -27 9 -27 28c0 33 55 85 110 85z" />
    <glyph glyph-name="uacute" unicode="&#xfa;" horiz-adv-x="676" 
d="M299 180c0 -49 15 -105 78 -105c76 0 86 96 86 179v69c0 62 -11 86 -45 95c-26 7 -24 26 -2 37c24 13 73 21 121 21c59 0 75 -16 75 -89v-235c0 -61 11 -84 45 -94c26 -7 24 -26 2 -37c-24 -13 -73 -21 -120 -21c-50 0 -67 5 -67 40c0 16 -9 23 -23 15
c-41 -24 -106 -67 -162 -67c-95 0 -143 70 -143 148c0 44 5 187 5 187c2 62 -11 86 -45 95c-26 7 -24 26 -2 37c24 13 80 21 128 21c59 0 75 -16 75 -89c0 -48 -6 -153 -6 -207zM369 663c8 22 13 24 40 24h41c30 0 35 -13 11 -41l-78 -92c-22 -25 -63 -22 -51 11z" />
    <glyph glyph-name="ucircumflex" unicode="&#xfb;" horiz-adv-x="676" 
d="M299 180c0 -49 15 -105 78 -105c76 0 86 96 86 179v69c0 62 -11 86 -45 95c-26 7 -24 26 -2 37c24 13 73 21 121 21c59 0 75 -16 75 -89v-235c0 -61 11 -84 45 -94c26 -7 24 -26 2 -37c-24 -13 -73 -21 -120 -21c-50 0 -67 5 -67 40c0 16 -9 23 -23 15
c-41 -24 -106 -67 -162 -67c-95 0 -143 70 -143 148c0 44 5 187 5 187c2 62 -11 86 -45 95c-26 7 -24 26 -2 37c24 13 80 21 128 21c59 0 75 -16 75 -89c0 -48 -6 -153 -6 -207zM347 663h55c23 0 37 -9 52 -29l50 -67c15 -20 -10 -43 -37 -28c-35 18 -56 46 -90 46
c-22 0 -57 -23 -94 -43c-23 -12 -56 3 -36 30l47 64c15 21 25 27 53 27z" />
    <glyph glyph-name="udieresis" unicode="&#xfc;" horiz-adv-x="676" 
d="M299 180c0 -49 15 -105 78 -105c76 0 86 96 86 179v69c0 62 -11 86 -45 95c-26 7 -24 26 -2 37c24 13 73 21 121 21c59 0 75 -16 75 -89v-235c0 -61 11 -84 45 -94c26 -7 24 -26 2 -37c-24 -13 -73 -21 -120 -21c-50 0 -67 5 -67 40c0 16 -9 23 -23 15
c-41 -24 -106 -67 -162 -67c-95 0 -143 70 -143 148c0 44 5 187 5 187c2 62 -11 86 -45 95c-26 7 -24 26 -2 37c24 13 80 21 128 21c59 0 75 -16 75 -89c0 -48 -6 -153 -6 -207zM455 677c28 0 51 -32 51 -70c0 -39 -23 -69 -51 -69s-50 30 -50 69c0 38 22 70 50 70zM276 677
c28 0 50 -32 50 -70c0 -39 -22 -69 -50 -69s-50 30 -50 69c0 38 22 70 50 70z" />
    <glyph glyph-name="ugrave" unicode="&#xf9;" horiz-adv-x="676" 
d="M299 180c0 -49 15 -105 78 -105c76 0 86 96 86 179v69c0 62 -11 86 -45 95c-26 7 -24 26 -2 37c24 13 73 21 121 21c59 0 75 -16 75 -89v-235c0 -61 11 -84 45 -94c26 -7 24 -26 2 -37c-24 -13 -73 -21 -120 -21c-50 0 -67 5 -67 40c0 16 -9 23 -23 15
c-41 -24 -106 -67 -162 -67c-95 0 -143 70 -143 148c0 44 5 187 5 187c2 62 -11 86 -45 95c-26 7 -24 26 -2 37c24 13 80 21 128 21c59 0 75 -16 75 -89c0 -48 -6 -153 -6 -207zM391 663l37 -98c12 -33 -29 -36 -51 -11l-78 92c-24 28 -19 41 11 41h41c27 0 32 -2 40 -24z
" />
    <glyph glyph-name="ydieresis" unicode="&#xff;" horiz-adv-x="651" 
d="M435 -27c-46 -98 -105 -179 -208 -179c-54 0 -101 24 -101 73c0 45 53 85 101 85c24 0 34 -9 34 -18c0 -17 -17 -19 -17 -39c0 -9 14 -19 26 -19c31 0 89 66 89 98c0 19 -13 38 -33 73l-154 267c-31 54 -45 95 -70 107c-17 8 -26 12 -26 26c0 15 12 21 33 19
c0 0 68 -11 116 -11c53 0 106 11 106 11c22 2 33 -6 33 -17c0 -16 -14 -22 -22 -28c-16 -10 -23 -35 -1 -84c27 -62 87 -164 87 -164c15 -28 23 -27 36 -5c28 45 44 111 66 170c17 47 0 74 -15 84c-8 6 -32 12 -32 28c0 14 10 18 33 17c0 0 25 -5 78 -5c48 0 74 5 74 5
c22 1 33 -4 33 -19c0 -14 -12 -15 -19 -21c-34 -22 -49 -34 -86 -112zM507 677c28 0 50 -32 50 -70c0 -39 -22 -69 -50 -69s-51 30 -51 69c0 38 23 70 51 70zM327 677c28 0 51 -32 51 -70c0 -39 -23 -69 -51 -69c-27 0 -50 30 -50 69c0 38 23 70 50 70z" />
    <glyph glyph-name="infinity" unicode="&#x221e;" horiz-adv-x="651" 
d="M435 -27c-46 -98 -105 -179 -208 -179c-54 0 -101 24 -101 73c0 45 53 85 101 85c24 0 34 -9 34 -18c0 -17 -17 -19 -17 -39c0 -9 14 -19 26 -19c31 0 89 66 89 98c0 19 -13 38 -33 73l-154 267c-31 54 -45 95 -70 107c-17 8 -26 12 -26 26c0 15 12 21 33 19
c0 0 68 -11 116 -11c53 0 106 11 106 11c22 2 33 -6 33 -17c0 -16 -14 -22 -22 -28c-16 -10 -23 -35 -1 -84c27 -62 87 -164 87 -164c15 -28 23 -27 36 -5c28 45 44 111 66 170c17 47 0 74 -15 84c-8 6 -32 12 -32 28c0 14 10 18 33 17c0 0 25 -5 78 -5c48 0 74 5 74 5
c22 1 33 -4 33 -19c0 -14 -12 -15 -19 -21c-34 -22 -49 -34 -86 -112zM400 663c8 22 13 24 40 24h41c30 0 35 -13 11 -41l-78 -92c-22 -25 -63 -22 -51 11z" />
    <glyph glyph-name="summation" unicode="&#x2211;" horiz-adv-x="882" 
d="M692 98c-27 -66 -45 -98 -80 -98c-37 0 -57 27 -89 117l-45 126c-8 23 -20 22 -29 1l-58 -136c-32 -75 -43 -108 -82 -108c-43 0 -57 43 -77 95l-82 212c-17 44 -32 92 -55 104c-17 8 -26 11 -26 26c0 14 11 19 33 17c0 0 56 -7 102 -7c52 0 94 7 94 7c21 2 32 -5 32 -16
c0 -16 -14 -23 -21 -27c-25 -11 -26 -41 -10 -82l47 -121c9 -23 17 -22 25 -3l67 166c29 71 41 101 77 101c31 0 40 -27 70 -104l59 -150c11 -27 20 -26 29 -2l42 114c22 60 0 72 -16 82c-8 6 -31 11 -31 27c0 14 11 17 32 16c0 0 25 -4 77 -4c46 0 73 4 73 4
c20 1 32 -3 32 -17c0 -15 -12 -18 -20 -21c-23 -10 -49 -27 -83 -109z" />
    <glyph glyph-name="radical" unicode="&#x221a;" horiz-adv-x="331" 
d="M173 521c-27 0 -38 5 -53 26l-45 63c-19 26 13 42 35 30c36 -19 71 -43 92 -43c33 0 53 28 87 46c27 14 51 -8 36 -29l-48 -65c-14 -19 -28 -28 -50 -28h-54z" />
    </font>
</defs>
</svg>
